<svg xmlns="http://www.w3.org/2000/svg" xmlns:xlink="http://www.w3.org/1999/xlink" width="500" zoomAndPan="magnify" viewBox="0 0 375 374.999991" height="500" preserveAspectRatio="xMidYMid meet" version="1.0"><defs><g/><clipPath id="4ffc46ebce"><path d="M 37.5 144.554688 L 337.5 144.554688 L 337.5 230.484375 L 37.5 230.484375 Z M 37.5 144.554688 " clip-rule="nonzero"/></clipPath><clipPath id="ffe8311ed4"><path d="M 74.148438 189.851562 L 115 189.851562 L 115 220.003906 L 74.148438 220.003906 Z M 74.148438 189.851562 " clip-rule="nonzero"/></clipPath><clipPath id="da2470899a"><path d="M 65 154.753906 L 87 154.753906 L 87 188 L 65 188 Z M 65 154.753906 " clip-rule="nonzero"/></clipPath><clipPath id="0aa2933f36"><path d="M 50.953125 187.109375 L 118.449219 187.109375 L 118.449219 192.71875 L 50.953125 192.71875 Z M 50.953125 187.109375 " clip-rule="nonzero"/></clipPath></defs><g clip-path="url(#4ffc46ebce)"><path fill="#ffffff" d="M 37.5 144.554688 L 337.578125 144.554688 L 337.578125 230.484375 L 37.5 230.484375 Z M 37.5 144.554688 " fill-opacity="1" fill-rule="nonzero"/></g><path fill="#40b93c" d="M 77.8125 198.761719 C 80.277344 196.457031 79.296875 192.546875 77.226562 189.898438 L 54.429688 189.898438 C 54.429688 202.1875 61.839844 212.75 72.457031 217.429688 C 70.628906 206.941406 75.761719 200.679688 77.8125 198.761719 " fill-opacity="1" fill-rule="nonzero"/><g clip-path="url(#ffe8311ed4)"><path fill="#40b93c" d="M 100.847656 189.898438 C 98.769531 193.089844 95.082031 197.304688 89.203125 199.476562 C 80.46875 202.707031 71.515625 204.71875 74.871094 218.371094 C 77.953125 219.421875 81.257812 220.003906 84.699219 220.003906 C 101.417969 220.003906 114.972656 206.523438 114.972656 189.898438 L 100.847656 189.898438 " fill-opacity="1" fill-rule="nonzero"/></g><g clip-path="url(#da2470899a)"><path fill="#80cc28" d="M 79.304688 178.558594 C 77.398438 175.464844 75.730469 172.0625 75.457031 169.292969 C 75.457031 169.292969 77.605469 172.449219 80.347656 175.851562 C 81.5625 173.238281 83.457031 170.507812 86.308594 167.792969 C 83.410156 163.117188 77.96875 158.3125 68.03125 154.753906 C 68.03125 154.753906 62.699219 167.214844 68.078125 176.847656 C 70.09375 181.3125 73.757812 184.742188 78.59375 187.359375 C 78.253906 184.953125 78.265625 181.90625 79.304688 178.558594 " fill-opacity="1" fill-rule="nonzero"/></g><path fill="#80cc28" d="M 101.371094 163.605469 C 73.992188 173.410156 80.738281 192.664062 80.738281 192.664062 C 85.492188 190.558594 93.945312 178.144531 93.945312 178.144531 C 93.4375 183.25 88.21875 190.492188 85.484375 193.976562 C 85.421875 194.046875 82.023438 197.800781 80.007812 198.902344 C 75.527344 201.351562 75.65625 203.804688 75.445312 204.871094 C 75.441406 204.902344 75.433594 204.925781 75.429688 204.949219 C 75.636719 204.378906 77.082031 201.453125 83.722656 199.230469 C 92.070312 196.441406 98.414062 192.148438 101.320312 185.699219 C 106.703125 176.070312 101.371094 163.605469 101.371094 163.605469 " fill-opacity="1" fill-rule="nonzero"/><g clip-path="url(#0aa2933f36)"><path fill="#40b93c" d="M 115.648438 187.113281 L 102.433594 187.113281 C 101.792969 188.425781 100.617188 190.515625 98.769531 192.679688 L 115.648438 192.679688 C 117.195312 192.679688 118.449219 191.433594 118.449219 189.898438 C 118.449219 188.359375 117.195312 187.113281 115.648438 187.113281 Z M 78.78125 192.679688 L 53.75 192.679688 C 52.207031 192.679688 50.953125 191.433594 50.953125 189.898438 C 50.953125 188.359375 52.207031 187.113281 53.75 187.113281 L 73.0625 187.113281 C 74.558594 187.707031 76.050781 188.503906 76.925781 189.527344 C 77.710938 190.441406 78.363281 191.539062 78.78125 192.679688 " fill-opacity="1" fill-rule="nonzero"/></g><g fill="#3c4937" fill-opacity="1"><g transform="translate(124.378171, 206.249986)"><g><path d="M 4.625 -3.90625 L 4.625 -34.28125 C 4.625 -35.445312 5.035156 -36.441406 5.859375 -37.265625 C 6.679688 -38.097656 7.679688 -38.515625 8.859375 -38.515625 L 30.421875 -38.515625 C 31.484375 -38.515625 32.390625 -38.132812 33.140625 -37.375 C 33.898438 -36.625 34.28125 -35.71875 34.28125 -34.65625 C 34.28125 -33.59375 33.898438 -32.6875 33.140625 -31.9375 C 32.390625 -31.1875 31.484375 -30.8125 30.421875 -30.8125 L 13.09375 -30.8125 L 13.09375 -22.609375 L 27.953125 -22.609375 C 29.015625 -22.609375 29.921875 -22.234375 30.671875 -21.484375 C 31.421875 -20.734375 31.796875 -19.828125 31.796875 -18.765625 C 31.796875 -17.703125 31.421875 -16.789062 30.671875 -16.03125 C 29.921875 -15.28125 29.015625 -14.90625 27.953125 -14.90625 L 13.09375 -14.90625 L 13.09375 -3.90625 C 13.09375 -2.726562 12.679688 -1.726562 11.859375 -0.90625 C 11.035156 -0.0820312 10.035156 0.328125 8.859375 0.328125 C 7.679688 0.328125 6.679688 -0.0820312 5.859375 -0.90625 C 5.035156 -1.726562 4.625 -2.726562 4.625 -3.90625 Z M 4.625 -3.90625 "/></g></g></g><g fill="#3c4937" fill-opacity="1"><g transform="translate(154.748723, 206.249986)"><g><path d="M 1.8125 -25.796875 C 1.8125 -26.972656 2.207031 -27.9375 3 -28.6875 C 3.789062 -29.4375 4.769531 -29.8125 5.9375 -29.8125 C 7 -29.8125 7.84375 -29.535156 8.46875 -28.984375 C 9.09375 -28.441406 9.585938 -27.675781 9.953125 -26.6875 L 16.34375 -9.515625 L 22.5 -26.625 C 22.832031 -27.507812 23.316406 -28.257812 23.953125 -28.875 C 24.597656 -29.5 25.453125 -29.8125 26.515625 -29.8125 C 27.578125 -29.8125 28.503906 -29.445312 29.296875 -28.71875 C 30.085938 -27.988281 30.484375 -27.070312 30.484375 -25.96875 C 30.484375 -25.632812 30.4375 -25.265625 30.34375 -24.859375 C 30.25 -24.460938 30.164062 -24.171875 30.09375 -23.984375 L 19.8125 0.71875 C 19.1875 2.21875 18.550781 3.488281 17.90625 4.53125 C 17.257812 5.582031 16.550781 6.4375 15.78125 7.09375 C 15.019531 7.757812 14.160156 8.238281 13.203125 8.53125 C 12.242188 8.820312 11.125 8.96875 9.84375 8.96875 C 9.144531 8.96875 8.382812 8.910156 7.5625 8.796875 C 6.738281 8.691406 5.957031 8.488281 5.21875 8.1875 C 4.488281 7.894531 3.875 7.460938 3.375 6.890625 C 2.882812 6.328125 2.640625 5.609375 2.640625 4.734375 C 2.640625 3.703125 2.976562 2.875 3.65625 2.25 C 4.332031 1.632812 5.09375 1.328125 5.9375 1.328125 C 6.269531 1.328125 6.535156 1.34375 6.734375 1.375 C 6.941406 1.414062 7.132812 1.472656 7.3125 1.546875 C 7.6875 1.648438 8 1.726562 8.25 1.78125 C 8.507812 1.84375 8.785156 1.875 9.078125 1.875 C 9.804688 1.875 10.378906 1.757812 10.796875 1.53125 C 11.222656 1.3125 11.640625 0.835938 12.046875 0.109375 L 12.328125 -0.546875 L 2.25 -23.875 C 2.144531 -24.164062 2.046875 -24.484375 1.953125 -24.828125 C 1.859375 -25.179688 1.8125 -25.503906 1.8125 -25.796875 Z M 1.8125 -25.796875 "/></g></g></g><g fill="#3c4937" fill-opacity="1"><g transform="translate(181.267904, 206.249986)"><g><path d="M 7.921875 -29.8125 C 9.097656 -29.8125 10.085938 -29.40625 10.890625 -28.59375 C 11.703125 -27.789062 12.109375 -26.804688 12.109375 -25.640625 L 12.109375 -25.3125 C 13.054688 -26.550781 14.207031 -27.644531 15.5625 -28.59375 C 16.925781 -29.550781 18.648438 -30.03125 20.734375 -30.03125 C 23.960938 -30.03125 26.4375 -29.066406 28.15625 -27.140625 C 29.882812 -25.222656 30.75 -22.539062 30.75 -19.09375 L 30.75 -3.84375 C 30.75 -2.675781 30.34375 -1.6875 29.53125 -0.875 C 28.726562 -0.0703125 27.742188 0.328125 26.578125 0.328125 C 25.398438 0.328125 24.40625 -0.0703125 23.59375 -0.875 C 22.789062 -1.6875 22.390625 -2.675781 22.390625 -3.84375 L 22.390625 -16.453125 C 22.390625 -20.453125 20.703125 -22.453125 17.328125 -22.453125 C 15.679688 -22.453125 14.398438 -21.945312 13.484375 -20.9375 C 12.566406 -19.925781 12.109375 -18.429688 12.109375 -16.453125 L 12.109375 -3.84375 C 12.109375 -2.675781 11.703125 -1.6875 10.890625 -0.875 C 10.085938 -0.0703125 9.097656 0.328125 7.921875 0.328125 C 6.742188 0.328125 5.75 -0.0703125 4.9375 -0.875 C 4.132812 -1.6875 3.734375 -2.675781 3.734375 -3.84375 L 3.734375 -25.640625 C 3.734375 -26.804688 4.132812 -27.789062 4.9375 -28.59375 C 5.75 -29.40625 6.742188 -29.8125 7.921875 -29.8125 Z M 7.921875 -29.8125 "/></g></g></g><g fill="#3c4937" fill-opacity="1"><g transform="translate(209.822805, 206.249986)"><g><path d="M 2.46875 -5.453125 L 15.90625 -35.765625 C 16.375 -36.828125 17.019531 -37.648438 17.84375 -38.234375 C 18.675781 -38.816406 19.675781 -39.109375 20.84375 -39.109375 L 21.34375 -39.109375 C 22.519531 -39.109375 23.507812 -38.816406 24.3125 -38.234375 C 25.125 -37.648438 25.769531 -36.828125 26.25 -35.765625 L 39.671875 -5.453125 C 39.960938 -4.640625 40.109375 -4.066406 40.109375 -3.734375 C 40.109375 -2.597656 39.722656 -1.632812 38.953125 -0.84375 C 38.179688 -0.0625 37.226562 0.328125 36.09375 0.328125 C 35.101562 0.328125 34.273438 0.0625 33.609375 -0.46875 C 32.953125 -1 32.421875 -1.703125 32.015625 -2.578125 L 29.4375 -8.640625 L 12.484375 -8.640625 L 9.796875 -2.3125 C 9.429688 -1.46875 8.90625 -0.816406 8.21875 -0.359375 C 7.539062 0.0976562 6.765625 0.328125 5.890625 0.328125 C 4.785156 0.328125 3.859375 -0.0546875 3.109375 -0.828125 C 2.359375 -1.597656 1.984375 -2.53125 1.984375 -3.625 C 1.984375 -3.925781 2.023438 -4.226562 2.109375 -4.53125 C 2.203125 -4.84375 2.320312 -5.148438 2.46875 -5.453125 Z M 15.625 -16.125 L 26.296875 -16.125 L 20.953125 -28.828125 Z M 15.625 -16.125 "/></g></g></g><g fill="#3c4937" fill-opacity="1"><g transform="translate(246.245519, 206.249986)"><g><path d="M 7.921875 -29.8125 C 9.097656 -29.8125 10.085938 -29.40625 10.890625 -28.59375 C 11.703125 -27.789062 12.109375 -26.804688 12.109375 -25.640625 L 12.109375 -25.25 C 13.128906 -26.644531 14.363281 -27.789062 15.8125 -28.6875 C 17.257812 -29.582031 19.085938 -30.03125 21.296875 -30.03125 C 23.015625 -30.03125 24.679688 -29.703125 26.296875 -29.046875 C 27.910156 -28.390625 29.335938 -27.410156 30.578125 -26.109375 C 31.828125 -24.804688 32.828125 -23.207031 33.578125 -21.3125 C 34.335938 -19.425781 34.71875 -17.253906 34.71875 -14.796875 L 34.71875 -14.6875 C 34.71875 -12.226562 34.335938 -10.054688 33.578125 -8.171875 C 32.828125 -6.285156 31.835938 -4.691406 30.609375 -3.390625 C 29.378906 -2.085938 27.957031 -1.101562 26.34375 -0.4375 C 24.738281 0.21875 23.054688 0.546875 21.296875 0.546875 C 19.054688 0.546875 17.210938 0.109375 15.765625 -0.765625 C 14.316406 -1.648438 13.097656 -2.675781 12.109375 -3.84375 L 12.109375 4.953125 C 12.109375 6.128906 11.703125 7.117188 10.890625 7.921875 C 10.085938 8.722656 9.097656 9.125 7.921875 9.125 C 6.742188 9.125 5.75 8.722656 4.9375 7.921875 C 4.132812 7.117188 3.734375 6.128906 3.734375 4.953125 L 3.734375 -25.640625 C 3.734375 -26.804688 4.132812 -27.789062 4.9375 -28.59375 C 5.75 -29.40625 6.742188 -29.8125 7.921875 -29.8125 Z M 12 -14.796875 L 12 -14.6875 C 12 -13.476562 12.191406 -12.367188 12.578125 -11.359375 C 12.960938 -10.347656 13.472656 -9.484375 14.109375 -8.765625 C 14.753906 -8.054688 15.503906 -7.507812 16.359375 -7.125 C 17.222656 -6.738281 18.148438 -6.546875 19.140625 -6.546875 C 20.128906 -6.546875 21.054688 -6.738281 21.921875 -7.125 C 22.785156 -7.507812 23.546875 -8.054688 24.203125 -8.765625 C 24.867188 -9.484375 25.394531 -10.335938 25.78125 -11.328125 C 26.164062 -12.316406 26.359375 -13.4375 26.359375 -14.6875 L 26.359375 -14.796875 C 26.359375 -16.003906 26.164062 -17.113281 25.78125 -18.125 C 25.394531 -19.132812 24.867188 -19.992188 24.203125 -20.703125 C 23.546875 -21.421875 22.785156 -21.972656 21.921875 -22.359375 C 21.054688 -22.742188 20.128906 -22.9375 19.140625 -22.9375 C 18.148438 -22.9375 17.222656 -22.742188 16.359375 -22.359375 C 15.503906 -21.972656 14.753906 -21.421875 14.109375 -20.703125 C 13.472656 -19.992188 12.960938 -19.132812 12.578125 -18.125 C 12.191406 -17.113281 12 -16.003906 12 -14.796875 Z M 12 -14.796875 "/></g></g></g><g fill="#3c4937" fill-opacity="1"><g transform="translate(277.661449, 206.249986)"><g><path d="M 7.921875 -29.8125 C 9.097656 -29.8125 10.085938 -29.40625 10.890625 -28.59375 C 11.703125 -27.789062 12.109375 -26.804688 12.109375 -25.640625 L 12.109375 -25.25 C 13.128906 -26.644531 14.363281 -27.789062 15.8125 -28.6875 C 17.257812 -29.582031 19.085938 -30.03125 21.296875 -30.03125 C 23.015625 -30.03125 24.679688 -29.703125 26.296875 -29.046875 C 27.910156 -28.390625 29.335938 -27.410156 30.578125 -26.109375 C 31.828125 -24.804688 32.828125 -23.207031 33.578125 -21.3125 C 34.335938 -19.425781 34.71875 -17.253906 34.71875 -14.796875 L 34.71875 -14.6875 C 34.71875 -12.226562 34.335938 -10.054688 33.578125 -8.171875 C 32.828125 -6.285156 31.835938 -4.691406 30.609375 -3.390625 C 29.378906 -2.085938 27.957031 -1.101562 26.34375 -0.4375 C 24.738281 0.21875 23.054688 0.546875 21.296875 0.546875 C 19.054688 0.546875 17.210938 0.109375 15.765625 -0.765625 C 14.316406 -1.648438 13.097656 -2.675781 12.109375 -3.84375 L 12.109375 4.953125 C 12.109375 6.128906 11.703125 7.117188 10.890625 7.921875 C 10.085938 8.722656 9.097656 9.125 7.921875 9.125 C 6.742188 9.125 5.75 8.722656 4.9375 7.921875 C 4.132812 7.117188 3.734375 6.128906 3.734375 4.953125 L 3.734375 -25.640625 C 3.734375 -26.804688 4.132812 -27.789062 4.9375 -28.59375 C 5.75 -29.40625 6.742188 -29.8125 7.921875 -29.8125 Z M 12 -14.796875 L 12 -14.6875 C 12 -13.476562 12.191406 -12.367188 12.578125 -11.359375 C 12.960938 -10.347656 13.472656 -9.484375 14.109375 -8.765625 C 14.753906 -8.054688 15.503906 -7.507812 16.359375 -7.125 C 17.222656 -6.738281 18.148438 -6.546875 19.140625 -6.546875 C 20.128906 -6.546875 21.054688 -6.738281 21.921875 -7.125 C 22.785156 -7.507812 23.546875 -8.054688 24.203125 -8.765625 C 24.867188 -9.484375 25.394531 -10.335938 25.78125 -11.328125 C 26.164062 -12.316406 26.359375 -13.4375 26.359375 -14.6875 L 26.359375 -14.796875 C 26.359375 -16.003906 26.164062 -17.113281 25.78125 -18.125 C 25.394531 -19.132812 24.867188 -19.992188 24.203125 -20.703125 C 23.546875 -21.421875 22.785156 -21.972656 21.921875 -22.359375 C 21.054688 -22.742188 20.128906 -22.9375 19.140625 -22.9375 C 18.148438 -22.9375 17.222656 -22.742188 16.359375 -22.359375 C 15.503906 -21.972656 14.753906 -21.421875 14.109375 -20.703125 C 13.472656 -19.992188 12.960938 -19.132812 12.578125 -18.125 C 12.191406 -17.113281 12 -16.003906 12 -14.796875 Z M 12 -14.796875 "/></g></g></g><g fill="#3c4937" fill-opacity="1"><g transform="translate(309.077382, 206.249986)"><g><path d="M 3.078125 -4.453125 C 3.078125 -5.773438 3.523438 -6.882812 4.421875 -7.78125 C 5.328125 -8.675781 6.476562 -9.125 7.875 -9.125 C 9.257812 -9.125 10.398438 -8.675781 11.296875 -7.78125 C 12.203125 -6.882812 12.65625 -5.773438 12.65625 -4.453125 L 12.65625 -4.34375 C 12.65625 -3.019531 12.203125 -1.910156 11.296875 -1.015625 C 10.398438 -0.117188 9.257812 0.328125 7.875 0.328125 C 6.476562 0.328125 5.328125 -0.117188 4.421875 -1.015625 C 3.523438 -1.910156 3.078125 -3.019531 3.078125 -4.34375 Z M 3.078125 -4.453125 "/></g></g></g></svg>