<svg xmlns="http://www.w3.org/2000/svg" xmlns:xlink="http://www.w3.org/1999/xlink" width="500" zoomAndPan="magnify" viewBox="0 0 375 374.999991" height="500" preserveAspectRatio="xMidYMid meet" version="1.0"><defs><clipPath id="34a5ffd220"><path d="M 140.59375 198.191406 L 322.257812 198.191406 L 322.257812 332.992188 L 140.59375 332.992188 Z M 140.59375 198.191406 " clip-rule="nonzero"/></clipPath><clipPath id="74825ea51f"><path d="M 102 41.25 L 195 41.25 L 195 188 L 102 188 Z M 102 41.25 " clip-rule="nonzero"/></clipPath><clipPath id="8454fc6ec1"><path d="M 37.5 185.925781 L 337.496094 185.925781 L 337.496094 211 L 37.5 211 Z M 37.5 185.925781 " clip-rule="nonzero"/></clipPath></defs><rect x="-37.5" width="450" fill="#ffffff" y="-37.499999" height="449.999989" fill-opacity="1"/><path fill="#40b93c" d="M 156.890625 238.023438 C 167.84375 227.71875 163.484375 210.238281 154.273438 198.390625 L 52.953125 198.390625 C 52.953125 253.34375 85.886719 300.574219 133.078125 321.488281 C 124.964844 274.597656 147.773438 246.597656 156.890625 238.023438 " fill-opacity="1" fill-rule="nonzero"/><g clip-path="url(#34a5ffd220)"><path fill="#40b93c" d="M 259.277344 198.390625 C 250.039062 212.660156 233.636719 231.503906 207.515625 241.21875 C 168.683594 255.664062 128.90625 264.652344 143.800781 325.691406 C 157.507812 330.398438 172.195312 332.992188 187.496094 332.992188 C 261.804688 332.992188 322.042969 272.726562 322.042969 198.390625 L 259.277344 198.390625 " fill-opacity="1" fill-rule="nonzero"/></g><g clip-path="url(#74825ea51f)"><path fill="#80cc28" d="M 163.511719 147.691406 C 155.050781 133.871094 147.632812 118.660156 146.40625 106.265625 C 146.40625 106.265625 155.96875 120.382812 168.152344 135.585938 C 173.558594 123.917969 181.980469 111.699219 194.648438 99.566406 C 181.757812 78.652344 157.582031 57.175781 113.410156 41.261719 C 113.410156 41.261719 89.707031 96.988281 113.625 140.039062 L 113.621094 140.039062 C 122.574219 160.015625 138.863281 175.351562 160.355469 187.046875 C 158.851562 176.28125 158.90625 162.664062 163.511719 147.691406 " fill-opacity="1" fill-rule="nonzero"/></g><path fill="#80cc28" d="M 261.585938 80.84375 C 139.90625 124.683594 169.882812 210.765625 169.882812 210.765625 C 191.011719 201.34375 228.589844 145.847656 228.589844 145.847656 C 226.328125 168.671875 203.128906 201.058594 190.980469 216.640625 C 190.703125 216.949219 175.601562 233.730469 166.648438 238.652344 C 146.734375 249.609375 147.308594 260.566406 146.371094 265.335938 C 146.34375 265.476562 146.316406 265.589844 146.296875 265.691406 C 147.214844 263.148438 153.632812 250.058594 183.152344 240.125 C 220.257812 227.644531 248.449219 208.457031 261.375 179.625 C 285.289062 136.570312 261.585938 80.84375 261.585938 80.84375 " fill-opacity="1" fill-rule="nonzero"/><g clip-path="url(#8454fc6ec1)"><path fill="#40b93c" d="M 325.054688 185.941406 L 266.324219 185.941406 C 263.476562 191.8125 258.238281 201.160156 250.035156 210.839844 L 325.054688 210.839844 C 331.925781 210.839844 337.496094 205.261719 337.496094 198.390625 C 337.496094 191.515625 331.925781 185.941406 325.054688 185.941406 Z M 161.183594 210.839844 L 49.941406 210.839844 C 43.066406 210.839844 37.5 205.261719 37.5 198.390625 C 37.5 191.515625 43.066406 185.941406 49.941406 185.941406 L 135.777344 185.941406 C 142.429688 188.601562 149.046875 192.171875 152.949219 196.738281 C 156.441406 200.824219 159.332031 205.730469 161.183594 210.839844 " fill-opacity="1" fill-rule="nonzero"/></g></svg>