<svg xmlns="http://www.w3.org/2000/svg" xmlns:xlink="http://www.w3.org/1999/xlink" width="500" zoomAndPan="magnify" viewBox="90 90 200 200" height="500" preserveAspectRatio="xMidYMid meet" version="1.0"><defs><g/><clipPath id="10a1903673"><path d="M 76.082031 95.375 L 302.300781 95.375 L 302.300781 271.46875 L 76.082031 271.46875 Z M 76.082031 95.375 " clip-rule="nonzero"/></clipPath><clipPath id="5b9958eac8"><path d="M 148.457031 146.609375 L 196.144531 146.609375 L 196.144531 181.953125 L 148.457031 181.953125 Z M 148.457031 146.609375 " clip-rule="nonzero"/></clipPath><clipPath id="ba08209f8e"><path d="M 138 105.460938 L 163 105.460938 L 163 144 L 138 144 Z M 138 105.460938 " clip-rule="nonzero"/></clipPath><clipPath id="e7d9e6ff76"><path d="M 121.398438 143.394531 L 200.144531 143.394531 L 200.144531 149.972656 L 121.398438 149.972656 Z M 121.398438 143.394531 " clip-rule="nonzero"/></clipPath></defs><g clip-path="url(#10a1903673)"><path fill="#ffffff" d="M 76.082031 95.375 L 302.390625 95.375 L 302.390625 271.46875 L 76.082031 271.46875 Z M 76.082031 95.375 " fill-opacity="1" fill-rule="nonzero"/></g><g fill="#3c4937" fill-opacity="1"><g transform="translate(88.960158, 215.999986)"><g><path d="M 4.625 -3.90625 L 4.625 -34.28125 C 4.625 -35.445312 5.035156 -36.441406 5.859375 -37.265625 C 6.679688 -38.097656 7.679688 -38.515625 8.859375 -38.515625 L 30.421875 -38.515625 C 31.484375 -38.515625 32.390625 -38.132812 33.140625 -37.375 C 33.898438 -36.625 34.28125 -35.71875 34.28125 -34.65625 C 34.28125 -33.59375 33.898438 -32.6875 33.140625 -31.9375 C 32.390625 -31.1875 31.484375 -30.8125 30.421875 -30.8125 L 13.09375 -30.8125 L 13.09375 -22.609375 L 27.953125 -22.609375 C 29.015625 -22.609375 29.921875 -22.234375 30.671875 -21.484375 C 31.421875 -20.734375 31.796875 -19.828125 31.796875 -18.765625 C 31.796875 -17.703125 31.421875 -16.789062 30.671875 -16.03125 C 29.921875 -15.28125 29.015625 -14.90625 27.953125 -14.90625 L 13.09375 -14.90625 L 13.09375 -3.90625 C 13.09375 -2.726562 12.679688 -1.726562 11.859375 -0.90625 C 11.035156 -0.0820312 10.035156 0.328125 8.859375 0.328125 C 7.679688 0.328125 6.679688 -0.0820312 5.859375 -0.90625 C 5.035156 -1.726562 4.625 -2.726562 4.625 -3.90625 Z M 4.625 -3.90625 "/></g></g></g><g fill="#3c4937" fill-opacity="1"><g transform="translate(119.33071, 215.999986)"><g><path d="M 1.8125 -25.796875 C 1.8125 -26.972656 2.207031 -27.9375 3 -28.6875 C 3.789062 -29.4375 4.769531 -29.8125 5.9375 -29.8125 C 7 -29.8125 7.84375 -29.535156 8.46875 -28.984375 C 9.09375 -28.441406 9.585938 -27.675781 9.953125 -26.6875 L 16.34375 -9.515625 L 22.5 -26.625 C 22.832031 -27.507812 23.316406 -28.257812 23.953125 -28.875 C 24.597656 -29.5 25.453125 -29.8125 26.515625 -29.8125 C 27.578125 -29.8125 28.503906 -29.445312 29.296875 -28.71875 C 30.085938 -27.988281 30.484375 -27.070312 30.484375 -25.96875 C 30.484375 -25.632812 30.4375 -25.265625 30.34375 -24.859375 C 30.25 -24.460938 30.164062 -24.171875 30.09375 -23.984375 L 19.8125 0.71875 C 19.1875 2.21875 18.550781 3.488281 17.90625 4.53125 C 17.257812 5.582031 16.550781 6.4375 15.78125 7.09375 C 15.019531 7.757812 14.160156 8.238281 13.203125 8.53125 C 12.242188 8.820312 11.125 8.96875 9.84375 8.96875 C 9.144531 8.96875 8.382812 8.910156 7.5625 8.796875 C 6.738281 8.691406 5.957031 8.488281 5.21875 8.1875 C 4.488281 7.894531 3.875 7.460938 3.375 6.890625 C 2.882812 6.328125 2.640625 5.609375 2.640625 4.734375 C 2.640625 3.703125 2.976562 2.875 3.65625 2.25 C 4.332031 1.632812 5.09375 1.328125 5.9375 1.328125 C 6.269531 1.328125 6.535156 1.34375 6.734375 1.375 C 6.941406 1.414062 7.132812 1.472656 7.3125 1.546875 C 7.6875 1.648438 8 1.726562 8.25 1.78125 C 8.507812 1.84375 8.785156 1.875 9.078125 1.875 C 9.804688 1.875 10.378906 1.757812 10.796875 1.53125 C 11.222656 1.3125 11.640625 0.835938 12.046875 0.109375 L 12.328125 -0.546875 L 2.25 -23.875 C 2.144531 -24.164062 2.046875 -24.484375 1.953125 -24.828125 C 1.859375 -25.179688 1.8125 -25.503906 1.8125 -25.796875 Z M 1.8125 -25.796875 "/></g></g></g><g fill="#3c4937" fill-opacity="1"><g transform="translate(145.849891, 215.999986)"><g><path d="M 7.921875 -29.8125 C 9.097656 -29.8125 10.085938 -29.40625 10.890625 -28.59375 C 11.703125 -27.789062 12.109375 -26.804688 12.109375 -25.640625 L 12.109375 -25.3125 C 13.054688 -26.550781 14.207031 -27.644531 15.5625 -28.59375 C 16.925781 -29.550781 18.648438 -30.03125 20.734375 -30.03125 C 23.960938 -30.03125 26.4375 -29.066406 28.15625 -27.140625 C 29.882812 -25.222656 30.75 -22.539062 30.75 -19.09375 L 30.75 -3.84375 C 30.75 -2.675781 30.34375 -1.6875 29.53125 -0.875 C 28.726562 -0.0703125 27.742188 0.328125 26.578125 0.328125 C 25.398438 0.328125 24.40625 -0.0703125 23.59375 -0.875 C 22.789062 -1.6875 22.390625 -2.675781 22.390625 -3.84375 L 22.390625 -16.453125 C 22.390625 -20.453125 20.703125 -22.453125 17.328125 -22.453125 C 15.679688 -22.453125 14.398438 -21.945312 13.484375 -20.9375 C 12.566406 -19.925781 12.109375 -18.429688 12.109375 -16.453125 L 12.109375 -3.84375 C 12.109375 -2.675781 11.703125 -1.6875 10.890625 -0.875 C 10.085938 -0.0703125 9.097656 0.328125 7.921875 0.328125 C 6.742188 0.328125 5.75 -0.0703125 4.9375 -0.875 C 4.132812 -1.6875 3.734375 -2.675781 3.734375 -3.84375 L 3.734375 -25.640625 C 3.734375 -26.804688 4.132812 -27.789062 4.9375 -28.59375 C 5.75 -29.40625 6.742188 -29.8125 7.921875 -29.8125 Z M 7.921875 -29.8125 "/></g></g></g><g fill="#3c4937" fill-opacity="1"><g transform="translate(174.404792, 215.999986)"><g><path d="M 2.46875 -5.453125 L 15.90625 -35.765625 C 16.375 -36.828125 17.019531 -37.648438 17.84375 -38.234375 C 18.675781 -38.816406 19.675781 -39.109375 20.84375 -39.109375 L 21.34375 -39.109375 C 22.519531 -39.109375 23.507812 -38.816406 24.3125 -38.234375 C 25.125 -37.648438 25.769531 -36.828125 26.25 -35.765625 L 39.671875 -5.453125 C 39.960938 -4.640625 40.109375 -4.066406 40.109375 -3.734375 C 40.109375 -2.597656 39.722656 -1.632812 38.953125 -0.84375 C 38.179688 -0.0625 37.226562 0.328125 36.09375 0.328125 C 35.101562 0.328125 34.273438 0.0625 33.609375 -0.46875 C 32.953125 -1 32.421875 -1.703125 32.015625 -2.578125 L 29.4375 -8.640625 L 12.484375 -8.640625 L 9.796875 -2.3125 C 9.429688 -1.46875 8.90625 -0.816406 8.21875 -0.359375 C 7.539062 0.0976562 6.765625 0.328125 5.890625 0.328125 C 4.785156 0.328125 3.859375 -0.0546875 3.109375 -0.828125 C 2.359375 -1.597656 1.984375 -2.53125 1.984375 -3.625 C 1.984375 -3.925781 2.023438 -4.226562 2.109375 -4.53125 C 2.203125 -4.84375 2.320312 -5.148438 2.46875 -5.453125 Z M 15.625 -16.125 L 26.296875 -16.125 L 20.953125 -28.828125 Z M 15.625 -16.125 "/></g></g></g><g fill="#3c4937" fill-opacity="1"><g transform="translate(210.827506, 215.999986)"><g><path d="M 7.921875 -29.8125 C 9.097656 -29.8125 10.085938 -29.40625 10.890625 -28.59375 C 11.703125 -27.789062 12.109375 -26.804688 12.109375 -25.640625 L 12.109375 -25.25 C 13.128906 -26.644531 14.363281 -27.789062 15.8125 -28.6875 C 17.257812 -29.582031 19.085938 -30.03125 21.296875 -30.03125 C 23.015625 -30.03125 24.679688 -29.703125 26.296875 -29.046875 C 27.910156 -28.390625 29.335938 -27.410156 30.578125 -26.109375 C 31.828125 -24.804688 32.828125 -23.207031 33.578125 -21.3125 C 34.335938 -19.425781 34.71875 -17.253906 34.71875 -14.796875 L 34.71875 -14.6875 C 34.71875 -12.226562 34.335938 -10.054688 33.578125 -8.171875 C 32.828125 -6.285156 31.835938 -4.691406 30.609375 -3.390625 C 29.378906 -2.085938 27.957031 -1.101562 26.34375 -0.4375 C 24.738281 0.21875 23.054688 0.546875 21.296875 0.546875 C 19.054688 0.546875 17.210938 0.109375 15.765625 -0.765625 C 14.316406 -1.648438 13.097656 -2.675781 12.109375 -3.84375 L 12.109375 4.953125 C 12.109375 6.128906 11.703125 7.117188 10.890625 7.921875 C 10.085938 8.722656 9.097656 9.125 7.921875 9.125 C 6.742188 9.125 5.75 8.722656 4.9375 7.921875 C 4.132812 7.117188 3.734375 6.128906 3.734375 4.953125 L 3.734375 -25.640625 C 3.734375 -26.804688 4.132812 -27.789062 4.9375 -28.59375 C 5.75 -29.40625 6.742188 -29.8125 7.921875 -29.8125 Z M 12 -14.796875 L 12 -14.6875 C 12 -13.476562 12.191406 -12.367188 12.578125 -11.359375 C 12.960938 -10.347656 13.472656 -9.484375 14.109375 -8.765625 C 14.753906 -8.054688 15.503906 -7.507812 16.359375 -7.125 C 17.222656 -6.738281 18.148438 -6.546875 19.140625 -6.546875 C 20.128906 -6.546875 21.054688 -6.738281 21.921875 -7.125 C 22.785156 -7.507812 23.546875 -8.054688 24.203125 -8.765625 C 24.867188 -9.484375 25.394531 -10.335938 25.78125 -11.328125 C 26.164062 -12.316406 26.359375 -13.4375 26.359375 -14.6875 L 26.359375 -14.796875 C 26.359375 -16.003906 26.164062 -17.113281 25.78125 -18.125 C 25.394531 -19.132812 24.867188 -19.992188 24.203125 -20.703125 C 23.546875 -21.421875 22.785156 -21.972656 21.921875 -22.359375 C 21.054688 -22.742188 20.128906 -22.9375 19.140625 -22.9375 C 18.148438 -22.9375 17.222656 -22.742188 16.359375 -22.359375 C 15.503906 -21.972656 14.753906 -21.421875 14.109375 -20.703125 C 13.472656 -19.992188 12.960938 -19.132812 12.578125 -18.125 C 12.191406 -17.113281 12 -16.003906 12 -14.796875 Z M 12 -14.796875 "/></g></g></g><g fill="#3c4937" fill-opacity="1"><g transform="translate(242.243436, 215.999986)"><g><path d="M 7.921875 -29.8125 C 9.097656 -29.8125 10.085938 -29.40625 10.890625 -28.59375 C 11.703125 -27.789062 12.109375 -26.804688 12.109375 -25.640625 L 12.109375 -25.25 C 13.128906 -26.644531 14.363281 -27.789062 15.8125 -28.6875 C 17.257812 -29.582031 19.085938 -30.03125 21.296875 -30.03125 C 23.015625 -30.03125 24.679688 -29.703125 26.296875 -29.046875 C 27.910156 -28.390625 29.335938 -27.410156 30.578125 -26.109375 C 31.828125 -24.804688 32.828125 -23.207031 33.578125 -21.3125 C 34.335938 -19.425781 34.71875 -17.253906 34.71875 -14.796875 L 34.71875 -14.6875 C 34.71875 -12.226562 34.335938 -10.054688 33.578125 -8.171875 C 32.828125 -6.285156 31.835938 -4.691406 30.609375 -3.390625 C 29.378906 -2.085938 27.957031 -1.101562 26.34375 -0.4375 C 24.738281 0.21875 23.054688 0.546875 21.296875 0.546875 C 19.054688 0.546875 17.210938 0.109375 15.765625 -0.765625 C 14.316406 -1.648438 13.097656 -2.675781 12.109375 -3.84375 L 12.109375 4.953125 C 12.109375 6.128906 11.703125 7.117188 10.890625 7.921875 C 10.085938 8.722656 9.097656 9.125 7.921875 9.125 C 6.742188 9.125 5.75 8.722656 4.9375 7.921875 C 4.132812 7.117188 3.734375 6.128906 3.734375 4.953125 L 3.734375 -25.640625 C 3.734375 -26.804688 4.132812 -27.789062 4.9375 -28.59375 C 5.75 -29.40625 6.742188 -29.8125 7.921875 -29.8125 Z M 12 -14.796875 L 12 -14.6875 C 12 -13.476562 12.191406 -12.367188 12.578125 -11.359375 C 12.960938 -10.347656 13.472656 -9.484375 14.109375 -8.765625 C 14.753906 -8.054688 15.503906 -7.507812 16.359375 -7.125 C 17.222656 -6.738281 18.148438 -6.546875 19.140625 -6.546875 C 20.128906 -6.546875 21.054688 -6.738281 21.921875 -7.125 C 22.785156 -7.507812 23.546875 -8.054688 24.203125 -8.765625 C 24.867188 -9.484375 25.394531 -10.335938 25.78125 -11.328125 C 26.164062 -12.316406 26.359375 -13.4375 26.359375 -14.6875 L 26.359375 -14.796875 C 26.359375 -16.003906 26.164062 -17.113281 25.78125 -18.125 C 25.394531 -19.132812 24.867188 -19.992188 24.203125 -20.703125 C 23.546875 -21.421875 22.785156 -21.972656 21.921875 -22.359375 C 21.054688 -22.742188 20.128906 -22.9375 19.140625 -22.9375 C 18.148438 -22.9375 17.222656 -22.742188 16.359375 -22.359375 C 15.503906 -21.972656 14.753906 -21.421875 14.109375 -20.703125 C 13.472656 -19.992188 12.960938 -19.132812 12.578125 -18.125 C 12.191406 -17.113281 12 -16.003906 12 -14.796875 Z M 12 -14.796875 "/></g></g></g><g fill="#3c4937" fill-opacity="1"><g transform="translate(273.659365, 215.999986)"><g><path d="M 3.078125 -4.453125 C 3.078125 -5.773438 3.523438 -6.882812 4.421875 -7.78125 C 5.328125 -8.675781 6.476562 -9.125 7.875 -9.125 C 9.257812 -9.125 10.398438 -8.675781 11.296875 -7.78125 C 12.203125 -6.882812 12.65625 -5.773438 12.65625 -4.453125 L 12.65625 -4.34375 C 12.65625 -3.019531 12.203125 -1.910156 11.296875 -1.015625 C 10.398438 -0.117188 9.257812 0.328125 7.875 0.328125 C 6.476562 0.328125 5.328125 -0.117188 4.421875 -1.015625 C 3.523438 -1.910156 3.078125 -3.019531 3.078125 -4.34375 Z M 3.078125 -4.453125 "/></g></g></g><path fill="#40b93c" d="M 152.738281 157.054688 C 155.613281 154.351562 154.46875 149.769531 152.050781 146.664062 L 125.453125 146.664062 C 125.453125 161.070312 134.097656 173.453125 146.484375 178.9375 C 144.355469 166.644531 150.34375 159.300781 152.738281 157.054688 " fill-opacity="1" fill-rule="nonzero"/><g clip-path="url(#5b9958eac8)"><path fill="#40b93c" d="M 179.613281 146.664062 C 177.1875 150.40625 172.882812 155.34375 166.027344 157.894531 C 155.832031 161.679688 145.390625 164.035156 149.300781 180.039062 C 152.898438 181.273438 156.753906 181.953125 160.769531 181.953125 C 180.277344 181.953125 196.089844 166.152344 196.089844 146.664062 L 179.613281 146.664062 " fill-opacity="1" fill-rule="nonzero"/></g><g clip-path="url(#ba08209f8e)"><path fill="#80cc28" d="M 154.476562 133.371094 C 152.253906 129.746094 150.308594 125.761719 149.984375 122.511719 C 149.984375 122.511719 152.496094 126.210938 155.695312 130.199219 C 157.113281 127.136719 159.324219 123.933594 162.648438 120.753906 C 159.265625 115.269531 152.917969 109.640625 141.324219 105.464844 C 141.324219 105.464844 135.101562 120.078125 141.378906 131.367188 C 143.730469 136.601562 148.003906 140.625 153.648438 143.691406 C 153.25 140.867188 153.265625 137.296875 154.476562 133.371094 " fill-opacity="1" fill-rule="nonzero"/></g><path fill="#80cc28" d="M 180.21875 115.84375 C 148.277344 127.339844 156.148438 149.910156 156.148438 149.910156 C 161.695312 147.4375 171.558594 132.886719 171.558594 132.886719 C 170.964844 138.871094 164.875 147.363281 161.6875 151.449219 C 161.613281 151.53125 157.648438 155.929688 155.296875 157.21875 C 150.070312 160.09375 150.222656 162.964844 149.976562 164.214844 C 149.96875 164.253906 149.960938 164.28125 149.957031 164.308594 C 150.195312 163.640625 151.882812 160.210938 159.628906 157.605469 C 169.371094 154.332031 176.769531 149.304688 180.164062 141.742188 C 186.441406 130.457031 180.21875 115.84375 180.21875 115.84375 " fill-opacity="1" fill-rule="nonzero"/><g clip-path="url(#e7d9e6ff76)"><path fill="#40b93c" d="M 196.878906 143.398438 L 181.460938 143.398438 C 180.714844 144.9375 179.339844 147.390625 177.1875 149.925781 L 196.878906 149.925781 C 198.683594 149.925781 200.144531 148.464844 200.144531 146.664062 C 200.144531 144.859375 198.683594 143.398438 196.878906 143.398438 Z M 153.863281 149.925781 L 124.664062 149.925781 C 122.859375 149.925781 121.398438 148.464844 121.398438 146.664062 C 121.398438 144.859375 122.859375 143.398438 124.664062 143.398438 L 147.195312 143.398438 C 148.941406 144.097656 150.675781 145.03125 151.703125 146.230469 C 152.617188 147.300781 153.378906 148.585938 153.863281 149.925781 " fill-opacity="1" fill-rule="nonzero"/></g><g fill="#26973c" fill-opacity="1"><g transform="translate(96.89441, 241.494155)"><g><path d="M 8.765625 0 L 7.3125 0 L 2.625 -6.296875 L 2.625 0 L 1.15625 0 L 1.15625 -8.765625 L 2.609375 -8.765625 L 7.3125 -2.46875 L 7.3125 -8.765625 L 8.765625 -8.765625 Z M 8.765625 0 "/></g></g></g><g fill="#26973c" fill-opacity="1"><g transform="translate(110.376323, 241.494155)"><g><path d="M 8.609375 -8.765625 L 8.609375 -3.640625 C 8.609375 -2.492188 8.269531 -1.585938 7.59375 -0.921875 C 6.914062 -0.265625 5.984375 0.0625 4.796875 0.0625 C 3.609375 0.0625 2.675781 -0.265625 2 -0.921875 C 1.320312 -1.585938 0.984375 -2.492188 0.984375 -3.640625 L 0.984375 -8.765625 L 2.453125 -8.765625 L 2.453125 -3.640625 C 2.453125 -2.898438 2.660156 -2.316406 3.078125 -1.890625 C 3.503906 -1.472656 4.082031 -1.265625 4.8125 -1.265625 C 5.53125 -1.265625 6.09375 -1.472656 6.5 -1.890625 C 6.914062 -2.304688 7.125 -2.890625 7.125 -3.640625 L 7.125 -8.765625 Z M 8.609375 -8.765625 "/></g></g></g><g fill="#26973c" fill-opacity="1"><g transform="translate(123.507463, 241.494155)"><g><path d="M 7.140625 -7.4375 L 4.359375 -7.4375 L 4.359375 0 L 2.875 0 L 2.875 -7.4375 L 0.109375 -7.4375 L 0.109375 -8.765625 L 7.140625 -8.765625 Z M 7.140625 -7.4375 "/></g></g></g><g fill="#26973c" fill-opacity="1"><g transform="translate(134.32105, 241.494155)"><g><path d="M 6.71875 0 L 5.109375 -2.65625 C 5.023438 -2.644531 4.894531 -2.640625 4.71875 -2.640625 L 2.625 -2.640625 L 2.625 0 L 1.15625 0 L 1.15625 -8.765625 L 4.71875 -8.765625 C 5.832031 -8.765625 6.695312 -8.503906 7.3125 -7.984375 C 7.9375 -7.460938 8.25 -6.726562 8.25 -5.78125 C 8.25 -5.070312 8.09375 -4.472656 7.78125 -3.984375 C 7.46875 -3.503906 7.015625 -3.15625 6.421875 -2.9375 L 8.390625 0 Z M 2.625 -3.96875 L 4.71875 -3.96875 C 6.132812 -3.96875 6.84375 -4.554688 6.84375 -5.734375 C 6.84375 -6.867188 6.132812 -7.4375 4.71875 -7.4375 L 2.625 -7.4375 Z M 2.625 -3.96875 "/></g></g></g><g fill="#26973c" fill-opacity="1"><g transform="translate(146.938567, 241.494155)"><g><path d="M 2.625 0 L 1.15625 0 L 1.15625 -8.765625 L 2.625 -8.765625 Z M 2.625 0 "/></g></g></g><g fill="#26973c" fill-opacity="1"><g transform="translate(154.282074, 241.494155)"><g><path d="M 7.140625 -7.4375 L 4.359375 -7.4375 L 4.359375 0 L 2.875 0 L 2.875 -7.4375 L 0.109375 -7.4375 L 0.109375 -8.765625 L 7.140625 -8.765625 Z M 7.140625 -7.4375 "/></g></g></g><g fill="#26973c" fill-opacity="1"><g transform="translate(165.095659, 241.494155)"><g><path d="M 2.625 0 L 1.15625 0 L 1.15625 -8.765625 L 2.625 -8.765625 Z M 2.625 0 "/></g></g></g><g fill="#26973c" fill-opacity="1"><g transform="translate(172.439166, 241.494155)"><g><path d="M 1.765625 -7.53125 C 2.660156 -8.382812 3.765625 -8.8125 5.078125 -8.8125 C 6.390625 -8.8125 7.488281 -8.382812 8.375 -7.53125 C 9.269531 -6.6875 9.71875 -5.632812 9.71875 -4.375 C 9.71875 -3.125 9.269531 -2.070312 8.375 -1.21875 C 7.488281 -0.363281 6.390625 0.0625 5.078125 0.0625 C 3.765625 0.0625 2.660156 -0.363281 1.765625 -1.21875 C 0.867188 -2.070312 0.421875 -3.125 0.421875 -4.375 C 0.421875 -5.632812 0.867188 -6.6875 1.765625 -7.53125 Z M 5.09375 -7.484375 C 4.21875 -7.484375 3.472656 -7.179688 2.859375 -6.578125 C 2.242188 -5.984375 1.9375 -5.25 1.9375 -4.375 C 1.9375 -3.507812 2.242188 -2.773438 2.859375 -2.171875 C 3.484375 -1.566406 4.222656 -1.265625 5.078125 -1.265625 C 5.941406 -1.265625 6.675781 -1.566406 7.28125 -2.171875 C 7.894531 -2.773438 8.203125 -3.507812 8.203125 -4.375 C 8.203125 -5.25 7.894531 -5.984375 7.28125 -6.578125 C 6.675781 -7.179688 5.945312 -7.484375 5.09375 -7.484375 Z M 5.09375 -7.484375 "/></g></g></g><g fill="#26973c" fill-opacity="1"><g transform="translate(186.146573, 241.494155)"><g><path d="M 8.765625 0 L 7.3125 0 L 2.625 -6.296875 L 2.625 0 L 1.15625 0 L 1.15625 -8.765625 L 2.609375 -8.765625 L 7.3125 -2.46875 L 7.3125 -8.765625 L 8.765625 -8.765625 Z M 8.765625 0 "/></g></g></g><g fill="#26973c" fill-opacity="1"><g transform="translate(199.628484, 241.494155)"><g/></g></g><g fill="#26973c" fill-opacity="1"><g transform="translate(206.420792, 241.494155)"><g><path d="M 2.625 0 L 1.15625 0 L 1.15625 -8.765625 L 2.625 -8.765625 Z M 2.625 0 "/></g></g></g><g fill="#26973c" fill-opacity="1"><g transform="translate(213.764305, 241.494155)"><g><path d="M 8.765625 0 L 7.3125 0 L 2.625 -6.296875 L 2.625 0 L 1.15625 0 L 1.15625 -8.765625 L 2.609375 -8.765625 L 7.3125 -2.46875 L 7.3125 -8.765625 L 8.765625 -8.765625 Z M 8.765625 0 "/></g></g></g><g fill="#26973c" fill-opacity="1"><g transform="translate(227.246223, 241.494155)"><g/></g></g><g fill="#26973c" fill-opacity="1"><g transform="translate(234.038531, 241.494155)"><g><path d="M 4.75 -2.921875 L 4.75 0 L 3.28125 0 L 3.28125 -2.875 L 0.015625 -8.765625 L 1.5 -8.765625 L 4.015625 -4.5 L 6.46875 -8.765625 L 7.96875 -8.765625 Z M 4.75 -2.921875 "/></g></g></g><g fill="#26973c" fill-opacity="1"><g transform="translate(245.578707, 241.494155)"><g><path d="M 1.765625 -7.53125 C 2.660156 -8.382812 3.765625 -8.8125 5.078125 -8.8125 C 6.390625 -8.8125 7.488281 -8.382812 8.375 -7.53125 C 9.269531 -6.6875 9.71875 -5.632812 9.71875 -4.375 C 9.71875 -3.125 9.269531 -2.070312 8.375 -1.21875 C 7.488281 -0.363281 6.390625 0.0625 5.078125 0.0625 C 3.765625 0.0625 2.660156 -0.363281 1.765625 -1.21875 C 0.867188 -2.070312 0.421875 -3.125 0.421875 -4.375 C 0.421875 -5.632812 0.867188 -6.6875 1.765625 -7.53125 Z M 5.09375 -7.484375 C 4.21875 -7.484375 3.472656 -7.179688 2.859375 -6.578125 C 2.242188 -5.984375 1.9375 -5.25 1.9375 -4.375 C 1.9375 -3.507812 2.242188 -2.773438 2.859375 -2.171875 C 3.484375 -1.566406 4.222656 -1.265625 5.078125 -1.265625 C 5.941406 -1.265625 6.675781 -1.566406 7.28125 -2.171875 C 7.894531 -2.773438 8.203125 -3.507812 8.203125 -4.375 C 8.203125 -5.25 7.894531 -5.984375 7.28125 -6.578125 C 6.675781 -7.179688 5.945312 -7.484375 5.09375 -7.484375 Z M 5.09375 -7.484375 "/></g></g></g><g fill="#26973c" fill-opacity="1"><g transform="translate(259.286118, 241.494155)"><g><path d="M 8.609375 -8.765625 L 8.609375 -3.640625 C 8.609375 -2.492188 8.269531 -1.585938 7.59375 -0.921875 C 6.914062 -0.265625 5.984375 0.0625 4.796875 0.0625 C 3.609375 0.0625 2.675781 -0.265625 2 -0.921875 C 1.320312 -1.585938 0.984375 -2.492188 0.984375 -3.640625 L 0.984375 -8.765625 L 2.453125 -8.765625 L 2.453125 -3.640625 C 2.453125 -2.898438 2.660156 -2.316406 3.078125 -1.890625 C 3.503906 -1.472656 4.082031 -1.265625 4.8125 -1.265625 C 5.53125 -1.265625 6.09375 -1.472656 6.5 -1.890625 C 6.914062 -2.304688 7.125 -2.890625 7.125 -3.640625 L 7.125 -8.765625 Z M 8.609375 -8.765625 "/></g></g></g><g fill="#26973c" fill-opacity="1"><g transform="translate(272.417263, 241.494155)"><g><path d="M 6.71875 0 L 5.109375 -2.65625 C 5.023438 -2.644531 4.894531 -2.640625 4.71875 -2.640625 L 2.625 -2.640625 L 2.625 0 L 1.15625 0 L 1.15625 -8.765625 L 4.71875 -8.765625 C 5.832031 -8.765625 6.695312 -8.503906 7.3125 -7.984375 C 7.9375 -7.460938 8.25 -6.726562 8.25 -5.78125 C 8.25 -5.070312 8.09375 -4.472656 7.78125 -3.984375 C 7.46875 -3.503906 7.015625 -3.15625 6.421875 -2.9375 L 8.390625 0 Z M 2.625 -3.96875 L 4.71875 -3.96875 C 6.132812 -3.96875 6.84375 -4.554688 6.84375 -5.734375 C 6.84375 -6.867188 6.132812 -7.4375 4.71875 -7.4375 L 2.625 -7.4375 Z M 2.625 -3.96875 "/></g></g></g><g fill="#26973c" fill-opacity="1"><g transform="translate(154.386593, 258.744153)"><g><path d="M 1.15625 -8.765625 L 4.65625 -8.765625 C 5.75 -8.765625 6.597656 -8.503906 7.203125 -7.984375 C 7.816406 -7.460938 8.125 -6.726562 8.125 -5.78125 C 8.125 -4.78125 7.816406 -4.003906 7.203125 -3.453125 C 6.597656 -2.910156 5.75 -2.640625 4.65625 -2.640625 L 2.625 -2.640625 L 2.625 0 L 1.15625 0 Z M 2.625 -7.4375 L 2.625 -3.96875 L 4.59375 -3.96875 C 6 -3.96875 6.703125 -4.554688 6.703125 -5.734375 C 6.703125 -6.867188 6 -7.4375 4.59375 -7.4375 Z M 2.625 -7.4375 "/></g></g></g><g fill="#26973c" fill-opacity="1"><g transform="translate(166.377754, 258.744153)"><g><path d="M 1.765625 -7.53125 C 2.660156 -8.382812 3.765625 -8.8125 5.078125 -8.8125 C 6.390625 -8.8125 7.488281 -8.382812 8.375 -7.53125 C 9.269531 -6.6875 9.71875 -5.632812 9.71875 -4.375 C 9.71875 -3.125 9.269531 -2.070312 8.375 -1.21875 C 7.488281 -0.363281 6.390625 0.0625 5.078125 0.0625 C 3.765625 0.0625 2.660156 -0.363281 1.765625 -1.21875 C 0.867188 -2.070312 0.421875 -3.125 0.421875 -4.375 C 0.421875 -5.632812 0.867188 -6.6875 1.765625 -7.53125 Z M 5.09375 -7.484375 C 4.21875 -7.484375 3.472656 -7.179688 2.859375 -6.578125 C 2.242188 -5.984375 1.9375 -5.25 1.9375 -4.375 C 1.9375 -3.507812 2.242188 -2.773438 2.859375 -2.171875 C 3.484375 -1.566406 4.222656 -1.265625 5.078125 -1.265625 C 5.941406 -1.265625 6.675781 -1.566406 7.28125 -2.171875 C 7.894531 -2.773438 8.203125 -3.507812 8.203125 -4.375 C 8.203125 -5.25 7.894531 -5.984375 7.28125 -6.578125 C 6.675781 -7.179688 5.945312 -7.484375 5.09375 -7.484375 Z M 5.09375 -7.484375 "/></g></g></g><g fill="#26973c" fill-opacity="1"><g transform="translate(180.085161, 258.744153)"><g><path d="M 5.03125 -8.8125 C 5.65625 -8.8125 6.257812 -8.691406 6.84375 -8.453125 C 7.4375 -8.210938 7.945312 -7.878906 8.375 -7.453125 L 7.5 -6.375 C 7.1875 -6.71875 6.8125 -6.988281 6.375 -7.1875 C 5.945312 -7.394531 5.507812 -7.5 5.0625 -7.5 C 4.1875 -7.5 3.445312 -7.195312 2.84375 -6.59375 C 2.238281 -6 1.9375 -5.269531 1.9375 -4.40625 C 1.9375 -3.539062 2.238281 -2.804688 2.84375 -2.203125 C 3.445312 -1.609375 4.1875 -1.3125 5.0625 -1.3125 C 5.96875 -1.3125 6.78125 -1.660156 7.5 -2.359375 L 8.390625 -1.375 C 7.929688 -0.9375 7.398438 -0.585938 6.796875 -0.328125 C 6.203125 -0.0664062 5.597656 0.0625 4.984375 0.0625 C 3.703125 0.0625 2.617188 -0.363281 1.734375 -1.21875 C 0.859375 -2.070312 0.421875 -3.132812 0.421875 -4.40625 C 0.421875 -5.644531 0.863281 -6.6875 1.75 -7.53125 C 2.644531 -8.382812 3.738281 -8.8125 5.03125 -8.8125 Z M 5.03125 -8.8125 "/></g></g></g><g fill="#26973c" fill-opacity="1"><g transform="translate(192.376971, 258.744153)"><g><path d="M 7 0 L 4.125 -3.875 L 2.625 -2.234375 L 2.625 0 L 1.15625 0 L 1.15625 -8.765625 L 2.625 -8.765625 L 2.625 -4.234375 L 6.8125 -8.765625 L 8.5625 -8.765625 L 5.15625 -5.03125 L 8.78125 0 Z M 7 0 "/></g></g></g><g fill="#26973c" fill-opacity="1"><g transform="translate(204.931854, 258.744153)"><g><path d="M 7.421875 -7.4375 L 2.625 -7.4375 L 2.625 -5.078125 L 6.921875 -5.078125 L 6.921875 -3.75 L 2.625 -3.75 L 2.625 -1.328125 L 7.5625 -1.328125 L 7.5625 0 L 1.15625 0 L 1.15625 -8.765625 L 7.421875 -8.765625 Z M 7.421875 -7.4375 "/></g></g></g><g fill="#26973c" fill-opacity="1"><g transform="translate(216.710049, 258.744153)"><g><path d="M 7.140625 -7.4375 L 4.359375 -7.4375 L 4.359375 0 L 2.875 0 L 2.875 -7.4375 L 0.109375 -7.4375 L 0.109375 -8.765625 L 7.140625 -8.765625 Z M 7.140625 -7.4375 "/></g></g></g></svg>


