<svg xmlns="http://www.w3.org/2000/svg" xmlns:xlink="http://www.w3.org/1999/xlink" width="300" zoomAndPan="magnify" viewBox="0 0 224.87999 44.999999" height="60" preserveAspectRatio="xMidYMid meet" version="1.0"><defs><g/><clipPath id="c211b2bdde"><path d="M 0 0.0117188 L 224.761719 0.0117188 L 224.761719 44.988281 L 0 44.988281 Z M 0 0.0117188 " clip-rule="nonzero"/></clipPath><clipPath id="4ef3ce49d1"><path d="M 3.339844 0.0117188 L 221.542969 0.0117188 C 222.425781 0.0117188 223.277344 0.363281 223.902344 0.992188 C 224.527344 1.617188 224.878906 2.464844 224.878906 3.351562 L 224.878906 42.398438 C 224.878906 43.285156 224.527344 44.132812 223.902344 44.761719 C 223.277344 45.386719 222.425781 45.738281 221.542969 45.738281 L 3.339844 45.738281 C 2.453125 45.738281 1.605469 45.386719 0.976562 44.761719 C 0.351562 44.132812 0 43.285156 0 42.398438 L 0 3.351562 C 0 2.464844 0.351562 1.617188 0.976562 0.992188 C 1.605469 0.363281 2.453125 0.0117188 3.339844 0.0117188 Z M 3.339844 0.0117188 " clip-rule="nonzero"/></clipPath><clipPath id="0af19ecd8a"><path d="M 0 0.0117188 L 224.761719 0.0117188 L 224.761719 44.988281 L 0 44.988281 Z M 0 0.0117188 " clip-rule="nonzero"/></clipPath><clipPath id="8e6b14c800"><path d="M 3.339844 0.0117188 L 221.542969 0.0117188 C 222.425781 0.0117188 223.277344 0.363281 223.902344 0.992188 C 224.527344 1.617188 224.878906 2.464844 224.878906 3.351562 L 224.878906 42.398438 C 224.878906 43.285156 224.527344 44.132812 223.902344 44.761719 C 223.277344 45.386719 222.425781 45.738281 221.542969 45.738281 L 3.339844 45.738281 C 2.453125 45.738281 1.605469 45.386719 0.976562 44.761719 C 0.351562 44.132812 0 43.285156 0 42.398438 L 0 3.351562 C 0 2.464844 0.351562 1.617188 0.976562 0.992188 C 1.605469 0.363281 2.453125 0.0117188 3.339844 0.0117188 Z M 3.339844 0.0117188 " clip-rule="nonzero"/></clipPath><clipPath id="9dcb652ad5"><rect x="0" width="225" y="0" height="45"/></clipPath><clipPath id="6388fe5dfd"><path d="M 7.441406 7.078125 L 35.925781 7.078125 L 35.925781 36.3125 L 7.441406 36.3125 Z M 7.441406 7.078125 " clip-rule="nonzero"/></clipPath><clipPath id="ba0f4d75ac"><path d="M 40 21 L 55 21 L 55 37.511719 L 40 37.511719 Z M 40 21 " clip-rule="nonzero"/></clipPath><clipPath id="7a985c5026"><rect x="0" width="90" y="0" height="38"/></clipPath></defs><g clip-path="url(#c211b2bdde)"><g clip-path="url(#4ef3ce49d1)"><g transform="matrix(1, 0, 0, 1, 0, 0.000000000000008174)"><g clip-path="url(#9dcb652ad5)"><g clip-path="url(#0af19ecd8a)"><g clip-path="url(#8e6b14c800)"><path fill="#ffffff" d="M 0 0.0117188 L 224.878906 0.0117188 L 224.878906 45.738281 L 0 45.738281 Z M 0 0.0117188 " fill-opacity="1" fill-rule="nonzero"/></g></g></g></g></g></g><g clip-path="url(#6388fe5dfd)"><path fill="#f3be4a" d="M 31.796875 23.957031 C 31.796875 23.957031 31.167969 26.09375 30.480469 26.78125 C 29.792969 27.472656 27.667969 28.105469 27.667969 28.105469 C 27.667969 28.105469 29.792969 28.734375 30.480469 29.425781 C 31.167969 30.117188 31.796875 32.25 31.796875 32.25 C 31.796875 32.25 32.421875 30.117188 33.109375 29.425781 C 33.800781 28.734375 35.921875 28.105469 35.921875 28.105469 C 35.921875 28.105469 33.800781 27.472656 33.109375 26.78125 C 32.421875 26.09375 31.796875 23.957031 31.796875 23.957031 Z M 13.699219 23.726562 C 13.699219 23.726562 12.75 26.964844 11.707031 28.011719 C 10.664062 29.058594 7.441406 30.015625 7.441406 30.015625 C 7.441406 30.015625 10.664062 30.972656 11.707031 32.019531 C 12.75 33.066406 13.699219 36.304688 13.699219 36.304688 C 13.699219 36.304688 14.652344 33.066406 15.695312 32.019531 C 16.738281 30.972656 19.960938 30.015625 19.960938 30.015625 C 19.960938 30.015625 16.738281 29.058594 15.695312 28.011719 C 14.652344 26.964844 13.699219 23.726562 13.699219 23.726562 Z M 23.300781 7.085938 C 23.300781 7.085938 21.84375 12.050781 20.242188 13.65625 C 18.640625 15.265625 13.699219 16.730469 13.699219 16.730469 C 13.699219 16.730469 18.640625 18.195312 20.242188 19.804688 C 21.84375 21.414062 23.300781 26.375 23.300781 26.375 C 23.300781 26.375 24.761719 21.414062 26.363281 19.804688 C 27.960938 18.195312 32.902344 16.730469 32.902344 16.730469 C 32.902344 16.730469 27.960938 15.265625 26.363281 13.65625 C 24.761719 12.050781 23.300781 7.085938 23.300781 7.085938 " fill-opacity="1" fill-rule="evenodd"/></g><g transform="matrix(1, 0, 0, 1, 60, 4)"><g clip-path="url(#7a985c5026)"><g fill="#ff914d" fill-opacity="1"><g transform="translate(6.497339, 16.786027)"><g><path d="M 12.375 -15.140625 L 11.84375 -11.8125 L 7.09375 -11.8125 L 6.6875 -9.28125 L 11 -9.28125 L 10.484375 -5.9375 L 6.15625 -5.9375 L 5.21875 0 L 1.28125 0 L 3.671875 -15.140625 Z M 12.375 -15.140625 "/></g></g></g><g fill="#ff914d" fill-opacity="1"><g transform="translate(16.169488, 16.786027)"><g><path d="M 10.4375 -10.296875 L 14.09375 -10.296875 L 12.46875 0 L 8.8125 0 L 9 -1.140625 L 8.953125 -1.140625 C 8.578125 -0.660156 8.082031 -0.289062 7.46875 -0.03125 C 6.863281 0.21875 6.242188 0.34375 5.609375 0.34375 C 4.316406 0.34375 3.257812 -0.0820312 2.4375 -0.9375 C 1.613281 -1.800781 1.203125 -2.890625 1.203125 -4.203125 C 1.203125 -5.265625 1.472656 -6.296875 2.015625 -7.296875 C 2.554688 -8.296875 3.296875 -9.101562 4.234375 -9.71875 C 5.179688 -10.332031 6.207031 -10.640625 7.3125 -10.640625 C 7.925781 -10.640625 8.492188 -10.523438 9.015625 -10.296875 C 9.546875 -10.066406 9.96875 -9.734375 10.28125 -9.296875 Z M 7.03125 -2.828125 C 7.820312 -2.828125 8.476562 -3.097656 9 -3.640625 C 9.53125 -4.179688 9.796875 -4.828125 9.796875 -5.578125 C 9.796875 -6.117188 9.613281 -6.566406 9.25 -6.921875 C 8.894531 -7.285156 8.394531 -7.46875 7.75 -7.46875 C 7.007812 -7.46875 6.367188 -7.195312 5.828125 -6.65625 C 5.285156 -6.113281 5.015625 -5.453125 5.015625 -4.671875 C 5.015625 -4.109375 5.1875 -3.660156 5.53125 -3.328125 C 5.882812 -2.992188 6.382812 -2.828125 7.03125 -2.828125 Z M 7.03125 -2.828125 "/></g></g></g><g fill="#ff914d" fill-opacity="1"><g transform="translate(28.651123, 16.786027)"><g><path d="M 7.53125 -10.640625 C 8.8125 -10.640625 9.910156 -10.421875 10.828125 -9.984375 L 9.21875 -7.65625 C 8.601562 -7.988281 7.976562 -8.15625 7.34375 -8.15625 C 7 -8.15625 6.703125 -8.082031 6.453125 -7.9375 C 6.203125 -7.800781 6.078125 -7.601562 6.078125 -7.34375 C 6.078125 -6.988281 6.441406 -6.75 7.171875 -6.625 C 8.242188 -6.445312 9.003906 -6.144531 9.453125 -5.71875 C 9.910156 -5.289062 10.140625 -4.742188 10.140625 -4.078125 C 10.140625 -2.804688 9.617188 -1.75 8.578125 -0.90625 C 7.546875 -0.0703125 6.21875 0.34375 4.59375 0.34375 C 3.132812 0.34375 1.820312 -0.0507812 0.65625 -0.84375 L 2.390625 -3.390625 C 2.785156 -3.066406 3.25 -2.8125 3.78125 -2.625 C 4.3125 -2.4375 4.757812 -2.34375 5.125 -2.34375 C 5.457031 -2.34375 5.75 -2.421875 6 -2.578125 C 6.257812 -2.742188 6.390625 -2.96875 6.390625 -3.25 C 6.390625 -3.46875 6.273438 -3.640625 6.046875 -3.765625 C 5.828125 -3.890625 5.492188 -4 5.046875 -4.09375 C 4.023438 -4.289062 3.320312 -4.566406 2.9375 -4.921875 C 2.5625 -5.285156 2.375 -5.78125 2.375 -6.40625 C 2.375 -7.644531 2.867188 -8.660156 3.859375 -9.453125 C 4.859375 -10.242188 6.082031 -10.640625 7.53125 -10.640625 Z M 7.53125 -10.640625 "/></g></g></g><g fill="#ff914d" fill-opacity="1"><g transform="translate(37.741304, 16.786027)"><g><path d="M 7.328125 -13.390625 L 6.828125 -10.296875 L 8.890625 -10.296875 L 8.40625 -7.28125 L 6.34375 -7.28125 L 5.203125 0 L 1.546875 0 L 2.6875 -7.28125 L 1.5 -7.28125 L 1.984375 -10.296875 L 3.171875 -10.296875 L 3.671875 -13.390625 Z M 7.328125 -13.390625 "/></g></g></g><g fill="#ff914d" fill-opacity="1"><g transform="translate(43.761114, 16.786027)"><g><path d="M 12.421875 -15.140625 L 15.734375 0 L 11.546875 0 L 10.984375 -2.625 L 5.5625 -2.625 L 4.09375 0 L -0.078125 0 L 8.125 -15.140625 Z M 7.125 -5.640625 L 10.40625 -5.640625 L 9.5625 -10.453125 L 9.515625 -10.453125 Z M 7.125 -5.640625 "/></g></g></g><g fill="#ff914d" fill-opacity="1"><g transform="translate(58.229455, 16.786027)"><g><path d="M 9.796875 -15.140625 C 11.253906 -15.140625 12.40625 -14.8125 13.25 -14.15625 C 14.09375 -13.5 14.515625 -12.535156 14.515625 -11.265625 C 14.515625 -10.265625 14.289062 -9.234375 13.84375 -8.171875 C 13.40625 -7.109375 12.691406 -6.3125 11.703125 -5.78125 C 10.710938 -5.25 9.601562 -4.992188 8.375 -5.015625 L 6.03125 -5.015625 L 5.21875 0 L 1.28125 0 L 3.671875 -15.140625 Z M 7.109375 -11.96875 L 6.53125 -8.1875 L 7.484375 -8.1875 C 8.597656 -8.1875 9.351562 -8.382812 9.75 -8.78125 C 10.144531 -9.1875 10.34375 -9.789062 10.34375 -10.59375 C 10.34375 -11.09375 10.175781 -11.445312 9.84375 -11.65625 C 9.519531 -11.863281 8.992188 -11.96875 8.265625 -11.96875 Z M 7.109375 -11.96875 "/></g></g></g><g fill="#ff914d" fill-opacity="1"><g transform="translate(70.289666, 16.786027)"><g><path d="M 7.609375 -15.140625 L 5.21875 0 L 1.28125 0 L 3.671875 -15.140625 Z M 7.609375 -15.140625 "/></g></g></g><g fill="#ff914d" fill-opacity="1"><g transform="translate(75.591868, 16.786027)"><g/></g></g><g fill="#ff914d" fill-opacity="1"><g transform="translate(0.864438, 32.211783)"><g><path d="M 12.953125 -15.140625 L 12.421875 -11.8125 L 9.171875 -11.8125 L 7.3125 0 L 3.375 0 L 5.234375 -11.8125 L 1.984375 -11.8125 L 2.515625 -15.140625 Z M 12.953125 -15.140625 "/></g></g></g><g fill="#ff914d" fill-opacity="1"><g transform="translate(10.355974, 32.211783)"><g><path d="M 12.671875 -6.15625 C 12.671875 -5.75 12.617188 -5.207031 12.515625 -4.53125 L 4.8125 -4.53125 C 4.800781 -4.46875 4.789062 -4.382812 4.78125 -4.28125 C 4.78125 -4.1875 4.78125 -4.082031 4.78125 -3.96875 C 4.78125 -2.832031 5.4375 -2.257812 6.75 -2.25 C 7.570312 -2.25 8.203125 -2.5625 8.640625 -3.1875 L 12.140625 -3.1875 C 11.734375 -2.101562 11.003906 -1.242188 9.953125 -0.609375 C 8.910156 0.0234375 7.707031 0.34375 6.34375 0.34375 C 4.726562 0.34375 3.460938 -0.0507812 2.546875 -0.84375 C 1.640625 -1.632812 1.1875 -2.71875 1.1875 -4.09375 C 1.1875 -5.300781 1.476562 -6.421875 2.0625 -7.453125 C 2.644531 -8.484375 3.445312 -9.269531 4.46875 -9.8125 C 5.488281 -10.363281 6.578125 -10.640625 7.734375 -10.640625 C 9.304688 -10.640625 10.519531 -10.253906 11.375 -9.484375 C 12.238281 -8.710938 12.671875 -7.601562 12.671875 -6.15625 Z M 9.4375 -6.640625 L 9.4375 -6.671875 C 9.425781 -7.148438 9.242188 -7.535156 8.890625 -7.828125 C 8.546875 -8.117188 8.117188 -8.265625 7.609375 -8.265625 C 7.078125 -8.265625 6.59375 -8.125 6.15625 -7.84375 C 5.71875 -7.5625 5.398438 -7.160156 5.203125 -6.640625 Z M 9.4375 -6.640625 "/></g></g></g><g fill="#ff914d" fill-opacity="1"><g transform="translate(21.392726, 32.211783)"><g><path d="M 13.03125 -8.671875 C 13.445312 -9.242188 13.992188 -9.710938 14.671875 -10.078125 C 15.347656 -10.453125 16.070312 -10.640625 16.84375 -10.640625 C 18.820312 -10.640625 19.8125 -9.660156 19.8125 -7.703125 C 19.8125 -7.273438 19.734375 -6.601562 19.578125 -5.6875 L 18.671875 0 L 15.015625 0 L 15.796875 -4.921875 C 15.878906 -5.296875 15.925781 -5.738281 15.9375 -6.25 C 15.9375 -7.238281 15.535156 -7.734375 14.734375 -7.734375 C 14.253906 -7.734375 13.867188 -7.613281 13.578125 -7.375 C 13.296875 -7.144531 13.070312 -6.835938 12.90625 -6.453125 C 12.75 -6.078125 12.617188 -5.472656 12.515625 -4.640625 L 11.765625 0 L 8.109375 0 L 8.890625 -4.921875 C 8.984375 -5.484375 9.03125 -5.925781 9.03125 -6.25 C 9.03125 -7.289062 8.597656 -7.8125 7.734375 -7.8125 C 7.171875 -7.8125 6.71875 -7.59375 6.375 -7.15625 C 6.03125 -6.71875 5.785156 -5.972656 5.640625 -4.921875 L 4.859375 0 L 1.203125 0 L 2.828125 -10.296875 L 6.484375 -10.296875 L 6.28125 -9.015625 L 6.328125 -9.015625 C 7.304688 -10.097656 8.476562 -10.640625 9.84375 -10.640625 C 11.4375 -10.640625 12.5 -9.984375 13.03125 -8.671875 Z M 13.03125 -8.671875 "/></g></g></g><g clip-path="url(#ba0f4d75ac)"><g fill="#ff914d" fill-opacity="1"><g transform="translate(40.035171, 32.211783)"><g><path d="M 13.96875 -6.078125 C 13.96875 -4.984375 13.691406 -3.929688 13.140625 -2.921875 C 12.585938 -1.921875 11.832031 -1.125 10.875 -0.53125 C 9.925781 0.0507812 8.953125 0.34375 7.953125 0.34375 C 6.546875 0.34375 5.53125 -0.0976562 4.90625 -0.984375 L 3.921875 5.140625 L 0.265625 5.140625 L 2.703125 -10.296875 L 6.359375 -10.296875 L 6.1875 -9.140625 L 6.21875 -9.140625 C 6.613281 -9.609375 7.101562 -9.972656 7.6875 -10.234375 C 8.28125 -10.503906 8.910156 -10.640625 9.578125 -10.640625 C 10.878906 -10.640625 11.9375 -10.207031 12.75 -9.34375 C 13.5625 -8.476562 13.96875 -7.390625 13.96875 -6.078125 Z M 7.40625 -2.828125 C 8.195312 -2.828125 8.851562 -3.09375 9.375 -3.625 C 9.90625 -4.164062 10.171875 -4.8125 10.171875 -5.5625 C 10.171875 -6.132812 9.988281 -6.59375 9.625 -6.9375 C 9.269531 -7.289062 8.769531 -7.46875 8.125 -7.46875 C 7.363281 -7.46875 6.71875 -7.195312 6.1875 -6.65625 C 5.664062 -6.113281 5.40625 -5.453125 5.40625 -4.671875 C 5.40625 -4.109375 5.582031 -3.660156 5.9375 -3.328125 C 6.300781 -2.992188 6.789062 -2.828125 7.40625 -2.828125 Z M 7.40625 -2.828125 "/></g></g></g></g><g fill="#ff914d" fill-opacity="1"><g transform="translate(52.516805, 32.211783)"><g><path d="M 7.484375 -16.671875 L 4.859375 0 L 1.203125 0 L 3.828125 -16.671875 Z M 7.484375 -16.671875 "/></g></g></g><g fill="#ff914d" fill-opacity="1"><g transform="translate(57.372687, 32.211783)"><g><path d="M 10.4375 -10.296875 L 14.09375 -10.296875 L 12.46875 0 L 8.8125 0 L 9 -1.140625 L 8.953125 -1.140625 C 8.578125 -0.660156 8.082031 -0.289062 7.46875 -0.03125 C 6.863281 0.21875 6.242188 0.34375 5.609375 0.34375 C 4.316406 0.34375 3.257812 -0.0820312 2.4375 -0.9375 C 1.613281 -1.800781 1.203125 -2.890625 1.203125 -4.203125 C 1.203125 -5.265625 1.472656 -6.296875 2.015625 -7.296875 C 2.554688 -8.296875 3.296875 -9.101562 4.234375 -9.71875 C 5.179688 -10.332031 6.207031 -10.640625 7.3125 -10.640625 C 7.925781 -10.640625 8.492188 -10.523438 9.015625 -10.296875 C 9.546875 -10.066406 9.96875 -9.734375 10.28125 -9.296875 Z M 7.03125 -2.828125 C 7.820312 -2.828125 8.476562 -3.097656 9 -3.640625 C 9.53125 -4.179688 9.796875 -4.828125 9.796875 -5.578125 C 9.796875 -6.117188 9.613281 -6.566406 9.25 -6.921875 C 8.894531 -7.285156 8.394531 -7.46875 7.75 -7.46875 C 7.007812 -7.46875 6.367188 -7.195312 5.828125 -6.65625 C 5.285156 -6.113281 5.015625 -5.453125 5.015625 -4.671875 C 5.015625 -4.109375 5.1875 -3.660156 5.53125 -3.328125 C 5.882812 -2.992188 6.382812 -2.828125 7.03125 -2.828125 Z M 7.03125 -2.828125 "/></g></g></g><g fill="#ff914d" fill-opacity="1"><g transform="translate(69.854321, 32.211783)"><g><path d="M 7.328125 -13.390625 L 6.828125 -10.296875 L 8.890625 -10.296875 L 8.40625 -7.28125 L 6.34375 -7.28125 L 5.203125 0 L 1.546875 0 L 2.6875 -7.28125 L 1.5 -7.28125 L 1.984375 -10.296875 L 3.171875 -10.296875 L 3.671875 -13.390625 Z M 7.328125 -13.390625 "/></g></g></g><g fill="#ff914d" fill-opacity="1"><g transform="translate(75.874131, 32.211783)"><g><path d="M 12.671875 -6.15625 C 12.671875 -5.75 12.617188 -5.207031 12.515625 -4.53125 L 4.8125 -4.53125 C 4.800781 -4.46875 4.789062 -4.382812 4.78125 -4.28125 C 4.78125 -4.1875 4.78125 -4.082031 4.78125 -3.96875 C 4.78125 -2.832031 5.4375 -2.257812 6.75 -2.25 C 7.570312 -2.25 8.203125 -2.5625 8.640625 -3.1875 L 12.140625 -3.1875 C 11.734375 -2.101562 11.003906 -1.242188 9.953125 -0.609375 C 8.910156 0.0234375 7.707031 0.34375 6.34375 0.34375 C 4.726562 0.34375 3.460938 -0.0507812 2.546875 -0.84375 C 1.640625 -1.632812 1.1875 -2.71875 1.1875 -4.09375 C 1.1875 -5.300781 1.476562 -6.421875 2.0625 -7.453125 C 2.644531 -8.484375 3.445312 -9.269531 4.46875 -9.8125 C 5.488281 -10.363281 6.578125 -10.640625 7.734375 -10.640625 C 9.304688 -10.640625 10.519531 -10.253906 11.375 -9.484375 C 12.238281 -8.710938 12.671875 -7.601562 12.671875 -6.15625 Z M 9.4375 -6.640625 L 9.4375 -6.671875 C 9.425781 -7.148438 9.242188 -7.535156 8.890625 -7.828125 C 8.546875 -8.117188 8.117188 -8.265625 7.609375 -8.265625 C 7.078125 -8.265625 6.59375 -8.125 6.15625 -7.84375 C 5.71875 -7.5625 5.398438 -7.160156 5.203125 -6.640625 Z M 9.4375 -6.640625 "/></g></g></g></g></g><g fill="#ff914d" fill-opacity="1"><g transform="translate(169.038417, 30.746267)"><g><path d="M 9.359375 -19.65625 C 10.992188 -19.65625 12.25 -19.332031 13.125 -18.6875 C 14.007812 -18.050781 14.453125 -17.035156 14.453125 -15.640625 C 14.453125 -14.535156 14.238281 -13.515625 13.8125 -12.578125 C 13.382812 -11.648438 12.785156 -10.960938 12.015625 -10.515625 C 12.867188 -10.335938 13.523438 -9.910156 13.984375 -9.234375 C 14.453125 -8.554688 14.6875 -7.695312 14.6875 -6.65625 C 14.6875 -5.4375 14.410156 -4.316406 13.859375 -3.296875 C 13.316406 -2.273438 12.5 -1.46875 11.40625 -0.875 C 10.320312 -0.289062 9.023438 0 7.515625 0 L 1.40625 0 L 4.515625 -19.65625 Z M 7.0625 -11.46875 L 7.75 -11.46875 C 8.914062 -11.46875 9.707031 -11.785156 10.125 -12.421875 C 10.550781 -13.054688 10.765625 -13.828125 10.765625 -14.734375 C 10.765625 -15.335938 10.59375 -15.796875 10.25 -16.109375 C 9.90625 -16.421875 9.257812 -16.578125 8.3125 -16.578125 L 7.875 -16.578125 Z M 5.734375 -3.078125 L 6.671875 -3.078125 C 8.328125 -3.078125 9.441406 -3.398438 10.015625 -4.046875 C 10.585938 -4.703125 10.875 -5.535156 10.875 -6.546875 C 10.875 -7.066406 10.671875 -7.53125 10.265625 -7.9375 C 9.867188 -8.34375 8.90625 -8.546875 7.375 -8.546875 L 6.59375 -8.546875 Z M 5.734375 -3.078125 "/></g></g></g><g fill="#ff914d" fill-opacity="1"><g transform="translate(181.885427, 30.746267)"><g><path d="M 1.875 -7.875 C 1.875 -10.0625 2.382812 -12.113281 3.40625 -14.03125 C 4.4375 -15.945312 5.835938 -17.453125 7.609375 -18.546875 C 9.390625 -19.640625 11.320312 -20.1875 13.40625 -20.1875 C 15.039062 -20.1875 16.472656 -19.847656 17.703125 -19.171875 C 18.941406 -18.492188 19.90625 -17.515625 20.59375 -16.234375 C 21.289062 -14.953125 21.640625 -13.476562 21.640625 -11.8125 C 21.640625 -9.726562 21.148438 -7.726562 20.171875 -5.8125 C 19.203125 -3.90625 17.832031 -2.375 16.0625 -1.21875 C 14.289062 -0.0625 12.3125 0.515625 10.125 0.515625 C 7.632812 0.515625 5.632812 -0.238281 4.125 -1.75 C 2.625 -3.257812 1.875 -5.300781 1.875 -7.875 Z M 12.75 -16.40625 C 11.582031 -16.40625 10.46875 -16.0625 9.40625 -15.375 C 8.351562 -14.6875 7.503906 -13.734375 6.859375 -12.515625 C 6.210938 -11.296875 5.890625 -9.972656 5.890625 -8.546875 C 5.890625 -6.929688 6.3125 -5.644531 7.15625 -4.6875 C 8 -3.738281 9.175781 -3.265625 10.6875 -3.265625 C 12.164062 -3.265625 13.4375 -3.679688 14.5 -4.515625 C 15.5625 -5.347656 16.347656 -6.375 16.859375 -7.59375 C 17.367188 -8.8125 17.625 -9.992188 17.625 -11.140625 C 17.625 -12.671875 17.1875 -13.929688 16.3125 -14.921875 C 15.445312 -15.910156 14.257812 -16.40625 12.75 -16.40625 Z M 12.75 -16.40625 "/></g></g></g><g fill="#ff914d" fill-opacity="1"><g transform="translate(200.700264, 30.746267)"><g><path d="M 14.859375 -19.65625 L 14.34375 -16.328125 L 10.375 -16.328125 L 7.796875 0 L 3.96875 0 L 6.546875 -16.328125 L 2.578125 -16.328125 L 3.109375 -19.65625 Z M 14.859375 -19.65625 "/></g></g></g></svg>