<svg xmlns="http://www.w3.org/2000/svg" xmlns:xlink="http://www.w3.org/1999/xlink" width="500" zoomAndPan="magnify" viewBox="0 0 375 374.999991" height="500" preserveAspectRatio="xMidYMid meet" version="1.0"><defs><g/><clipPath id="b984bbfb7f"><path d="M 48.085938 50.097656 L 322.890625 50.097656 L 322.890625 324.902344 L 48.085938 324.902344 Z M 48.085938 50.097656 " clip-rule="nonzero"/></clipPath><clipPath id="9f2a7b6126"><path d="M 185.488281 50.097656 C 109.605469 50.097656 48.085938 111.613281 48.085938 187.5 C 48.085938 263.386719 109.605469 324.902344 185.488281 324.902344 C 261.375 324.902344 322.890625 263.386719 322.890625 187.5 C 322.890625 111.613281 261.375 50.097656 185.488281 50.097656 Z M 185.488281 50.097656 " clip-rule="nonzero"/></clipPath><clipPath id="73e3fbd8c0"><path d="M 0.0859375 0.0976562 L 274.890625 0.0976562 L 274.890625 274.902344 L 0.0859375 274.902344 Z M 0.0859375 0.0976562 " clip-rule="nonzero"/></clipPath><clipPath id="651b32f648"><path d="M 137.488281 0.0976562 C 61.605469 0.0976562 0.0859375 61.613281 0.0859375 137.5 C 0.0859375 213.386719 61.605469 274.902344 137.488281 274.902344 C 213.375 274.902344 274.890625 213.386719 274.890625 137.5 C 274.890625 61.613281 213.375 0.0976562 137.488281 0.0976562 Z M 137.488281 0.0976562 " clip-rule="nonzero"/></clipPath><clipPath id="eb6ea2fa0f"><rect x="0" width="275" y="0" height="275"/></clipPath><clipPath id="1ffc26e35b"><path d="M 48.085938 50.097656 L 322.585938 50.097656 L 322.585938 324.597656 L 48.085938 324.597656 Z M 48.085938 50.097656 " clip-rule="nonzero"/></clipPath><clipPath id="531c55e1c9"><path d="M 185.484375 50.097656 C 109.601562 50.097656 48.085938 111.613281 48.085938 187.496094 C 48.085938 263.375 109.601562 324.890625 185.484375 324.890625 C 261.367188 324.890625 322.878906 263.375 322.878906 187.496094 C 322.878906 111.613281 261.367188 50.097656 185.484375 50.097656 Z M 185.484375 50.097656 " clip-rule="nonzero"/></clipPath><clipPath id="e33cf6ca9e"><path d="M 248.058594 236.550781 L 280.308594 236.550781 L 280.308594 269.550781 L 248.058594 269.550781 Z M 248.058594 236.550781 " clip-rule="nonzero"/></clipPath></defs><g clip-path="url(#b984bbfb7f)"><g clip-path="url(#9f2a7b6126)"><g transform="matrix(1, 0, 0, 1, 48, 50)"><g clip-path="url(#eb6ea2fa0f)"><g clip-path="url(#73e3fbd8c0)"><g clip-path="url(#651b32f648)"><path fill="#ffffff" d="M 0.0859375 0.0976562 L 274.890625 0.0976562 L 274.890625 274.902344 L 0.0859375 274.902344 Z M 0.0859375 0.0976562 " fill-opacity="1" fill-rule="nonzero"/></g></g></g></g></g></g><g clip-path="url(#1ffc26e35b)"><g clip-path="url(#531c55e1c9)"><path stroke-linecap="butt" transform="matrix(0.75, 0, 0, 0.75, 48.087292, 50.098326)" fill="none" stroke-linejoin="miter" d="M 183.196123 -0.000893414 C 82.019033 -0.000893414 -0.00180566 82.019945 -0.00180566 183.197035 C -0.00180566 284.368917 82.019033 366.389756 183.196123 366.389756 C 284.373213 366.389756 366.388843 284.368917 366.388843 183.197035 C 366.388843 82.019945 284.373213 -0.000893414 183.196123 -0.000893414 Z M 183.196123 -0.000893414 " stroke="#ffffff" stroke-width="34" stroke-opacity="1" stroke-miterlimit="4"/></g></g><g fill="#2d4029" fill-opacity="1"><g transform="translate(91.131934, 183.749988)"><g><path d="M 33.890625 -41.484375 L 32.453125 -32.34375 L 19.421875 -32.34375 L 18.3125 -25.421875 L 30.15625 -25.421875 L 28.71875 -16.28125 L 16.890625 -16.28125 L 14.296875 0 L 3.515625 0 L 10.0625 -41.484375 Z M 33.890625 -41.484375 "/></g></g></g><g fill="#2d4029" fill-opacity="1"><g transform="translate(117.651235, 183.749988)"><g><path d="M 28.609375 -28.21875 L 38.625 -28.21875 L 34.171875 0 L 24.15625 0 L 24.640625 -3.140625 L 24.53125 -3.140625 C 23.507812 -1.816406 22.160156 -0.804688 20.484375 -0.109375 C 18.816406 0.585938 17.101562 0.9375 15.34375 0.9375 C 11.820312 0.9375 8.929688 -0.234375 6.671875 -2.578125 C 4.421875 -4.929688 3.296875 -7.90625 3.296875 -11.5 C 3.296875 -14.4375 4.035156 -17.269531 5.515625 -20 C 7.003906 -22.726562 9.039062 -24.9375 11.625 -26.625 C 14.21875 -28.3125 17.019531 -29.15625 20.03125 -29.15625 C 21.71875 -29.15625 23.285156 -28.84375 24.734375 -28.21875 C 26.179688 -27.59375 27.328125 -26.675781 28.171875 -25.46875 Z M 19.25 -7.75 C 21.414062 -7.75 23.222656 -8.492188 24.671875 -9.984375 C 26.117188 -11.472656 26.84375 -13.242188 26.84375 -15.296875 C 26.84375 -16.765625 26.347656 -17.992188 25.359375 -18.984375 C 24.367188 -19.972656 22.992188 -20.46875 21.234375 -20.46875 C 19.210938 -20.46875 17.457031 -19.722656 15.96875 -18.234375 C 14.488281 -16.753906 13.75 -14.945312 13.75 -12.8125 C 13.75 -11.28125 14.222656 -10.050781 15.171875 -9.125 C 16.128906 -8.207031 17.488281 -7.75 19.25 -7.75 Z M 19.25 -7.75 "/></g></g></g><g fill="#2d4029" fill-opacity="1"><g transform="translate(151.873279, 183.749988)"><g><path d="M 20.625 -29.15625 C 24.144531 -29.15625 27.15625 -28.550781 29.65625 -27.34375 L 25.25 -20.953125 C 23.5625 -21.878906 21.859375 -22.34375 20.140625 -22.34375 C 19.179688 -22.34375 18.363281 -22.148438 17.6875 -21.765625 C 17.007812 -21.378906 16.671875 -20.835938 16.671875 -20.140625 C 16.671875 -19.148438 17.660156 -18.488281 19.640625 -18.15625 C 22.578125 -17.675781 24.664062 -16.847656 25.90625 -15.671875 C 27.15625 -14.503906 27.78125 -13.003906 27.78125 -11.171875 C 27.78125 -7.679688 26.359375 -4.789062 23.515625 -2.5 C 20.671875 -0.207031 17.03125 0.9375 12.59375 0.9375 C 8.601562 0.9375 5.007812 -0.144531 1.8125 -2.3125 L 6.546875 -9.296875 C 7.648438 -8.421875 8.925781 -7.722656 10.375 -7.203125 C 11.820312 -6.691406 13.039062 -6.4375 14.03125 -6.4375 C 14.945312 -6.4375 15.753906 -6.65625 16.453125 -7.09375 C 17.148438 -7.53125 17.5 -8.132812 17.5 -8.90625 C 17.5 -9.5 17.191406 -9.96875 16.578125 -10.3125 C 15.972656 -10.664062 15.050781 -10.96875 13.8125 -11.21875 C 11.019531 -11.769531 9.097656 -12.53125 8.046875 -13.5 C 7.003906 -14.476562 6.484375 -15.828125 6.484375 -17.546875 C 6.484375 -20.960938 7.847656 -23.75 10.578125 -25.90625 C 13.316406 -28.070312 16.664062 -29.15625 20.625 -29.15625 Z M 20.625 -29.15625 "/></g></g></g><g fill="#2d4029" fill-opacity="1"><g transform="translate(176.79701, 183.749988)"><g><path d="M 20.078125 -36.703125 L 18.703125 -28.21875 L 24.375 -28.21875 L 23.046875 -19.96875 L 17.390625 -19.96875 L 14.25 0 L 4.234375 0 L 7.375 -19.96875 L 4.125 -19.96875 L 5.453125 -28.21875 L 8.6875 -28.21875 L 10.0625 -36.703125 Z M 20.078125 -36.703125 "/></g></g></g><g fill="#2d4029" fill-opacity="1"><g transform="translate(193.302743, 183.749988)"><g><path d="M 34.046875 -41.484375 L 43.125 0 L 31.640625 0 L 30.09375 -7.203125 L 15.234375 -7.203125 L 11.21875 0 L -0.21875 0 L 22.28125 -41.484375 Z M 19.53125 -15.453125 L 28.5 -15.453125 L 26.1875 -28.65625 L 26.078125 -28.65625 Z M 19.53125 -15.453125 "/></g></g></g><g fill="#2d4029" fill-opacity="1"><g transform="translate(232.971728, 183.749988)"><g><path d="M 26.84375 -41.484375 C 30.84375 -41.484375 34 -40.582031 36.3125 -38.78125 C 38.625 -36.988281 39.78125 -34.347656 39.78125 -30.859375 C 39.78125 -28.109375 39.171875 -25.285156 37.953125 -22.390625 C 36.742188 -19.492188 34.78125 -17.3125 32.0625 -15.84375 C 29.351562 -14.375 26.3125 -13.675781 22.9375 -13.75 L 16.5 -13.75 L 14.296875 0 L 3.515625 0 L 10.0625 -41.484375 Z M 19.46875 -32.796875 L 17.875 -22.453125 L 20.515625 -22.453125 C 23.566406 -22.453125 25.628906 -23 26.703125 -24.09375 C 27.785156 -25.195312 28.328125 -26.847656 28.328125 -29.046875 C 28.328125 -30.398438 27.878906 -31.363281 26.984375 -31.9375 C 26.085938 -32.507812 24.648438 -32.796875 22.671875 -32.796875 Z M 19.46875 -32.796875 "/></g></g></g><g fill="#2d4029" fill-opacity="1"><g transform="translate(266.038353, 183.749988)"><g><path d="M 20.84375 -41.484375 L 14.296875 0 L 3.515625 0 L 10.0625 -41.484375 Z M 20.84375 -41.484375 "/></g></g></g><g fill="#2d4029" fill-opacity="1"><g transform="translate(67.881936, 226.499985)"><g><path d="M 35.484375 -41.484375 L 34.046875 -32.34375 L 25.140625 -32.34375 L 20.03125 0 L 9.25 0 L 14.359375 -32.34375 L 5.453125 -32.34375 L 6.875 -41.484375 Z M 35.484375 -41.484375 "/></g></g></g><g fill="#2d4029" fill-opacity="1"><g transform="translate(93.906051, 226.499985)"><g><path d="M 34.71875 -16.890625 C 34.71875 -15.753906 34.570312 -14.269531 34.28125 -12.4375 L 13.203125 -12.4375 C 13.171875 -12.25 13.144531 -12.015625 13.125 -11.734375 C 13.101562 -11.460938 13.09375 -11.179688 13.09375 -10.890625 C 13.09375 -7.773438 14.890625 -6.195312 18.484375 -6.15625 C 20.753906 -6.15625 22.476562 -7.019531 23.65625 -8.75 L 33.28125 -8.75 C 32.144531 -5.78125 30.144531 -3.421875 27.28125 -1.671875 C 24.425781 0.0664062 21.128906 0.9375 17.390625 0.9375 C 12.953125 0.9375 9.484375 -0.144531 6.984375 -2.3125 C 4.492188 -4.476562 3.25 -7.445312 3.25 -11.21875 C 3.25 -14.519531 4.046875 -17.582031 5.640625 -20.40625 C 7.234375 -23.226562 9.429688 -25.390625 12.234375 -26.890625 C 15.046875 -28.398438 18.03125 -29.15625 21.1875 -29.15625 C 25.507812 -29.15625 28.84375 -28.097656 31.1875 -25.984375 C 33.539062 -23.878906 34.71875 -20.847656 34.71875 -16.890625 Z M 25.859375 -18.203125 L 25.859375 -18.265625 C 25.816406 -19.585938 25.316406 -20.648438 24.359375 -21.453125 C 23.410156 -22.265625 22.238281 -22.671875 20.84375 -22.671875 C 19.382812 -22.671875 18.054688 -22.285156 16.859375 -21.515625 C 15.671875 -20.742188 14.800781 -19.640625 14.25 -18.203125 Z M 25.859375 -18.203125 "/></g></g></g><g fill="#2d4029" fill-opacity="1"><g transform="translate(124.166677, 226.499985)"><g><path d="M 35.703125 -23.765625 C 36.835938 -25.335938 38.332031 -26.628906 40.1875 -27.640625 C 42.039062 -28.648438 44.03125 -29.15625 46.15625 -29.15625 C 51.582031 -29.15625 54.296875 -26.476562 54.296875 -21.125 C 54.296875 -19.945312 54.078125 -18.09375 53.640625 -15.5625 L 51.171875 0 L 41.15625 0 L 43.296875 -13.484375 C 43.515625 -14.503906 43.644531 -15.710938 43.6875 -17.109375 C 43.6875 -19.828125 42.582031 -21.1875 40.375 -21.1875 C 39.0625 -21.1875 38.007812 -20.863281 37.21875 -20.21875 C 36.425781 -19.570312 35.8125 -18.726562 35.375 -17.6875 C 34.9375 -16.644531 34.570312 -14.984375 34.28125 -12.703125 L 32.234375 0 L 22.21875 0 L 24.375 -13.484375 C 24.625 -15.023438 24.75 -16.234375 24.75 -17.109375 C 24.75 -19.972656 23.5625 -21.40625 21.1875 -21.40625 C 19.644531 -21.40625 18.40625 -20.804688 17.46875 -19.609375 C 16.53125 -18.421875 15.859375 -16.378906 15.453125 -13.484375 L 13.3125 0 L 3.296875 0 L 7.75 -28.21875 L 17.765625 -28.21875 L 17.21875 -24.703125 L 17.328125 -24.703125 C 20.003906 -27.671875 23.210938 -29.15625 26.953125 -29.15625 C 31.316406 -29.15625 34.234375 -27.359375 35.703125 -23.765625 Z M 35.703125 -23.765625 "/></g></g></g><g fill="#2d4029" fill-opacity="1"><g transform="translate(175.279741, 226.499985)"><g><path d="M 38.296875 -16.671875 C 38.296875 -13.660156 37.53125 -10.78125 36 -8.03125 C 34.476562 -5.28125 32.414062 -3.097656 29.8125 -1.484375 C 27.207031 0.128906 24.53125 0.9375 21.78125 0.9375 C 17.9375 0.9375 15.148438 -0.273438 13.421875 -2.703125 L 10.734375 14.078125 L 0.71875 14.078125 L 7.421875 -28.21875 L 17.4375 -28.21875 L 16.9375 -25.03125 L 17.0625 -25.03125 C 18.125 -26.3125 19.457031 -27.316406 21.0625 -28.046875 C 22.675781 -28.785156 24.40625 -29.15625 26.25 -29.15625 C 29.800781 -29.15625 32.695312 -27.972656 34.9375 -25.609375 C 37.175781 -23.242188 38.296875 -20.265625 38.296875 -16.671875 Z M 20.296875 -7.75 C 22.460938 -7.75 24.269531 -8.484375 25.71875 -9.953125 C 27.164062 -11.421875 27.890625 -13.179688 27.890625 -15.234375 C 27.890625 -16.816406 27.394531 -18.082031 26.40625 -19.03125 C 25.414062 -19.988281 24.039062 -20.46875 22.28125 -20.46875 C 20.1875 -20.46875 18.414062 -19.722656 16.96875 -18.234375 C 15.519531 -16.753906 14.796875 -14.945312 14.796875 -12.8125 C 14.796875 -11.28125 15.289062 -10.050781 16.28125 -9.125 C 17.269531 -8.207031 18.609375 -7.75 20.296875 -7.75 Z M 20.296875 -7.75 "/></g></g></g><g fill="#2d4029" fill-opacity="1"><g transform="translate(209.501785, 226.499985)"><g><path d="M 20.515625 -45.65625 L 13.3125 0 L 3.296875 0 L 10.515625 -45.65625 Z M 20.515625 -45.65625 "/></g></g></g><g fill="#2d4029" fill-opacity="1"><g transform="translate(222.816378, 226.499985)"><g><path d="M 28.609375 -28.21875 L 38.625 -28.21875 L 34.171875 0 L 24.15625 0 L 24.640625 -3.140625 L 24.53125 -3.140625 C 23.507812 -1.816406 22.160156 -0.804688 20.484375 -0.109375 C 18.816406 0.585938 17.101562 0.9375 15.34375 0.9375 C 11.820312 0.9375 8.929688 -0.234375 6.671875 -2.578125 C 4.421875 -4.929688 3.296875 -7.90625 3.296875 -11.5 C 3.296875 -14.4375 4.035156 -17.269531 5.515625 -20 C 7.003906 -22.726562 9.039062 -24.9375 11.625 -26.625 C 14.21875 -28.3125 17.019531 -29.15625 20.03125 -29.15625 C 21.71875 -29.15625 23.285156 -28.84375 24.734375 -28.21875 C 26.179688 -27.59375 27.328125 -26.675781 28.171875 -25.46875 Z M 19.25 -7.75 C 21.414062 -7.75 23.222656 -8.492188 24.671875 -9.984375 C 26.117188 -11.472656 26.84375 -13.242188 26.84375 -15.296875 C 26.84375 -16.765625 26.347656 -17.992188 25.359375 -18.984375 C 24.367188 -19.972656 22.992188 -20.46875 21.234375 -20.46875 C 19.210938 -20.46875 17.457031 -19.722656 15.96875 -18.234375 C 14.488281 -16.753906 13.75 -14.945312 13.75 -12.8125 C 13.75 -11.28125 14.222656 -10.050781 15.171875 -9.125 C 16.128906 -8.207031 17.488281 -7.75 19.25 -7.75 Z M 19.25 -7.75 "/></g></g></g><g fill="#2d4029" fill-opacity="1"><g transform="translate(257.038422, 226.499985)"><g><path d="M 20.078125 -36.703125 L 18.703125 -28.21875 L 24.375 -28.21875 L 23.046875 -19.96875 L 17.390625 -19.96875 L 14.25 0 L 4.234375 0 L 7.375 -19.96875 L 4.125 -19.96875 L 5.453125 -28.21875 L 8.6875 -28.21875 L 10.0625 -36.703125 Z M 20.078125 -36.703125 "/></g></g></g><g fill="#2d4029" fill-opacity="1"><g transform="translate(273.544155, 226.499985)"><g><path d="M 34.71875 -16.890625 C 34.71875 -15.753906 34.570312 -14.269531 34.28125 -12.4375 L 13.203125 -12.4375 C 13.171875 -12.25 13.144531 -12.015625 13.125 -11.734375 C 13.101562 -11.460938 13.09375 -11.179688 13.09375 -10.890625 C 13.09375 -7.773438 14.890625 -6.195312 18.484375 -6.15625 C 20.753906 -6.15625 22.476562 -7.019531 23.65625 -8.75 L 33.28125 -8.75 C 32.144531 -5.78125 30.144531 -3.421875 27.28125 -1.671875 C 24.425781 0.0664062 21.128906 0.9375 17.390625 0.9375 C 12.953125 0.9375 9.484375 -0.144531 6.984375 -2.3125 C 4.492188 -4.476562 3.25 -7.445312 3.25 -11.21875 C 3.25 -14.519531 4.046875 -17.582031 5.640625 -20.40625 C 7.234375 -23.226562 9.429688 -25.390625 12.234375 -26.890625 C 15.046875 -28.398438 18.03125 -29.15625 21.1875 -29.15625 C 25.507812 -29.15625 28.84375 -28.097656 31.1875 -25.984375 C 33.539062 -23.878906 34.71875 -20.847656 34.71875 -16.890625 Z M 25.859375 -18.203125 L 25.859375 -18.265625 C 25.816406 -19.585938 25.316406 -20.648438 24.359375 -21.453125 C 23.410156 -22.265625 22.238281 -22.671875 20.84375 -22.671875 C 19.382812 -22.671875 18.054688 -22.285156 16.859375 -21.515625 C 15.671875 -20.742188 14.800781 -19.640625 14.25 -18.203125 Z M 25.859375 -18.203125 "/></g></g></g><g clip-path="url(#e33cf6ca9e)"><path fill="#737373" d="M 275.453125 255.453125 C 275.453125 255.453125 274.746094 257.839844 273.972656 258.613281 C 273.199219 259.386719 270.808594 260.09375 270.808594 260.09375 C 270.808594 260.09375 273.199219 260.800781 273.972656 261.574219 C 274.746094 262.347656 275.453125 264.734375 275.453125 264.734375 C 275.453125 264.734375 276.15625 262.347656 276.929688 261.574219 C 277.707031 260.800781 280.09375 260.09375 280.09375 260.09375 C 280.09375 260.09375 277.707031 259.386719 276.929688 258.613281 C 276.15625 257.839844 275.453125 255.453125 275.453125 255.453125 Z M 255.097656 255.191406 C 255.097656 255.191406 254.027344 258.816406 252.855469 259.988281 C 251.679688 261.164062 248.058594 262.234375 248.058594 262.234375 C 248.058594 262.234375 251.679688 263.304688 252.855469 264.476562 C 254.027344 265.652344 255.097656 269.273438 255.097656 269.273438 C 255.097656 269.273438 256.167969 265.652344 257.34375 264.476562 C 258.515625 263.304688 262.136719 262.234375 262.136719 262.234375 C 262.136719 262.234375 258.515625 261.164062 257.34375 259.988281 C 256.167969 258.816406 255.097656 255.191406 255.097656 255.191406 Z M 265.898438 236.558594 C 265.898438 236.558594 264.257812 242.117188 262.457031 243.917969 C 260.65625 245.71875 255.097656 247.359375 255.097656 247.359375 C 255.097656 247.359375 260.65625 249 262.457031 250.800781 C 264.257812 252.601562 265.898438 258.160156 265.898438 258.160156 C 265.898438 258.160156 267.539062 252.601562 269.339844 250.800781 C 271.140625 249 276.695312 247.359375 276.695312 247.359375 C 276.695312 247.359375 271.140625 245.71875 269.339844 243.917969 C 267.539062 242.117188 265.898438 236.558594 265.898438 236.558594 " fill-opacity="1" fill-rule="evenodd"/></g></svg>