<svg xmlns="http://www.w3.org/2000/svg" xmlns:xlink="http://www.w3.org/1999/xlink" width="300" zoomAndPan="magnify" viewBox="0 0 224.87999 44.999999" height="60" preserveAspectRatio="xMidYMid meet" version="1.0"><defs><g/><clipPath id="c43705e952"><path d="M 0 0.0117188 L 224.761719 0.0117188 L 224.761719 44.988281 L 0 44.988281 Z M 0 0.0117188 " clip-rule="nonzero"/></clipPath><clipPath id="480788f730"><path d="M 3.339844 0.0117188 L 221.542969 0.0117188 C 222.425781 0.0117188 223.277344 0.363281 223.902344 0.992188 C 224.527344 1.617188 224.878906 2.464844 224.878906 3.351562 L 224.878906 42.398438 C 224.878906 43.285156 224.527344 44.132812 223.902344 44.761719 C 223.277344 45.386719 222.425781 45.738281 221.542969 45.738281 L 3.339844 45.738281 C 2.453125 45.738281 1.605469 45.386719 0.976562 44.761719 C 0.351562 44.132812 0 43.285156 0 42.398438 L 0 3.351562 C 0 2.464844 0.351562 1.617188 0.976562 0.992188 C 1.605469 0.363281 2.453125 0.0117188 3.339844 0.0117188 Z M 3.339844 0.0117188 " clip-rule="nonzero"/></clipPath><clipPath id="b4758045c4"><path d="M 0 0.0117188 L 224.761719 0.0117188 L 224.761719 44.988281 L 0 44.988281 Z M 0 0.0117188 " clip-rule="nonzero"/></clipPath><clipPath id="8a9362c6aa"><path d="M 3.339844 0.0117188 L 221.542969 0.0117188 C 222.425781 0.0117188 223.277344 0.363281 223.902344 0.992188 C 224.527344 1.617188 224.878906 2.464844 224.878906 3.351562 L 224.878906 42.398438 C 224.878906 43.285156 224.527344 44.132812 223.902344 44.761719 C 223.277344 45.386719 222.425781 45.738281 221.542969 45.738281 L 3.339844 45.738281 C 2.453125 45.738281 1.605469 45.386719 0.976562 44.761719 C 0.351562 44.132812 0 43.285156 0 42.398438 L 0 3.351562 C 0 2.464844 0.351562 1.617188 0.976562 0.992188 C 1.605469 0.363281 2.453125 0.0117188 3.339844 0.0117188 Z M 3.339844 0.0117188 " clip-rule="nonzero"/></clipPath><clipPath id="ca3886c51d"><rect x="0" width="225" y="0" height="45"/></clipPath><clipPath id="4afc19242e"><path d="M 192.578125 27.886719 L 208 27.886719 L 208 42.878906 L 192.578125 42.878906 Z M 192.578125 27.886719 " clip-rule="nonzero"/></clipPath></defs><g clip-path="url(#c43705e952)"><g clip-path="url(#480788f730)"><g transform="matrix(1, 0, 0, 1, 0, 0.000000000000008174)"><g clip-path="url(#ca3886c51d)"><g clip-path="url(#b4758045c4)"><g clip-path="url(#8a9362c6aa)"><path fill="#ffffff" d="M 0 0.0117188 L 224.878906 0.0117188 L 224.878906 45.738281 L 0 45.738281 Z M 0 0.0117188 " fill-opacity="1" fill-rule="nonzero"/></g></g></g></g></g></g><g clip-path="url(#4afc19242e)"><path fill="#545454" d="M 201.453125 30.023438 C 201.453125 30.023438 202.574219 30.351562 202.9375 30.714844 C 203.300781 31.078125 203.632812 32.199219 203.632812 32.199219 C 203.632812 32.199219 203.960938 31.078125 204.324219 30.714844 C 204.6875 30.351562 205.808594 30.023438 205.808594 30.023438 C 205.808594 30.023438 204.6875 29.691406 204.324219 29.328125 C 203.960938 28.964844 203.632812 27.84375 203.632812 27.84375 C 203.632812 27.84375 203.300781 28.964844 202.9375 29.328125 C 202.574219 29.691406 201.453125 30.023438 201.453125 30.023438 Z M 201.332031 39.574219 C 201.332031 39.574219 203.03125 40.078125 203.582031 40.628906 C 204.132812 41.179688 204.636719 42.878906 204.636719 42.878906 C 204.636719 42.878906 205.136719 41.179688 205.6875 40.628906 C 206.238281 40.078125 207.941406 39.574219 207.941406 39.574219 C 207.941406 39.574219 206.238281 39.074219 205.6875 38.523438 C 205.136719 37.972656 204.636719 36.269531 204.636719 36.269531 C 204.636719 36.269531 204.132812 37.972656 203.582031 38.523438 C 203.03125 39.074219 201.332031 39.574219 201.332031 39.574219 Z M 192.585938 34.507812 C 192.585938 34.507812 195.191406 35.277344 196.039062 36.121094 C 196.882812 36.964844 197.652344 39.574219 197.652344 39.574219 C 197.652344 39.574219 198.425781 36.964844 199.269531 36.121094 C 200.113281 35.277344 202.722656 34.507812 202.722656 34.507812 C 202.722656 34.507812 200.113281 33.734375 199.269531 32.890625 C 198.425781 32.046875 197.652344 29.4375 197.652344 29.4375 C 197.652344 29.4375 196.882812 32.046875 196.039062 32.890625 C 195.191406 33.734375 192.585938 34.507812 192.585938 34.507812 " fill-opacity="1" fill-rule="evenodd"/></g><g fill="#000000" fill-opacity="1"><g transform="translate(6.143564, 26.534977)"><g><path d="M 16.234375 -19.859375 L 15.546875 -15.484375 L 9.296875 -15.484375 L 8.765625 -12.171875 L 14.4375 -12.171875 L 13.75 -7.796875 L 8.09375 -7.796875 L 6.84375 0 L 1.6875 0 L 4.828125 -19.859375 Z M 16.234375 -19.859375 "/></g></g></g><g fill="#000000" fill-opacity="1"><g transform="translate(18.833806, 26.534977)"><g><path d="M 13.703125 -13.515625 L 18.5 -13.515625 L 16.359375 0 L 11.5625 0 L 11.796875 -1.5 L 11.75 -1.5 C 11.257812 -0.863281 10.613281 -0.378906 9.8125 -0.046875 C 9.007812 0.285156 8.1875 0.453125 7.34375 0.453125 C 5.664062 0.453125 4.285156 -0.109375 3.203125 -1.234375 C 2.117188 -2.359375 1.578125 -3.78125 1.578125 -5.5 C 1.578125 -6.90625 1.929688 -8.257812 2.640625 -9.5625 C 3.359375 -10.875 4.332031 -11.9375 5.5625 -12.75 C 6.800781 -13.5625 8.144531 -13.96875 9.59375 -13.96875 C 10.394531 -13.96875 11.140625 -13.816406 11.828125 -13.515625 C 12.523438 -13.210938 13.078125 -12.773438 13.484375 -12.203125 Z M 9.21875 -3.71875 C 10.257812 -3.71875 11.125 -4.070312 11.8125 -4.78125 C 12.507812 -5.488281 12.859375 -6.335938 12.859375 -7.328125 C 12.859375 -8.023438 12.617188 -8.609375 12.140625 -9.078125 C 11.671875 -9.554688 11.015625 -9.796875 10.171875 -9.796875 C 9.203125 -9.796875 8.363281 -9.441406 7.65625 -8.734375 C 6.945312 -8.023438 6.59375 -7.160156 6.59375 -6.140625 C 6.59375 -5.398438 6.816406 -4.8125 7.265625 -4.375 C 7.722656 -3.9375 8.375 -3.71875 9.21875 -3.71875 Z M 9.21875 -3.71875 "/></g></g></g><g fill="#000000" fill-opacity="1"><g transform="translate(35.210201, 26.534977)"><g><path d="M 9.875 -13.96875 C 11.5625 -13.96875 13.003906 -13.675781 14.203125 -13.09375 L 12.09375 -10.03125 C 11.28125 -10.476562 10.460938 -10.703125 9.640625 -10.703125 C 9.179688 -10.703125 8.789062 -10.609375 8.46875 -10.421875 C 8.144531 -10.234375 7.984375 -9.972656 7.984375 -9.640625 C 7.984375 -9.171875 8.457031 -8.851562 9.40625 -8.6875 C 10.8125 -8.457031 11.8125 -8.0625 12.40625 -7.5 C 13 -6.945312 13.296875 -6.226562 13.296875 -5.34375 C 13.296875 -3.675781 12.613281 -2.289062 11.25 -1.1875 C 9.894531 -0.09375 8.15625 0.453125 6.03125 0.453125 C 4.113281 0.453125 2.394531 -0.0664062 0.875 -1.109375 L 3.140625 -4.453125 C 3.660156 -4.023438 4.265625 -3.6875 4.953125 -3.4375 C 5.648438 -3.195312 6.238281 -3.078125 6.71875 -3.078125 C 7.15625 -3.078125 7.539062 -3.179688 7.875 -3.390625 C 8.207031 -3.609375 8.375 -3.898438 8.375 -4.265625 C 8.375 -4.546875 8.226562 -4.769531 7.9375 -4.9375 C 7.65625 -5.101562 7.210938 -5.25 6.609375 -5.375 C 5.273438 -5.632812 4.359375 -6 3.859375 -6.46875 C 3.359375 -6.9375 3.109375 -7.582031 3.109375 -8.40625 C 3.109375 -10.039062 3.757812 -11.375 5.0625 -12.40625 C 6.375 -13.445312 7.976562 -13.96875 9.875 -13.96875 Z M 9.875 -13.96875 "/></g></g></g><g fill="#000000" fill-opacity="1"><g transform="translate(47.136877, 26.534977)"><g><path d="M 9.609375 -17.578125 L 8.953125 -13.515625 L 11.671875 -13.515625 L 11.03125 -9.5625 L 8.328125 -9.5625 L 6.828125 0 L 2.03125 0 L 3.53125 -9.5625 L 1.96875 -9.5625 L 2.609375 -13.515625 L 4.15625 -13.515625 L 4.828125 -17.578125 Z M 9.609375 -17.578125 "/></g></g></g><g fill="#000000" fill-opacity="1"><g transform="translate(55.035104, 26.534977)"><g><path d="M 16.3125 -19.859375 L 20.65625 0 L 15.140625 0 L 14.40625 -3.453125 L 7.296875 -3.453125 L 5.375 0 L -0.109375 0 L 10.671875 -19.859375 Z M 9.359375 -7.40625 L 13.640625 -7.40625 L 12.546875 -13.71875 L 12.484375 -13.71875 Z M 9.359375 -7.40625 "/></g></g></g><g fill="#000000" fill-opacity="1"><g transform="translate(74.018137, 26.534977)"><g><path d="M 12.859375 -19.859375 C 14.773438 -19.859375 16.285156 -19.425781 17.390625 -18.5625 C 18.492188 -17.707031 19.046875 -16.445312 19.046875 -14.78125 C 19.046875 -13.457031 18.753906 -12.101562 18.171875 -10.71875 C 17.597656 -9.332031 16.660156 -8.285156 15.359375 -7.578125 C 14.054688 -6.878906 12.597656 -6.550781 10.984375 -6.59375 L 7.90625 -6.59375 L 6.84375 0 L 1.6875 0 L 4.828125 -19.859375 Z M 9.328125 -15.703125 L 8.5625 -10.75 L 9.828125 -10.75 C 11.285156 -10.75 12.269531 -11.007812 12.78125 -11.53125 C 13.300781 -12.0625 13.5625 -12.851562 13.5625 -13.90625 C 13.5625 -14.5625 13.347656 -15.023438 12.921875 -15.296875 C 12.492188 -15.566406 11.804688 -15.703125 10.859375 -15.703125 Z M 9.328125 -15.703125 "/></g></g></g><g fill="#000000" fill-opacity="1"><g transform="translate(89.841609, 26.534977)"><g><path d="M 9.984375 -19.859375 L 6.84375 0 L 1.6875 0 L 4.828125 -19.859375 Z M 9.984375 -19.859375 "/></g></g></g><g fill="#000000" fill-opacity="1"><g transform="translate(96.79197, 26.534977)"><g/></g></g><g fill="#000000" fill-opacity="1"><g transform="translate(104.242595, 26.534977)"><g><path d="M 16.984375 -19.859375 L 16.3125 -15.484375 L 12.046875 -15.484375 L 9.59375 0 L 4.421875 0 L 6.875 -15.484375 L 2.609375 -15.484375 L 3.296875 -19.859375 Z M 16.984375 -19.859375 "/></g></g></g><g fill="#000000" fill-opacity="1"><g transform="translate(116.695864, 26.534977)"><g><path d="M 16.625 -8.09375 C 16.625 -7.539062 16.550781 -6.828125 16.40625 -5.953125 L 6.328125 -5.953125 C 6.304688 -5.867188 6.289062 -5.757812 6.28125 -5.625 C 6.269531 -5.488281 6.265625 -5.351562 6.265625 -5.21875 C 6.265625 -3.726562 7.125 -2.972656 8.84375 -2.953125 C 9.9375 -2.953125 10.765625 -3.363281 11.328125 -4.1875 L 15.9375 -4.1875 C 15.394531 -2.769531 14.4375 -1.640625 13.0625 -0.796875 C 11.695312 0.0351562 10.117188 0.453125 8.328125 0.453125 C 6.203125 0.453125 4.539062 -0.0625 3.34375 -1.09375 C 2.144531 -2.132812 1.546875 -3.5625 1.546875 -5.375 C 1.546875 -6.957031 1.925781 -8.421875 2.6875 -9.765625 C 3.457031 -11.117188 4.515625 -12.15625 5.859375 -12.875 C 7.203125 -13.601562 8.628906 -13.96875 10.140625 -13.96875 C 12.210938 -13.96875 13.8125 -13.460938 14.9375 -12.453125 C 16.0625 -11.441406 16.625 -9.988281 16.625 -8.09375 Z M 12.375 -8.71875 L 12.375 -8.75 C 12.363281 -9.375 12.128906 -9.878906 11.671875 -10.265625 C 11.210938 -10.660156 10.648438 -10.859375 9.984375 -10.859375 C 9.285156 -10.859375 8.648438 -10.671875 8.078125 -10.296875 C 7.503906 -9.929688 7.085938 -9.40625 6.828125 -8.71875 Z M 12.375 -8.71875 "/></g></g></g><g fill="#000000" fill-opacity="1"><g transform="translate(131.176516, 26.534977)"><g><path d="M 17.09375 -11.375 C 17.632812 -12.132812 18.347656 -12.753906 19.234375 -13.234375 C 20.128906 -13.722656 21.085938 -13.96875 22.109375 -13.96875 C 24.703125 -13.96875 26 -12.679688 26 -10.109375 C 26 -9.546875 25.894531 -8.660156 25.6875 -7.453125 L 24.5 0 L 19.703125 0 L 20.734375 -6.453125 C 20.835938 -6.941406 20.898438 -7.519531 20.921875 -8.1875 C 20.921875 -9.488281 20.394531 -10.140625 19.34375 -10.140625 C 18.707031 -10.140625 18.195312 -9.984375 17.8125 -9.671875 C 17.4375 -9.367188 17.144531 -8.96875 16.9375 -8.46875 C 16.726562 -7.96875 16.550781 -7.171875 16.40625 -6.078125 L 15.4375 0 L 10.640625 0 L 11.671875 -6.453125 C 11.796875 -7.191406 11.859375 -7.769531 11.859375 -8.1875 C 11.859375 -9.5625 11.285156 -10.25 10.140625 -10.25 C 9.398438 -10.25 8.804688 -9.960938 8.359375 -9.390625 C 7.910156 -8.816406 7.59375 -7.835938 7.40625 -6.453125 L 6.375 0 L 1.578125 0 L 3.71875 -13.515625 L 8.515625 -13.515625 L 8.25 -11.828125 L 8.296875 -11.828125 C 9.578125 -13.253906 11.113281 -13.96875 12.90625 -13.96875 C 15 -13.96875 16.394531 -13.101562 17.09375 -11.375 Z M 17.09375 -11.375 "/></g></g></g><g fill="#000000" fill-opacity="1"><g transform="translate(155.636138, 26.534977)"><g><path d="M 18.328125 -7.984375 C 18.328125 -6.546875 17.960938 -5.164062 17.234375 -3.84375 C 16.515625 -2.53125 15.53125 -1.484375 14.28125 -0.703125 C 13.03125 0.0664062 11.75 0.453125 10.4375 0.453125 C 8.59375 0.453125 7.253906 -0.128906 6.421875 -1.296875 L 5.140625 6.75 L 0.34375 6.75 L 3.5625 -13.515625 L 8.34375 -13.515625 L 8.109375 -11.984375 L 8.171875 -11.984375 C 8.679688 -12.597656 9.320312 -13.082031 10.09375 -13.4375 C 10.863281 -13.789062 11.6875 -13.96875 12.5625 -13.96875 C 14.269531 -13.96875 15.65625 -13.398438 16.71875 -12.265625 C 17.789062 -11.128906 18.328125 -9.703125 18.328125 -7.984375 Z M 9.71875 -3.71875 C 10.757812 -3.71875 11.625 -4.066406 12.3125 -4.765625 C 13.007812 -5.472656 13.359375 -6.316406 13.359375 -7.296875 C 13.359375 -8.054688 13.117188 -8.660156 12.640625 -9.109375 C 12.171875 -9.566406 11.515625 -9.796875 10.671875 -9.796875 C 9.671875 -9.796875 8.820312 -9.441406 8.125 -8.734375 C 7.4375 -8.023438 7.09375 -7.160156 7.09375 -6.140625 C 7.09375 -5.398438 7.328125 -4.8125 7.796875 -4.375 C 8.273438 -3.9375 8.914062 -3.71875 9.71875 -3.71875 Z M 9.71875 -3.71875 "/></g></g></g><g fill="#000000" fill-opacity="1"><g transform="translate(172.012533, 26.534977)"><g><path d="M 9.828125 -21.859375 L 6.375 0 L 1.578125 0 L 5.03125 -21.859375 Z M 9.828125 -21.859375 "/></g></g></g><g fill="#000000" fill-opacity="1"><g transform="translate(178.383641, 26.534977)"><g><path d="M 13.703125 -13.515625 L 18.5 -13.515625 L 16.359375 0 L 11.5625 0 L 11.796875 -1.5 L 11.75 -1.5 C 11.257812 -0.863281 10.613281 -0.378906 9.8125 -0.046875 C 9.007812 0.285156 8.1875 0.453125 7.34375 0.453125 C 5.664062 0.453125 4.285156 -0.109375 3.203125 -1.234375 C 2.117188 -2.359375 1.578125 -3.78125 1.578125 -5.5 C 1.578125 -6.90625 1.929688 -8.257812 2.640625 -9.5625 C 3.359375 -10.875 4.332031 -11.9375 5.5625 -12.75 C 6.800781 -13.5625 8.144531 -13.96875 9.59375 -13.96875 C 10.394531 -13.96875 11.140625 -13.816406 11.828125 -13.515625 C 12.523438 -13.210938 13.078125 -12.773438 13.484375 -12.203125 Z M 9.21875 -3.71875 C 10.257812 -3.71875 11.125 -4.070312 11.8125 -4.78125 C 12.507812 -5.488281 12.859375 -6.335938 12.859375 -7.328125 C 12.859375 -8.023438 12.617188 -8.609375 12.140625 -9.078125 C 11.671875 -9.554688 11.015625 -9.796875 10.171875 -9.796875 C 9.203125 -9.796875 8.363281 -9.441406 7.65625 -8.734375 C 6.945312 -8.023438 6.59375 -7.160156 6.59375 -6.140625 C 6.59375 -5.398438 6.816406 -4.8125 7.265625 -4.375 C 7.722656 -3.9375 8.375 -3.71875 9.21875 -3.71875 Z M 9.21875 -3.71875 "/></g></g></g><g fill="#000000" fill-opacity="1"><g transform="translate(194.760037, 26.534977)"><g><path d="M 9.609375 -17.578125 L 8.953125 -13.515625 L 11.671875 -13.515625 L 11.03125 -9.5625 L 8.328125 -9.5625 L 6.828125 0 L 2.03125 0 L 3.53125 -9.5625 L 1.96875 -9.5625 L 2.609375 -13.515625 L 4.15625 -13.515625 L 4.828125 -17.578125 Z M 9.609375 -17.578125 "/></g></g></g><g fill="#000000" fill-opacity="1"><g transform="translate(202.658253, 26.534977)"><g><path d="M 16.625 -8.09375 C 16.625 -7.539062 16.550781 -6.828125 16.40625 -5.953125 L 6.328125 -5.953125 C 6.304688 -5.867188 6.289062 -5.757812 6.28125 -5.625 C 6.269531 -5.488281 6.265625 -5.351562 6.265625 -5.21875 C 6.265625 -3.726562 7.125 -2.972656 8.84375 -2.953125 C 9.9375 -2.953125 10.765625 -3.363281 11.328125 -4.1875 L 15.9375 -4.1875 C 15.394531 -2.769531 14.4375 -1.640625 13.0625 -0.796875 C 11.695312 0.0351562 10.117188 0.453125 8.328125 0.453125 C 6.203125 0.453125 4.539062 -0.0625 3.34375 -1.09375 C 2.144531 -2.132812 1.546875 -3.5625 1.546875 -5.375 C 1.546875 -6.957031 1.925781 -8.421875 2.6875 -9.765625 C 3.457031 -11.117188 4.515625 -12.15625 5.859375 -12.875 C 7.203125 -13.601562 8.628906 -13.96875 10.140625 -13.96875 C 12.210938 -13.96875 13.8125 -13.460938 14.9375 -12.453125 C 16.0625 -11.441406 16.625 -9.988281 16.625 -8.09375 Z M 12.375 -8.71875 L 12.375 -8.75 C 12.363281 -9.375 12.128906 -9.878906 11.671875 -10.265625 C 11.210938 -10.660156 10.648438 -10.859375 9.984375 -10.859375 C 9.285156 -10.859375 8.648438 -10.671875 8.078125 -10.296875 C 7.503906 -9.929688 7.085938 -9.40625 6.828125 -8.71875 Z M 12.375 -8.71875 "/></g></g></g></svg>