<svg xmlns="http://www.w3.org/2000/svg" xmlns:xlink="http://www.w3.org/1999/xlink" width="300" zoomAndPan="magnify" viewBox="0 0 224.87999 44.999999" height="60" preserveAspectRatio="xMidYMid meet" version="1.2"><defs><clipPath id="a289987b5a"><path d="M 0 0.0117188 L 224.761719 0.0117188 L 224.761719 44.988281 L 0 44.988281 Z M 0 0.0117188 "/></clipPath><clipPath id="3c4350bf26"><path d="M 3.339844 0.0117188 L 221.542969 0.0117188 C 222.425781 0.0117188 223.277344 0.363281 223.902344 0.992188 C 224.527344 1.617188 224.878906 2.464844 224.878906 3.351562 L 224.878906 42.398438 C 224.878906 43.285156 224.527344 44.132812 223.902344 44.761719 C 223.277344 45.386719 222.425781 45.738281 221.542969 45.738281 L 3.339844 45.738281 C 2.453125 45.738281 1.605469 45.386719 0.976562 44.761719 C 0.351562 44.132812 0 43.285156 0 42.398438 L 0 3.351562 C 0 2.464844 0.351562 1.617188 0.976562 0.992188 C 1.605469 0.363281 2.453125 0.0117188 3.339844 0.0117188 Z M 3.339844 0.0117188 "/></clipPath><clipPath id="8c3bd3e3fd"><path d="M 7.441406 7.078125 L 35.925781 7.078125 L 35.925781 36.3125 L 7.441406 36.3125 Z M 7.441406 7.078125 "/></clipPath></defs><g id="4830eb66fd"><g clip-rule="nonzero" clip-path="url(#a289987b5a)"><g clip-rule="nonzero" clip-path="url(#3c4350bf26)"><path style=" stroke:none;fill-rule:nonzero;fill:#ffffff;fill-opacity:1;" d="M 0 0.0117188 L 224.878906 0.0117188 L 224.878906 45.738281 L 0 45.738281 Z M 0 0.0117188 "/></g></g><g clip-rule="nonzero" clip-path="url(#8c3bd3e3fd)"><path style=" stroke:none;fill-rule:evenodd;fill:#f3be4a;fill-opacity:1;" d="M 31.796875 23.957031 C 31.796875 23.957031 31.167969 26.09375 30.480469 26.78125 C 29.792969 27.472656 27.667969 28.105469 27.667969 28.105469 C 27.667969 28.105469 29.792969 28.734375 30.480469 29.425781 C 31.167969 30.117188 31.796875 32.25 31.796875 32.25 C 31.796875 32.25 32.421875 30.117188 33.109375 29.425781 C 33.800781 28.734375 35.921875 28.105469 35.921875 28.105469 C 35.921875 28.105469 33.800781 27.472656 33.109375 26.78125 C 32.421875 26.09375 31.796875 23.957031 31.796875 23.957031 Z M 13.699219 23.726562 C 13.699219 23.726562 12.75 26.964844 11.707031 28.011719 C 10.664062 29.058594 7.441406 30.015625 7.441406 30.015625 C 7.441406 30.015625 10.664062 30.972656 11.707031 32.019531 C 12.75 33.066406 13.699219 36.304688 13.699219 36.304688 C 13.699219 36.304688 14.652344 33.066406 15.695312 32.019531 C 16.738281 30.972656 19.960938 30.015625 19.960938 30.015625 C 19.960938 30.015625 16.738281 29.058594 15.695312 28.011719 C 14.652344 26.964844 13.699219 23.726562 13.699219 23.726562 Z M 23.300781 7.085938 C 23.300781 7.085938 21.84375 12.050781 20.242188 13.65625 C 18.640625 15.265625 13.699219 16.730469 13.699219 16.730469 C 13.699219 16.730469 18.640625 18.195312 20.242188 19.804688 C 21.84375 21.414062 23.300781 26.375 23.300781 26.375 C 23.300781 26.375 24.761719 21.414062 26.363281 19.804688 C 27.960938 18.195312 32.902344 16.730469 32.902344 16.730469 C 32.902344 16.730469 27.960938 15.265625 26.363281 13.65625 C 24.761719 12.050781 23.300781 7.085938 23.300781 7.085938 "/></g><g style="fill:#ff914d;fill-opacity:1;"><g transform="translate(41.521873, 33.108753)"><path style="stroke:none" d="M 2.796875 -2.5625 L 2.796875 -20.765625 C 2.796875 -21.472656 3.046875 -22.078125 3.546875 -22.578125 C 4.046875 -23.078125 4.648438 -23.328125 5.359375 -23.328125 L 18.296875 -23.328125 C 18.941406 -23.328125 19.484375 -23.101562 19.921875 -22.65625 C 20.367188 -22.21875 20.59375 -21.675781 20.59375 -21.03125 C 20.59375 -20.382812 20.367188 -19.84375 19.921875 -19.40625 C 19.484375 -18.976562 18.941406 -18.765625 18.296875 -18.765625 L 7.90625 -18.765625 L 7.90625 -14.03125 L 16.796875 -14.03125 C 17.441406 -14.03125 17.984375 -13.804688 18.421875 -13.359375 C 18.867188 -12.921875 19.09375 -12.378906 19.09375 -11.734375 C 19.09375 -11.085938 18.867188 -10.546875 18.421875 -10.109375 C 17.984375 -9.679688 17.441406 -9.46875 16.796875 -9.46875 L 7.90625 -9.46875 L 7.90625 -4.5625 L 18.46875 -4.5625 C 19.113281 -4.5625 19.65625 -4.335938 20.09375 -3.890625 C 20.539062 -3.453125 20.765625 -2.910156 20.765625 -2.265625 C 20.765625 -1.617188 20.539062 -1.078125 20.09375 -0.640625 C 19.65625 -0.210938 19.113281 0 18.46875 0 L 5.359375 0 C 4.648438 0 4.046875 -0.25 3.546875 -0.75 C 3.046875 -1.25 2.796875 -1.851562 2.796875 -2.5625 Z M 2.796875 -2.5625 "/></g></g><g style="fill:#ff914d;fill-opacity:1;"><g transform="translate(60.385224, 33.108753)"><path style="stroke:none" d="M 1.328125 -1.9375 C 1.328125 -2.289062 1.390625 -2.601562 1.515625 -2.875 C 1.640625 -3.15625 1.8125 -3.421875 2.03125 -3.671875 L 6.59375 -9.0625 L 2.4375 -13.859375 C 1.875 -14.484375 1.59375 -15.128906 1.59375 -15.796875 C 1.59375 -16.503906 1.820312 -17.066406 2.28125 -17.484375 C 2.738281 -17.910156 3.289062 -18.125 3.9375 -18.125 C 4.445312 -18.125 4.882812 -18.015625 5.25 -17.796875 C 5.613281 -17.578125 5.960938 -17.253906 6.296875 -16.828125 L 9.59375 -12.4375 L 12.96875 -16.828125 C 13.28125 -17.203125 13.613281 -17.507812 13.96875 -17.75 C 14.320312 -18 14.722656 -18.125 15.171875 -18.125 C 15.835938 -18.125 16.394531 -17.914062 16.84375 -17.5 C 17.300781 -17.09375 17.53125 -16.570312 17.53125 -15.9375 C 17.53125 -15.570312 17.460938 -15.25 17.328125 -14.96875 C 17.191406 -14.695312 17.023438 -14.441406 16.828125 -14.203125 L 12.5 -9.125 L 16.96875 -4 C 17.519531 -3.375 17.796875 -2.726562 17.796875 -2.0625 C 17.796875 -1.351562 17.566406 -0.785156 17.109375 -0.359375 C 16.660156 0.0546875 16.113281 0.265625 15.46875 0.265625 C 14.957031 0.265625 14.507812 0.15625 14.125 -0.0625 C 13.75 -0.289062 13.40625 -0.613281 13.09375 -1.03125 L 9.5 -5.765625 L 5.90625 -1.03125 C 5.59375 -0.65625 5.253906 -0.34375 4.890625 -0.09375 C 4.535156 0.144531 4.140625 0.265625 3.703125 0.265625 C 3.035156 0.265625 2.472656 0.0625 2.015625 -0.34375 C 1.554688 -0.757812 1.328125 -1.289062 1.328125 -1.9375 Z M 1.328125 -1.9375 "/></g></g><g style="fill:#ff914d;fill-opacity:1;"><g transform="translate(76.049109, 33.108753)"><path style="stroke:none" d="M 1.203125 -5.203125 C 1.203125 -6.179688 1.378906 -7.023438 1.734375 -7.734375 C 2.085938 -8.441406 2.582031 -9.03125 3.21875 -9.5 C 3.851562 -9.96875 4.609375 -10.316406 5.484375 -10.546875 C 6.359375 -10.773438 7.332031 -10.890625 8.40625 -10.890625 C 9.332031 -10.890625 10.128906 -10.820312 10.796875 -10.6875 C 11.460938 -10.5625 12.117188 -10.390625 12.765625 -10.171875 L 12.765625 -10.46875 C 12.765625 -12.644531 11.488281 -13.734375 8.9375 -13.734375 C 8.21875 -13.734375 7.5625 -13.707031 6.96875 -13.65625 C 6.382812 -13.613281 5.875 -13.472656 5.4375 -13.234375 C 5.257812 -13.140625 5.015625 -13.09375 4.703125 -13.09375 C 4.117188 -13.09375 3.617188 -13.289062 3.203125 -13.6875 C 2.796875 -14.09375 2.59375 -14.585938 2.59375 -15.171875 C 2.59375 -15.609375 2.71875 -16.003906 2.96875 -16.359375 C 3.226562 -16.710938 3.5625 -16.96875 3.96875 -17.125 C 4.769531 -17.4375 5.617188 -17.671875 6.515625 -17.828125 C 7.410156 -17.984375 8.460938 -18.0625 9.671875 -18.0625 C 12.285156 -18.0625 14.265625 -17.429688 15.609375 -16.171875 C 16.953125 -14.921875 17.625 -12.984375 17.625 -10.359375 L 17.625 -2.234375 C 17.625 -1.546875 17.382812 -0.96875 16.90625 -0.5 C 16.4375 -0.03125 15.859375 0.203125 15.171875 0.203125 C 14.429688 0.203125 13.835938 -0.0078125 13.390625 -0.4375 C 12.953125 -0.875 12.734375 -1.363281 12.734375 -1.90625 L 12.734375 -1.9375 C 12.109375 -1.25 11.367188 -0.695312 10.515625 -0.28125 C 9.660156 0.125 8.597656 0.328125 7.328125 0.328125 C 6.484375 0.328125 5.6875 0.210938 4.9375 -0.015625 C 4.195312 -0.242188 3.550781 -0.59375 3 -1.0625 C 2.445312 -1.53125 2.007812 -2.101562 1.6875 -2.78125 C 1.363281 -3.457031 1.203125 -4.238281 1.203125 -5.125 Z M 6.09375 -5.40625 L 6.09375 -5.328125 C 6.09375 -4.640625 6.347656 -4.109375 6.859375 -3.734375 C 7.367188 -3.359375 8.035156 -3.171875 8.859375 -3.171875 C 10.066406 -3.171875 11.03125 -3.457031 11.75 -4.03125 C 12.46875 -4.613281 12.828125 -5.367188 12.828125 -6.296875 L 12.828125 -7.203125 C 12.390625 -7.398438 11.894531 -7.554688 11.34375 -7.671875 C 10.800781 -7.796875 10.21875 -7.859375 9.59375 -7.859375 C 8.507812 -7.859375 7.65625 -7.644531 7.03125 -7.21875 C 6.40625 -6.800781 6.09375 -6.195312 6.09375 -5.40625 Z M 6.09375 -5.40625 "/></g></g><g style="fill:#ff914d;fill-opacity:1;"><g transform="translate(92.312892, 33.108753)"><path style="stroke:none" d="M 2.265625 -2.328125 L 2.265625 -15.53125 C 2.265625 -16.238281 2.507812 -16.835938 3 -17.328125 C 3.488281 -17.816406 4.085938 -18.0625 4.796875 -18.0625 C 5.503906 -18.0625 6.101562 -17.816406 6.59375 -17.328125 C 7.082031 -16.835938 7.328125 -16.238281 7.328125 -15.53125 L 7.328125 -15.328125 C 7.617188 -15.703125 7.9375 -16.0625 8.28125 -16.40625 C 8.625 -16.757812 9.003906 -17.066406 9.421875 -17.328125 C 9.847656 -17.597656 10.320312 -17.8125 10.84375 -17.96875 C 11.363281 -18.125 11.945312 -18.203125 12.59375 -18.203125 C 15 -18.203125 16.675781 -17.253906 17.625 -15.359375 C 18.40625 -16.296875 19.269531 -17.003906 20.21875 -17.484375 C 21.175781 -17.960938 22.269531 -18.203125 23.5 -18.203125 C 25.382812 -18.203125 26.859375 -17.644531 27.921875 -16.53125 C 28.992188 -15.414062 29.53125 -13.78125 29.53125 -11.625 L 29.53125 -2.328125 C 29.53125 -1.617188 29.285156 -1.019531 28.796875 -0.53125 C 28.304688 -0.0390625 27.707031 0.203125 27 0.203125 C 26.28125 0.203125 25.675781 -0.0390625 25.1875 -0.53125 C 24.707031 -1.019531 24.46875 -1.617188 24.46875 -2.328125 L 24.46875 -9.96875 C 24.46875 -11.164062 24.210938 -12.066406 23.703125 -12.671875 C 23.191406 -13.285156 22.457031 -13.59375 21.5 -13.59375 C 20.539062 -13.59375 19.789062 -13.285156 19.25 -12.671875 C 18.707031 -12.066406 18.4375 -11.164062 18.4375 -9.96875 L 18.4375 -2.328125 C 18.4375 -1.617188 18.191406 -1.019531 17.703125 -0.53125 C 17.210938 -0.0390625 16.609375 0.203125 15.890625 0.203125 C 15.179688 0.203125 14.582031 -0.0390625 14.09375 -0.53125 C 13.601562 -1.019531 13.359375 -1.617188 13.359375 -2.328125 L 13.359375 -9.96875 C 13.359375 -11.164062 13.101562 -12.066406 12.59375 -12.671875 C 12.082031 -13.285156 11.347656 -13.59375 10.390625 -13.59375 C 9.441406 -13.59375 8.691406 -13.285156 8.140625 -12.671875 C 7.597656 -12.066406 7.328125 -11.164062 7.328125 -9.96875 L 7.328125 -2.328125 C 7.328125 -1.617188 7.082031 -1.019531 6.59375 -0.53125 C 6.101562 -0.0390625 5.503906 0.203125 4.796875 0.203125 C 4.085938 0.203125 3.488281 -0.0390625 3 -0.53125 C 2.507812 -1.019531 2.265625 -1.617188 2.265625 -2.328125 Z M 2.265625 -2.328125 "/></g></g><g style="fill:#ff914d;fill-opacity:1;"><g transform="translate(120.508011, 33.108753)"><path style="stroke:none" d="M 4.796875 -18.0625 C 5.503906 -18.0625 6.101562 -17.816406 6.59375 -17.328125 C 7.082031 -16.835938 7.328125 -16.238281 7.328125 -15.53125 L 7.328125 -15.296875 C 7.953125 -16.140625 8.703125 -16.832031 9.578125 -17.375 C 10.453125 -17.925781 11.554688 -18.203125 12.890625 -18.203125 C 13.941406 -18.203125 14.953125 -18 15.921875 -17.59375 C 16.898438 -17.195312 17.765625 -16.601562 18.515625 -15.8125 C 19.273438 -15.019531 19.882812 -14.050781 20.34375 -12.90625 C 20.800781 -11.769531 21.03125 -10.457031 21.03125 -8.96875 L 21.03125 -8.90625 C 21.03125 -7.414062 20.800781 -6.097656 20.34375 -4.953125 C 19.882812 -3.804688 19.285156 -2.835938 18.546875 -2.046875 C 17.804688 -1.253906 16.945312 -0.660156 15.96875 -0.265625 C 14.988281 0.128906 13.960938 0.328125 12.890625 0.328125 C 11.535156 0.328125 10.421875 0.0625 9.546875 -0.46875 C 8.671875 -1 7.929688 -1.617188 7.328125 -2.328125 L 7.328125 3 C 7.328125 3.707031 7.082031 4.304688 6.59375 4.796875 C 6.101562 5.285156 5.503906 5.53125 4.796875 5.53125 C 4.085938 5.53125 3.488281 5.285156 3 4.796875 C 2.507812 4.304688 2.265625 3.707031 2.265625 3 L 2.265625 -15.53125 C 2.265625 -16.238281 2.507812 -16.835938 3 -17.328125 C 3.488281 -17.816406 4.085938 -18.0625 4.796875 -18.0625 Z M 7.265625 -8.96875 L 7.265625 -8.90625 C 7.265625 -8.164062 7.378906 -7.488281 7.609375 -6.875 C 7.847656 -6.269531 8.160156 -5.75 8.546875 -5.3125 C 8.929688 -4.882812 9.382812 -4.550781 9.90625 -4.3125 C 10.4375 -4.082031 11 -3.96875 11.59375 -3.96875 C 12.195312 -3.96875 12.757812 -4.082031 13.28125 -4.3125 C 13.800781 -4.550781 14.257812 -4.882812 14.65625 -5.3125 C 15.0625 -5.75 15.378906 -6.265625 15.609375 -6.859375 C 15.847656 -7.460938 15.96875 -8.144531 15.96875 -8.90625 L 15.96875 -8.96875 C 15.96875 -9.695312 15.847656 -10.363281 15.609375 -10.96875 C 15.378906 -11.582031 15.0625 -12.109375 14.65625 -12.546875 C 14.257812 -12.984375 13.800781 -13.316406 13.28125 -13.546875 C 12.757812 -13.773438 12.195312 -13.890625 11.59375 -13.890625 C 11 -13.890625 10.4375 -13.773438 9.90625 -13.546875 C 9.382812 -13.316406 8.929688 -12.984375 8.546875 -12.546875 C 8.160156 -12.109375 7.847656 -11.582031 7.609375 -10.96875 C 7.378906 -10.363281 7.265625 -9.695312 7.265625 -8.96875 Z M 7.265625 -8.96875 "/></g></g><g style="fill:#ff914d;fill-opacity:1;"><g transform="translate(139.537998, 33.108753)"><path style="stroke:none" d="M 2.5 -22 C 2.5 -22.707031 2.742188 -23.304688 3.234375 -23.796875 C 3.722656 -24.285156 4.320312 -24.53125 5.03125 -24.53125 C 5.738281 -24.53125 6.335938 -24.285156 6.828125 -23.796875 C 7.316406 -23.304688 7.5625 -22.707031 7.5625 -22 L 7.5625 -2.328125 C 7.5625 -1.617188 7.316406 -1.019531 6.828125 -0.53125 C 6.335938 -0.0390625 5.738281 0.203125 5.03125 0.203125 C 4.320312 0.203125 3.722656 -0.0390625 3.234375 -0.53125 C 2.742188 -1.019531 2.5 -1.617188 2.5 -2.328125 Z M 2.5 -22 "/></g></g><g style="fill:#ff914d;fill-opacity:1;"><g transform="translate(146.136733, 33.108753)"><path style="stroke:none" d="M 1.40625 -8.90625 C 1.40625 -10.164062 1.617188 -11.363281 2.046875 -12.5 C 2.484375 -13.632812 3.085938 -14.625 3.859375 -15.46875 C 4.640625 -16.3125 5.570312 -16.976562 6.65625 -17.46875 C 7.75 -17.957031 8.941406 -18.203125 10.234375 -18.203125 C 11.742188 -18.203125 13.035156 -17.925781 14.109375 -17.375 C 15.191406 -16.832031 16.082031 -16.140625 16.78125 -15.296875 C 17.476562 -14.453125 17.992188 -13.523438 18.328125 -12.515625 C 18.660156 -11.503906 18.828125 -10.53125 18.828125 -9.59375 C 18.828125 -8.863281 18.597656 -8.273438 18.140625 -7.828125 C 17.691406 -7.390625 17.132812 -7.171875 16.46875 -7.171875 L 6.4375 -7.171875 C 6.675781 -6.015625 7.175781 -5.140625 7.9375 -4.546875 C 8.707031 -3.960938 9.660156 -3.671875 10.796875 -3.671875 C 11.503906 -3.671875 12.148438 -3.773438 12.734375 -3.984375 C 13.328125 -4.191406 13.878906 -4.484375 14.390625 -4.859375 C 14.578125 -4.992188 14.765625 -5.09375 14.953125 -5.15625 C 15.140625 -5.226562 15.363281 -5.265625 15.625 -5.265625 C 16.207031 -5.265625 16.679688 -5.070312 17.046875 -4.6875 C 17.410156 -4.3125 17.59375 -3.835938 17.59375 -3.265625 C 17.59375 -2.929688 17.523438 -2.640625 17.390625 -2.390625 C 17.265625 -2.148438 17.113281 -1.941406 16.9375 -1.765625 C 16.15625 -1.097656 15.257812 -0.566406 14.25 -0.171875 C 13.238281 0.210938 12.066406 0.40625 10.734375 0.40625 C 9.398438 0.40625 8.160156 0.179688 7.015625 -0.265625 C 5.867188 -0.710938 4.878906 -1.347656 4.046875 -2.171875 C 3.210938 -2.992188 2.5625 -3.96875 2.09375 -5.09375 C 1.632812 -6.226562 1.40625 -7.472656 1.40625 -8.828125 Z M 6.359375 -10.328125 L 14 -10.328125 C 13.84375 -11.460938 13.441406 -12.378906 12.796875 -13.078125 C 12.148438 -13.773438 11.296875 -14.125 10.234375 -14.125 C 9.160156 -14.125 8.296875 -13.78125 7.640625 -13.09375 C 6.992188 -12.40625 6.566406 -11.484375 6.359375 -10.328125 Z M 6.359375 -10.328125 "/></g></g><g style="fill:#ff914d;fill-opacity:1;"><g transform="translate(163.100396, 33.108753)"><path style="stroke:none" d="M 2.796875 -2.5625 L 2.796875 -20.765625 C 2.796875 -21.472656 3.046875 -22.078125 3.546875 -22.578125 C 4.046875 -23.078125 4.648438 -23.328125 5.359375 -23.328125 L 13.625 -23.328125 C 14.582031 -23.328125 15.519531 -23.210938 16.4375 -22.984375 C 17.363281 -22.765625 18.1875 -22.414062 18.90625 -21.9375 C 19.632812 -21.46875 20.21875 -20.847656 20.65625 -20.078125 C 21.101562 -19.316406 21.328125 -18.390625 21.328125 -17.296875 L 21.328125 -17.234375 C 21.328125 -15.921875 21.023438 -14.863281 20.421875 -14.0625 C 19.828125 -13.257812 19.109375 -12.640625 18.265625 -12.203125 C 19.617188 -11.691406 20.679688 -10.992188 21.453125 -10.109375 C 22.234375 -9.234375 22.625 -8.019531 22.625 -6.46875 L 22.625 -6.40625 C 22.625 -5.332031 22.414062 -4.394531 22 -3.59375 C 21.59375 -2.800781 21.003906 -2.132812 20.234375 -1.59375 C 19.472656 -1.0625 18.550781 -0.660156 17.46875 -0.390625 C 16.394531 -0.128906 15.203125 0 13.890625 0 L 5.359375 0 C 4.648438 0 4.046875 -0.25 3.546875 -0.75 C 3.046875 -1.25 2.796875 -1.851562 2.796875 -2.5625 Z M 7.796875 -9.625 L 7.796875 -4.5 L 13.890625 -4.5 C 15.023438 -4.5 15.914062 -4.703125 16.5625 -5.109375 C 17.207031 -5.523438 17.53125 -6.164062 17.53125 -7.03125 L 17.53125 -7.09375 C 17.53125 -7.875 17.226562 -8.488281 16.625 -8.9375 C 16.03125 -9.394531 15.066406 -9.625 13.734375 -9.625 Z M 7.796875 -13.890625 L 12.53125 -13.890625 C 13.664062 -13.890625 14.566406 -14.082031 15.234375 -14.46875 C 15.898438 -14.863281 16.234375 -15.492188 16.234375 -16.359375 L 16.234375 -16.4375 C 16.234375 -17.207031 15.941406 -17.796875 15.359375 -18.203125 C 14.785156 -18.617188 13.953125 -18.828125 12.859375 -18.828125 L 7.796875 -18.828125 Z M 7.796875 -13.890625 "/></g></g><g style="fill:#ff914d;fill-opacity:1;"><g transform="translate(183.696792, 33.108753)"><path style="stroke:none" d="M 11.09375 -18.203125 C 12.476562 -18.203125 13.757812 -17.960938 14.9375 -17.484375 C 16.113281 -17.003906 17.128906 -16.347656 17.984375 -15.515625 C 18.835938 -14.679688 19.507812 -13.703125 20 -12.578125 C 20.488281 -11.453125 20.734375 -10.25 20.734375 -8.96875 L 20.734375 -8.90625 C 20.734375 -7.613281 20.488281 -6.40625 20 -5.28125 C 19.507812 -4.15625 18.828125 -3.171875 17.953125 -2.328125 C 17.085938 -1.484375 16.066406 -0.816406 14.890625 -0.328125 C 13.710938 0.160156 12.425781 0.40625 11.03125 0.40625 C 9.65625 0.40625 8.378906 0.164062 7.203125 -0.3125 C 6.023438 -0.789062 5.003906 -1.445312 4.140625 -2.28125 C 3.285156 -3.113281 2.613281 -4.09375 2.125 -5.21875 C 1.644531 -6.34375 1.40625 -7.546875 1.40625 -8.828125 L 1.40625 -8.90625 C 1.40625 -10.1875 1.644531 -11.390625 2.125 -12.515625 C 2.613281 -13.640625 3.289062 -14.625 4.15625 -15.46875 C 5.03125 -16.3125 6.054688 -16.976562 7.234375 -17.46875 C 8.410156 -17.957031 9.695312 -18.203125 11.09375 -18.203125 Z M 11.09375 -3.96875 C 11.832031 -3.96875 12.484375 -4.09375 13.046875 -4.34375 C 13.609375 -4.601562 14.085938 -4.953125 14.484375 -5.390625 C 14.890625 -5.835938 15.195312 -6.351562 15.40625 -6.9375 C 15.625 -7.53125 15.734375 -8.160156 15.734375 -8.828125 L 15.734375 -8.90625 C 15.734375 -9.5625 15.617188 -10.1875 15.390625 -10.78125 C 15.171875 -11.375 14.847656 -11.894531 14.421875 -12.34375 C 14.003906 -12.800781 13.507812 -13.160156 12.9375 -13.421875 C 12.375 -13.691406 11.738281 -13.828125 11.03125 -13.828125 C 10.300781 -13.828125 9.648438 -13.695312 9.078125 -13.4375 C 8.515625 -13.1875 8.03125 -12.835938 7.625 -12.390625 C 7.226562 -11.953125 6.925781 -11.4375 6.71875 -10.84375 C 6.507812 -10.257812 6.40625 -9.632812 6.40625 -8.96875 L 6.40625 -8.90625 C 6.40625 -8.238281 6.515625 -7.609375 6.734375 -7.015625 C 6.953125 -6.421875 7.269531 -5.894531 7.6875 -5.4375 C 8.113281 -4.988281 8.613281 -4.628906 9.1875 -4.359375 C 9.769531 -4.097656 10.40625 -3.96875 11.09375 -3.96875 Z M 11.09375 -3.96875 "/></g></g><g style="fill:#ff914d;fill-opacity:1;"><g transform="translate(202.360163, 33.108753)"><path style="stroke:none" d="M 2.171875 -17.859375 L 3.09375 -17.859375 L 3.09375 -20.09375 C 3.09375 -20.800781 3.335938 -21.398438 3.828125 -21.890625 C 4.316406 -22.378906 4.914062 -22.625 5.625 -22.625 C 6.34375 -22.625 6.945312 -22.378906 7.4375 -21.890625 C 7.925781 -21.398438 8.171875 -20.800781 8.171875 -20.09375 L 8.171875 -17.859375 L 10.390625 -17.859375 C 10.992188 -17.859375 11.503906 -17.644531 11.921875 -17.21875 C 12.347656 -16.800781 12.5625 -16.296875 12.5625 -15.703125 C 12.5625 -15.097656 12.347656 -14.582031 11.921875 -14.15625 C 11.503906 -13.738281 10.992188 -13.53125 10.390625 -13.53125 L 8.171875 -13.53125 L 8.171875 -5.90625 C 8.171875 -4.75 8.710938 -4.171875 9.796875 -4.171875 C 9.890625 -4.171875 10 -4.175781 10.125 -4.1875 C 10.257812 -4.195312 10.347656 -4.203125 10.390625 -4.203125 C 10.972656 -4.203125 11.46875 -3.992188 11.875 -3.578125 C 12.289062 -3.171875 12.5 -2.675781 12.5 -2.09375 C 12.5 -1.5625 12.351562 -1.140625 12.0625 -0.828125 C 11.769531 -0.515625 11.40625 -0.273438 10.96875 -0.109375 C 10.539062 0.0546875 10.085938 0.164062 9.609375 0.21875 C 9.140625 0.269531 8.703125 0.296875 8.296875 0.296875 C 7.546875 0.296875 6.847656 0.210938 6.203125 0.046875 C 5.554688 -0.117188 5.003906 -0.410156 4.546875 -0.828125 C 4.085938 -1.253906 3.726562 -1.8125 3.46875 -2.5 C 3.21875 -3.1875 3.09375 -4.039062 3.09375 -5.0625 L 3.09375 -13.53125 L 2.171875 -13.53125 C 1.566406 -13.53125 1.050781 -13.738281 0.625 -14.15625 C 0.207031 -14.582031 0 -15.097656 0 -15.703125 C 0 -16.296875 0.207031 -16.800781 0.625 -17.21875 C 1.050781 -17.644531 1.566406 -17.859375 2.171875 -17.859375 Z M 2.171875 -17.859375 "/></g></g></g></svg>