<svg xmlns="http://www.w3.org/2000/svg" xmlns:xlink="http://www.w3.org/1999/xlink" width="500" zoomAndPan="magnify" viewBox="0 0 375 374.999991" height="500" preserveAspectRatio="xMidYMid meet" version="1.2"><defs><clipPath id="21a1bb5b7e"><path d="M 48.085938 50.097656 L 322.890625 50.097656 L 322.890625 324.902344 L 48.085938 324.902344 Z M 48.085938 50.097656 "/></clipPath><clipPath id="23211a663f"><path d="M 185.488281 50.097656 C 109.605469 50.097656 48.085938 111.613281 48.085938 187.5 C 48.085938 263.386719 109.605469 324.902344 185.488281 324.902344 C 261.375 324.902344 322.890625 263.386719 322.890625 187.5 C 322.890625 111.613281 261.375 50.097656 185.488281 50.097656 Z M 185.488281 50.097656 "/></clipPath><clipPath id="66c51506de"><path d="M 48.085938 50.097656 L 322.585938 50.097656 L 322.585938 324.597656 L 48.085938 324.597656 Z M 48.085938 50.097656 "/></clipPath><clipPath id="29d70560cb"><path d="M 185.335938 50.097656 C 109.535156 50.097656 48.085938 111.546875 48.085938 187.347656 C 48.085938 263.148438 109.535156 324.597656 185.335938 324.597656 C 261.136719 324.597656 322.585938 263.148438 322.585938 187.347656 C 322.585938 111.546875 261.136719 50.097656 185.335938 50.097656 Z M 185.335938 50.097656 "/></clipPath><clipPath id="c930f44a07"><path d="M 230.628906 226.933594 L 262.878906 226.933594 L 262.878906 259.933594 L 230.628906 259.933594 Z M 230.628906 226.933594 "/></clipPath></defs><g id="f0207e8a07"><g clip-rule="nonzero" clip-path="url(#21a1bb5b7e)"><g clip-rule="nonzero" clip-path="url(#23211a663f)"><path style=" stroke:none;fill-rule:nonzero;fill:#ffffff;fill-opacity:1;" d="M 48.085938 50.097656 L 322.890625 50.097656 L 322.890625 324.902344 L 48.085938 324.902344 Z M 48.085938 50.097656 "/></g></g><g clip-rule="nonzero" clip-path="url(#66c51506de)"><g clip-rule="nonzero" clip-path="url(#29d70560cb)"><path style="fill:none;stroke-width:34;stroke-linecap:butt;stroke-linejoin:miter;stroke:#ffffff;stroke-opacity:1;stroke-miterlimit:4;" d="M 183.193517 -0.000891164 C 82.017934 -0.000891164 -0.00180758 82.018851 -0.00180758 183.194433 C -0.00180758 284.370016 82.017934 366.389758 183.193517 366.389758 C 284.3691 366.389758 366.388842 284.370016 366.388842 183.194433 C 366.388842 82.018851 284.3691 -0.000891164 183.193517 -0.000891164 Z M 183.193517 -0.000891164 " transform="matrix(0.7492,0,0,0.7492,48.087292,50.098324)"/></g></g><g style="fill:#ff914d;fill-opacity:1;"><g transform="translate(84.273004, 184.499988)"><path style="stroke:none" d="M 4.625 -4.234375 L 4.625 -34.28125 C 4.625 -35.445312 5.035156 -36.441406 5.859375 -37.265625 C 6.679688 -38.097656 7.679688 -38.515625 8.859375 -38.515625 L 30.203125 -38.515625 C 31.265625 -38.515625 32.160156 -38.144531 32.890625 -37.40625 C 33.628906 -36.675781 34 -35.78125 34 -34.71875 C 34 -33.65625 33.628906 -32.765625 32.890625 -32.046875 C 32.160156 -31.328125 31.265625 -30.96875 30.203125 -30.96875 L 13.03125 -30.96875 L 13.03125 -23.15625 L 27.734375 -23.15625 C 28.796875 -23.15625 29.691406 -22.785156 30.421875 -22.046875 C 31.160156 -21.316406 31.53125 -20.421875 31.53125 -19.359375 C 31.53125 -18.296875 31.160156 -17.40625 30.421875 -16.6875 C 29.691406 -15.976562 28.796875 -15.625 27.734375 -15.625 L 13.03125 -15.625 L 13.03125 -7.53125 L 30.484375 -7.53125 C 31.546875 -7.53125 32.441406 -7.164062 33.171875 -6.4375 C 33.910156 -5.707031 34.28125 -4.804688 34.28125 -3.734375 C 34.28125 -2.671875 33.910156 -1.78125 33.171875 -1.0625 C 32.441406 -0.351562 31.546875 0 30.484375 0 L 8.859375 0 C 7.679688 0 6.679688 -0.410156 5.859375 -1.234375 C 5.035156 -2.054688 4.625 -3.054688 4.625 -4.234375 Z M 4.625 -4.234375 "/></g></g><g style="fill:#ff914d;fill-opacity:1;"><g transform="translate(115.413841, 184.499988)"><path style="stroke:none" d="M 2.203125 -3.1875 C 2.203125 -3.78125 2.300781 -4.304688 2.5 -4.765625 C 2.707031 -5.222656 2.992188 -5.648438 3.359375 -6.046875 L 10.890625 -14.96875 L 4.015625 -22.890625 C 3.097656 -23.910156 2.640625 -24.972656 2.640625 -26.078125 C 2.640625 -27.253906 3.015625 -28.1875 3.765625 -28.875 C 4.515625 -29.570312 5.421875 -29.921875 6.484375 -29.921875 C 7.328125 -29.921875 8.050781 -29.738281 8.65625 -29.375 C 9.269531 -29.007812 9.847656 -28.476562 10.390625 -27.78125 L 15.84375 -20.515625 L 21.40625 -27.78125 C 21.914062 -28.40625 22.460938 -28.914062 23.046875 -29.3125 C 23.640625 -29.71875 24.300781 -29.921875 25.03125 -29.921875 C 26.132812 -29.921875 27.0625 -29.582031 27.8125 -28.90625 C 28.5625 -28.226562 28.9375 -27.359375 28.9375 -26.296875 C 28.9375 -25.710938 28.828125 -25.191406 28.609375 -24.734375 C 28.390625 -24.273438 28.113281 -23.84375 27.78125 -23.4375 L 20.625 -15.078125 L 28 -6.609375 C 28.914062 -5.578125 29.375 -4.507812 29.375 -3.40625 C 29.375 -2.238281 29 -1.304688 28.25 -0.609375 C 27.5 0.0859375 26.59375 0.4375 25.53125 0.4375 C 24.6875 0.4375 23.953125 0.253906 23.328125 -0.109375 C 22.703125 -0.472656 22.132812 -1.003906 21.625 -1.703125 L 15.671875 -9.515625 L 9.734375 -1.703125 C 9.222656 -1.078125 8.671875 -0.5625 8.078125 -0.15625 C 7.492188 0.238281 6.835938 0.4375 6.109375 0.4375 C 5.003906 0.4375 4.078125 0.0976562 3.328125 -0.578125 C 2.578125 -1.253906 2.203125 -2.125 2.203125 -3.1875 Z M 2.203125 -3.1875 "/></g></g><g style="fill:#ff914d;fill-opacity:1;"><g transform="translate(141.272794, 184.499988)"><path style="stroke:none" d="M 1.984375 -8.578125 C 1.984375 -10.191406 2.273438 -11.585938 2.859375 -12.765625 C 3.441406 -13.941406 4.253906 -14.910156 5.296875 -15.671875 C 6.347656 -16.441406 7.597656 -17.019531 9.046875 -17.40625 C 10.492188 -17.789062 12.097656 -17.984375 13.859375 -17.984375 C 15.398438 -17.984375 16.71875 -17.875 17.8125 -17.65625 C 18.914062 -17.4375 20.003906 -17.144531 21.078125 -16.78125 L 21.078125 -17.28125 C 21.078125 -20.875 18.96875 -22.671875 14.75 -22.671875 C 13.570312 -22.671875 12.492188 -22.632812 11.515625 -22.5625 C 10.546875 -22.488281 9.695312 -22.25 8.96875 -21.84375 C 8.675781 -21.695312 8.269531 -21.625 7.75 -21.625 C 6.800781 -21.625 5.988281 -21.953125 5.3125 -22.609375 C 4.632812 -23.273438 4.296875 -24.082031 4.296875 -25.03125 C 4.296875 -25.757812 4.503906 -26.414062 4.921875 -27 C 5.347656 -27.59375 5.890625 -28.019531 6.546875 -28.28125 C 7.867188 -28.789062 9.269531 -29.171875 10.75 -29.421875 C 12.238281 -29.679688 13.972656 -29.8125 15.953125 -29.8125 C 20.285156 -29.8125 23.5625 -28.773438 25.78125 -26.703125 C 28 -24.640625 29.109375 -21.441406 29.109375 -17.109375 L 29.109375 -3.6875 C 29.109375 -2.550781 28.710938 -1.597656 27.921875 -0.828125 C 27.128906 -0.0546875 26.164062 0.328125 25.03125 0.328125 C 23.820312 0.328125 22.847656 -0.0234375 22.109375 -0.734375 C 21.378906 -1.453125 21.015625 -2.253906 21.015625 -3.140625 L 21.015625 -3.1875 C 19.984375 -2.050781 18.757812 -1.144531 17.34375 -0.46875 C 15.9375 0.207031 14.191406 0.546875 12.109375 0.546875 C 10.710938 0.546875 9.398438 0.351562 8.171875 -0.03125 C 6.941406 -0.414062 5.867188 -0.992188 4.953125 -1.765625 C 4.035156 -2.535156 3.3125 -3.476562 2.78125 -4.59375 C 2.25 -5.707031 1.984375 -7 1.984375 -8.46875 Z M 10.0625 -8.90625 L 10.0625 -8.796875 C 10.0625 -7.660156 10.484375 -6.78125 11.328125 -6.15625 C 12.171875 -5.53125 13.273438 -5.21875 14.640625 -5.21875 C 16.617188 -5.21875 18.203125 -5.695312 19.390625 -6.65625 C 20.585938 -7.613281 21.1875 -8.859375 21.1875 -10.390625 L 21.1875 -11.890625 C 20.445312 -12.210938 19.628906 -12.472656 18.734375 -12.671875 C 17.835938 -12.878906 16.875 -12.984375 15.84375 -12.984375 C 14.050781 -12.984375 12.640625 -12.632812 11.609375 -11.9375 C 10.578125 -11.238281 10.0625 -10.226562 10.0625 -8.90625 Z M 10.0625 -8.90625 "/></g></g><g style="fill:#ff914d;fill-opacity:1;"><g transform="translate(168.122097, 184.499988)"><path style="stroke:none" d="M 3.734375 -3.84375 L 3.734375 -25.640625 C 3.734375 -26.804688 4.132812 -27.789062 4.9375 -28.59375 C 5.75 -29.40625 6.742188 -29.8125 7.921875 -29.8125 C 9.097656 -29.8125 10.085938 -29.40625 10.890625 -28.59375 C 11.703125 -27.789062 12.109375 -26.804688 12.109375 -25.640625 L 12.109375 -25.3125 C 12.578125 -25.9375 13.097656 -26.53125 13.671875 -27.09375 C 14.242188 -27.664062 14.875 -28.171875 15.5625 -28.609375 C 16.257812 -29.046875 17.039062 -29.390625 17.90625 -29.640625 C 18.769531 -29.898438 19.734375 -30.03125 20.796875 -30.03125 C 24.753906 -30.03125 27.523438 -28.472656 29.109375 -25.359375 C 30.390625 -26.898438 31.816406 -28.0625 33.390625 -28.84375 C 34.972656 -29.632812 36.769531 -30.03125 38.78125 -30.03125 C 41.90625 -30.03125 44.347656 -29.113281 46.109375 -27.28125 C 47.867188 -25.445312 48.75 -22.753906 48.75 -19.203125 L 48.75 -3.84375 C 48.75 -2.675781 48.34375 -1.6875 47.53125 -0.875 C 46.726562 -0.0703125 45.738281 0.328125 44.5625 0.328125 C 43.382812 0.328125 42.390625 -0.0703125 41.578125 -0.875 C 40.773438 -1.6875 40.375 -2.675781 40.375 -3.84375 L 40.375 -16.453125 C 40.375 -18.429688 39.953125 -19.925781 39.109375 -20.9375 C 38.265625 -21.945312 37.054688 -22.453125 35.484375 -22.453125 C 33.910156 -22.453125 32.671875 -21.945312 31.765625 -20.9375 C 30.867188 -19.925781 30.421875 -18.429688 30.421875 -16.453125 L 30.421875 -3.84375 C 30.421875 -2.675781 30.015625 -1.6875 29.203125 -0.875 C 28.398438 -0.0703125 27.414062 0.328125 26.25 0.328125 C 25.070312 0.328125 24.078125 -0.0703125 23.265625 -0.875 C 22.460938 -1.6875 22.0625 -2.675781 22.0625 -3.84375 L 22.0625 -16.453125 C 22.0625 -18.429688 21.640625 -19.925781 20.796875 -20.9375 C 19.953125 -21.945312 18.742188 -22.453125 17.171875 -22.453125 C 15.585938 -22.453125 14.347656 -21.945312 13.453125 -20.9375 C 12.554688 -19.925781 12.109375 -18.429688 12.109375 -16.453125 L 12.109375 -3.84375 C 12.109375 -2.675781 11.703125 -1.6875 10.890625 -0.875 C 10.085938 -0.0703125 9.097656 0.328125 7.921875 0.328125 C 6.742188 0.328125 5.75 -0.0703125 4.9375 -0.875 C 4.132812 -1.6875 3.734375 -2.675781 3.734375 -3.84375 Z M 3.734375 -3.84375 "/></g></g><g style="fill:#ff914d;fill-opacity:1;"><g transform="translate(214.66842, 184.499988)"><path style="stroke:none" d="M 7.921875 -29.8125 C 9.097656 -29.8125 10.085938 -29.40625 10.890625 -28.59375 C 11.703125 -27.789062 12.109375 -26.804688 12.109375 -25.640625 L 12.109375 -25.25 C 13.128906 -26.644531 14.363281 -27.789062 15.8125 -28.6875 C 17.257812 -29.582031 19.085938 -30.03125 21.296875 -30.03125 C 23.015625 -30.03125 24.679688 -29.703125 26.296875 -29.046875 C 27.910156 -28.390625 29.335938 -27.410156 30.578125 -26.109375 C 31.828125 -24.804688 32.828125 -23.207031 33.578125 -21.3125 C 34.335938 -19.425781 34.71875 -17.253906 34.71875 -14.796875 L 34.71875 -14.6875 C 34.71875 -12.226562 34.335938 -10.054688 33.578125 -8.171875 C 32.828125 -6.285156 31.835938 -4.691406 30.609375 -3.390625 C 29.378906 -2.085938 27.957031 -1.101562 26.34375 -0.4375 C 24.738281 0.21875 23.054688 0.546875 21.296875 0.546875 C 19.054688 0.546875 17.210938 0.109375 15.765625 -0.765625 C 14.316406 -1.648438 13.097656 -2.675781 12.109375 -3.84375 L 12.109375 4.953125 C 12.109375 6.128906 11.703125 7.117188 10.890625 7.921875 C 10.085938 8.722656 9.097656 9.125 7.921875 9.125 C 6.742188 9.125 5.75 8.722656 4.9375 7.921875 C 4.132812 7.117188 3.734375 6.128906 3.734375 4.953125 L 3.734375 -25.640625 C 3.734375 -26.804688 4.132812 -27.789062 4.9375 -28.59375 C 5.75 -29.40625 6.742188 -29.8125 7.921875 -29.8125 Z M 12 -14.796875 L 12 -14.6875 C 12 -13.476562 12.191406 -12.367188 12.578125 -11.359375 C 12.960938 -10.347656 13.472656 -9.484375 14.109375 -8.765625 C 14.753906 -8.054688 15.503906 -7.507812 16.359375 -7.125 C 17.222656 -6.738281 18.148438 -6.546875 19.140625 -6.546875 C 20.128906 -6.546875 21.054688 -6.738281 21.921875 -7.125 C 22.785156 -7.507812 23.546875 -8.054688 24.203125 -8.765625 C 24.867188 -9.484375 25.394531 -10.335938 25.78125 -11.328125 C 26.164062 -12.316406 26.359375 -13.4375 26.359375 -14.6875 L 26.359375 -14.796875 C 26.359375 -16.003906 26.164062 -17.113281 25.78125 -18.125 C 25.394531 -19.132812 24.867188 -19.992188 24.203125 -20.703125 C 23.546875 -21.421875 22.785156 -21.972656 21.921875 -22.359375 C 21.054688 -22.742188 20.128906 -22.9375 19.140625 -22.9375 C 18.148438 -22.9375 17.222656 -22.742188 16.359375 -22.359375 C 15.503906 -21.972656 14.753906 -21.421875 14.109375 -20.703125 C 13.472656 -19.992188 12.960938 -19.132812 12.578125 -18.125 C 12.191406 -17.113281 12 -16.003906 12 -14.796875 Z M 12 -14.796875 "/></g></g><g style="fill:#ff914d;fill-opacity:1;"><g transform="translate(246.084349, 184.499988)"><path style="stroke:none" d="M 4.125 -36.3125 C 4.125 -37.488281 4.523438 -38.476562 5.328125 -39.28125 C 6.140625 -40.082031 7.132812 -40.484375 8.3125 -40.484375 C 9.476562 -40.484375 10.460938 -40.082031 11.265625 -39.28125 C 12.078125 -38.476562 12.484375 -37.488281 12.484375 -36.3125 L 12.484375 -3.84375 C 12.484375 -2.675781 12.078125 -1.6875 11.265625 -0.875 C 10.460938 -0.0703125 9.476562 0.328125 8.3125 0.328125 C 7.132812 0.328125 6.140625 -0.0703125 5.328125 -0.875 C 4.523438 -1.6875 4.125 -2.675781 4.125 -3.84375 Z M 4.125 -36.3125 "/></g></g><g style="fill:#ff914d;fill-opacity:1;"><g transform="translate(256.977968, 184.499988)"><path style="stroke:none" d="M 2.3125 -14.6875 C 2.3125 -16.78125 2.664062 -18.757812 3.375 -20.625 C 4.09375 -22.5 5.09375 -24.132812 6.375 -25.53125 C 7.664062 -26.925781 9.207031 -28.023438 11 -28.828125 C 12.800781 -29.628906 14.765625 -30.03125 16.890625 -30.03125 C 19.378906 -30.03125 21.515625 -29.582031 23.296875 -28.6875 C 25.078125 -27.789062 26.546875 -26.644531 27.703125 -25.25 C 28.859375 -23.851562 29.707031 -22.320312 30.25 -20.65625 C 30.800781 -18.988281 31.078125 -17.382812 31.078125 -15.84375 C 31.078125 -14.632812 30.703125 -13.660156 29.953125 -12.921875 C 29.203125 -12.191406 28.273438 -11.828125 27.171875 -11.828125 L 10.625 -11.828125 C 11.019531 -9.921875 11.847656 -8.476562 13.109375 -7.5 C 14.378906 -6.53125 15.953125 -6.046875 17.828125 -6.046875 C 18.992188 -6.046875 20.0625 -6.21875 21.03125 -6.5625 C 22.007812 -6.914062 22.921875 -7.40625 23.765625 -8.03125 C 24.054688 -8.25 24.359375 -8.410156 24.671875 -8.515625 C 24.984375 -8.628906 25.359375 -8.6875 25.796875 -8.6875 C 26.753906 -8.6875 27.535156 -8.375 28.140625 -7.75 C 28.742188 -7.132812 29.046875 -6.347656 29.046875 -5.390625 C 29.046875 -4.835938 28.9375 -4.359375 28.71875 -3.953125 C 28.5 -3.554688 28.242188 -3.210938 27.953125 -2.921875 C 26.660156 -1.816406 25.179688 -0.941406 23.515625 -0.296875 C 21.847656 0.335938 19.914062 0.65625 17.71875 0.65625 C 15.519531 0.65625 13.472656 0.289062 11.578125 -0.4375 C 9.691406 -1.175781 8.0625 -2.222656 6.6875 -3.578125 C 5.3125 -4.929688 4.238281 -6.539062 3.46875 -8.40625 C 2.695312 -10.28125 2.3125 -12.335938 2.3125 -14.578125 Z M 10.515625 -17.0625 L 23.109375 -17.0625 C 22.847656 -18.925781 22.1875 -20.4375 21.125 -21.59375 C 20.0625 -22.75 18.648438 -23.328125 16.890625 -23.328125 C 15.128906 -23.328125 13.707031 -22.757812 12.625 -21.625 C 11.539062 -20.488281 10.835938 -18.96875 10.515625 -17.0625 Z M 10.515625 -17.0625 "/></g></g><g style="fill:#ff914d;fill-opacity:1;"><g transform="translate(135.00347, 227.249985)"><path style="stroke:none" d="M 2.46875 -5.453125 L 15.90625 -35.765625 C 16.375 -36.828125 17.019531 -37.648438 17.84375 -38.234375 C 18.675781 -38.816406 19.675781 -39.109375 20.84375 -39.109375 L 21.34375 -39.109375 C 22.519531 -39.109375 23.507812 -38.816406 24.3125 -38.234375 C 25.125 -37.648438 25.769531 -36.828125 26.25 -35.765625 L 39.671875 -5.453125 C 39.960938 -4.640625 40.109375 -4.066406 40.109375 -3.734375 C 40.109375 -2.597656 39.722656 -1.632812 38.953125 -0.84375 C 38.179688 -0.0625 37.226562 0.328125 36.09375 0.328125 C 35.101562 0.328125 34.273438 0.0625 33.609375 -0.46875 C 32.953125 -1 32.421875 -1.703125 32.015625 -2.578125 L 29.4375 -8.640625 L 12.484375 -8.640625 L 9.796875 -2.3125 C 9.429688 -1.46875 8.90625 -0.816406 8.21875 -0.359375 C 7.539062 0.0976562 6.765625 0.328125 5.890625 0.328125 C 4.785156 0.328125 3.859375 -0.0546875 3.109375 -0.828125 C 2.359375 -1.597656 1.984375 -2.53125 1.984375 -3.625 C 1.984375 -3.925781 2.023438 -4.226562 2.109375 -4.53125 C 2.203125 -4.84375 2.320312 -5.148438 2.46875 -5.453125 Z M 15.625 -16.125 L 26.296875 -16.125 L 20.953125 -28.828125 Z M 15.625 -16.125 "/></g></g><g style="fill:#ff914d;fill-opacity:1;"><g transform="translate(171.426189, 227.249985)"><path style="stroke:none" d="M 7.921875 -29.8125 C 9.097656 -29.8125 10.085938 -29.40625 10.890625 -28.59375 C 11.703125 -27.789062 12.109375 -26.804688 12.109375 -25.640625 L 12.109375 -25.25 C 13.128906 -26.644531 14.363281 -27.789062 15.8125 -28.6875 C 17.257812 -29.582031 19.085938 -30.03125 21.296875 -30.03125 C 23.015625 -30.03125 24.679688 -29.703125 26.296875 -29.046875 C 27.910156 -28.390625 29.335938 -27.410156 30.578125 -26.109375 C 31.828125 -24.804688 32.828125 -23.207031 33.578125 -21.3125 C 34.335938 -19.425781 34.71875 -17.253906 34.71875 -14.796875 L 34.71875 -14.6875 C 34.71875 -12.226562 34.335938 -10.054688 33.578125 -8.171875 C 32.828125 -6.285156 31.835938 -4.691406 30.609375 -3.390625 C 29.378906 -2.085938 27.957031 -1.101562 26.34375 -0.4375 C 24.738281 0.21875 23.054688 0.546875 21.296875 0.546875 C 19.054688 0.546875 17.210938 0.109375 15.765625 -0.765625 C 14.316406 -1.648438 13.097656 -2.675781 12.109375 -3.84375 L 12.109375 4.953125 C 12.109375 6.128906 11.703125 7.117188 10.890625 7.921875 C 10.085938 8.722656 9.097656 9.125 7.921875 9.125 C 6.742188 9.125 5.75 8.722656 4.9375 7.921875 C 4.132812 7.117188 3.734375 6.128906 3.734375 4.953125 L 3.734375 -25.640625 C 3.734375 -26.804688 4.132812 -27.789062 4.9375 -28.59375 C 5.75 -29.40625 6.742188 -29.8125 7.921875 -29.8125 Z M 12 -14.796875 L 12 -14.6875 C 12 -13.476562 12.191406 -12.367188 12.578125 -11.359375 C 12.960938 -10.347656 13.472656 -9.484375 14.109375 -8.765625 C 14.753906 -8.054688 15.503906 -7.507812 16.359375 -7.125 C 17.222656 -6.738281 18.148438 -6.546875 19.140625 -6.546875 C 20.128906 -6.546875 21.054688 -6.738281 21.921875 -7.125 C 22.785156 -7.507812 23.546875 -8.054688 24.203125 -8.765625 C 24.867188 -9.484375 25.394531 -10.335938 25.78125 -11.328125 C 26.164062 -12.316406 26.359375 -13.4375 26.359375 -14.6875 L 26.359375 -14.796875 C 26.359375 -16.003906 26.164062 -17.113281 25.78125 -18.125 C 25.394531 -19.132812 24.867188 -19.992188 24.203125 -20.703125 C 23.546875 -21.421875 22.785156 -21.972656 21.921875 -22.359375 C 21.054688 -22.742188 20.128906 -22.9375 19.140625 -22.9375 C 18.148438 -22.9375 17.222656 -22.742188 16.359375 -22.359375 C 15.503906 -21.972656 14.753906 -21.421875 14.109375 -20.703125 C 13.472656 -19.992188 12.960938 -19.132812 12.578125 -18.125 C 12.191406 -17.113281 12 -16.003906 12 -14.796875 Z M 12 -14.796875 "/></g></g><g style="fill:#ff914d;fill-opacity:1;"><g transform="translate(202.842119, 227.249985)"><path style="stroke:none" d="M 7.921875 -29.8125 C 9.097656 -29.8125 10.085938 -29.40625 10.890625 -28.59375 C 11.703125 -27.789062 12.109375 -26.804688 12.109375 -25.640625 L 12.109375 -25.25 C 13.128906 -26.644531 14.363281 -27.789062 15.8125 -28.6875 C 17.257812 -29.582031 19.085938 -30.03125 21.296875 -30.03125 C 23.015625 -30.03125 24.679688 -29.703125 26.296875 -29.046875 C 27.910156 -28.390625 29.335938 -27.410156 30.578125 -26.109375 C 31.828125 -24.804688 32.828125 -23.207031 33.578125 -21.3125 C 34.335938 -19.425781 34.71875 -17.253906 34.71875 -14.796875 L 34.71875 -14.6875 C 34.71875 -12.226562 34.335938 -10.054688 33.578125 -8.171875 C 32.828125 -6.285156 31.835938 -4.691406 30.609375 -3.390625 C 29.378906 -2.085938 27.957031 -1.101562 26.34375 -0.4375 C 24.738281 0.21875 23.054688 0.546875 21.296875 0.546875 C 19.054688 0.546875 17.210938 0.109375 15.765625 -0.765625 C 14.316406 -1.648438 13.097656 -2.675781 12.109375 -3.84375 L 12.109375 4.953125 C 12.109375 6.128906 11.703125 7.117188 10.890625 7.921875 C 10.085938 8.722656 9.097656 9.125 7.921875 9.125 C 6.742188 9.125 5.75 8.722656 4.9375 7.921875 C 4.132812 7.117188 3.734375 6.128906 3.734375 4.953125 L 3.734375 -25.640625 C 3.734375 -26.804688 4.132812 -27.789062 4.9375 -28.59375 C 5.75 -29.40625 6.742188 -29.8125 7.921875 -29.8125 Z M 12 -14.796875 L 12 -14.6875 C 12 -13.476562 12.191406 -12.367188 12.578125 -11.359375 C 12.960938 -10.347656 13.472656 -9.484375 14.109375 -8.765625 C 14.753906 -8.054688 15.503906 -7.507812 16.359375 -7.125 C 17.222656 -6.738281 18.148438 -6.546875 19.140625 -6.546875 C 20.128906 -6.546875 21.054688 -6.738281 21.921875 -7.125 C 22.785156 -7.507812 23.546875 -8.054688 24.203125 -8.765625 C 24.867188 -9.484375 25.394531 -10.335938 25.78125 -11.328125 C 26.164062 -12.316406 26.359375 -13.4375 26.359375 -14.6875 L 26.359375 -14.796875 C 26.359375 -16.003906 26.164062 -17.113281 25.78125 -18.125 C 25.394531 -19.132812 24.867188 -19.992188 24.203125 -20.703125 C 23.546875 -21.421875 22.785156 -21.972656 21.921875 -22.359375 C 21.054688 -22.742188 20.128906 -22.9375 19.140625 -22.9375 C 18.148438 -22.9375 17.222656 -22.742188 16.359375 -22.359375 C 15.503906 -21.972656 14.753906 -21.421875 14.109375 -20.703125 C 13.472656 -19.992188 12.960938 -19.132812 12.578125 -18.125 C 12.191406 -17.113281 12 -16.003906 12 -14.796875 Z M 12 -14.796875 "/></g></g><g clip-rule="nonzero" clip-path="url(#c930f44a07)"><path style=" stroke:none;fill-rule:evenodd;fill:#f3be4a;fill-opacity:1;" d="M 258.203125 245.992188 C 258.203125 245.992188 257.492188 248.402344 256.714844 249.179688 C 255.9375 249.960938 253.53125 250.671875 253.53125 250.671875 C 253.53125 250.671875 255.9375 251.382812 256.714844 252.164062 C 257.492188 252.945312 258.203125 255.351562 258.203125 255.351562 C 258.203125 255.351562 258.914062 252.945312 259.691406 252.164062 C 260.472656 251.382812 262.878906 250.671875 262.878906 250.671875 C 262.878906 250.671875 260.472656 249.960938 259.691406 249.179688 C 258.914062 248.402344 258.203125 245.992188 258.203125 245.992188 Z M 237.714844 245.730469 C 237.714844 245.730469 236.640625 249.382812 235.457031 250.566406 C 234.277344 251.75 230.628906 252.828125 230.628906 252.828125 C 230.628906 252.828125 234.277344 253.910156 235.457031 255.09375 C 236.640625 256.277344 237.714844 259.929688 237.714844 259.929688 C 237.714844 259.929688 238.792969 256.277344 239.976562 255.09375 C 241.15625 253.910156 244.804688 252.828125 244.804688 252.828125 C 244.804688 252.828125 241.15625 251.75 239.976562 250.566406 C 238.792969 249.382812 237.714844 245.730469 237.714844 245.730469 Z M 248.585938 226.945312 C 248.585938 226.945312 246.933594 232.546875 245.121094 234.363281 C 243.3125 236.179688 237.714844 237.832031 237.714844 237.832031 C 237.714844 237.832031 243.3125 239.488281 245.121094 241.304688 C 246.933594 243.117188 248.585938 248.722656 248.585938 248.722656 C 248.585938 248.722656 250.238281 243.117188 252.050781 241.304688 C 253.863281 239.488281 259.457031 237.832031 259.457031 237.832031 C 259.457031 237.832031 253.863281 236.179688 252.050781 234.363281 C 250.238281 232.546875 248.585938 226.945312 248.585938 226.945312 "/></g></g></svg>