<svg xmlns="http://www.w3.org/2000/svg" xmlns:xlink="http://www.w3.org/1999/xlink" width="300" zoomAndPan="magnify" viewBox="0 0 224.87999 44.999999" height="60" preserveAspectRatio="xMidYMid meet" version="1.2"><defs><clipPath id="d331d8531d"><path d="M 0 0.0117188 L 224.761719 0.0117188 L 224.761719 44.988281 L 0 44.988281 Z M 0 0.0117188 "/></clipPath><clipPath id="e2bca9dd14"><path d="M 3.339844 0.0117188 L 221.542969 0.0117188 C 222.425781 0.0117188 223.277344 0.363281 223.902344 0.992188 C 224.527344 1.617188 224.878906 2.464844 224.878906 3.351562 L 224.878906 42.398438 C 224.878906 43.285156 224.527344 44.132812 223.902344 44.761719 C 223.277344 45.386719 222.425781 45.738281 221.542969 45.738281 L 3.339844 45.738281 C 2.453125 45.738281 1.605469 45.386719 0.976562 44.761719 C 0.351562 44.132812 0 43.285156 0 42.398438 L 0 3.351562 C 0 2.464844 0.351562 1.617188 0.976562 0.992188 C 1.605469 0.363281 2.453125 0.0117188 3.339844 0.0117188 Z M 3.339844 0.0117188 "/></clipPath><clipPath id="5b21fcbba0"><path d="M 199.5 21.742188 L 218.238281 21.742188 L 218.238281 40.484375 L 199.5 40.484375 Z M 199.5 21.742188 "/></clipPath></defs><g id="2420f3e61a"><g clip-rule="nonzero" clip-path="url(#d331d8531d)"><g clip-rule="nonzero" clip-path="url(#e2bca9dd14)"><path style=" stroke:none;fill-rule:nonzero;fill:#ffffff;fill-opacity:1;" d="M 0 0.0117188 L 224.878906 0.0117188 L 224.878906 45.738281 L 0 45.738281 Z M 0 0.0117188 "/></g></g><g style="fill:#ff914d;fill-opacity:1;"><g transform="translate(8.439276, 32.458797)"><path style="stroke:none" d="M 2.84375 -2.59375 L 2.84375 -21.046875 C 2.84375 -21.765625 3.09375 -22.375 3.59375 -22.875 C 4.101562 -23.382812 4.71875 -23.640625 5.4375 -23.640625 L 18.546875 -23.640625 C 19.203125 -23.640625 19.753906 -23.414062 20.203125 -22.96875 C 20.648438 -22.519531 20.875 -21.96875 20.875 -21.3125 C 20.875 -20.664062 20.648438 -20.117188 20.203125 -19.671875 C 19.753906 -19.234375 19.203125 -19.015625 18.546875 -19.015625 L 8 -19.015625 L 8 -14.21875 L 17.03125 -14.21875 C 17.675781 -14.21875 18.222656 -13.992188 18.671875 -13.546875 C 19.128906 -13.097656 19.359375 -12.546875 19.359375 -11.890625 C 19.359375 -11.234375 19.128906 -10.6875 18.671875 -10.25 C 18.222656 -9.8125 17.675781 -9.59375 17.03125 -9.59375 L 8 -9.59375 L 8 -4.625 L 18.71875 -4.625 C 19.363281 -4.625 19.910156 -4.398438 20.359375 -3.953125 C 20.816406 -3.503906 21.046875 -2.953125 21.046875 -2.296875 C 21.046875 -1.640625 20.816406 -1.09375 20.359375 -0.65625 C 19.910156 -0.21875 19.363281 0 18.71875 0 L 5.4375 0 C 4.71875 0 4.101562 -0.25 3.59375 -0.75 C 3.09375 -1.257812 2.84375 -1.875 2.84375 -2.59375 Z M 2.84375 -2.59375 "/></g></g><g style="fill:#ff914d;fill-opacity:1;"><g transform="translate(27.551724, 32.458797)"><path style="stroke:none" d="M 1.34375 -1.953125 C 1.34375 -2.316406 1.40625 -2.640625 1.53125 -2.921875 C 1.65625 -3.203125 1.832031 -3.46875 2.0625 -3.71875 L 6.6875 -9.1875 L 2.46875 -14.046875 C 1.90625 -14.679688 1.625 -15.335938 1.625 -16.015625 C 1.625 -16.734375 1.851562 -17.304688 2.3125 -17.734375 C 2.769531 -18.160156 3.328125 -18.375 3.984375 -18.375 C 4.503906 -18.375 4.945312 -18.257812 5.3125 -18.03125 C 5.6875 -17.8125 6.046875 -17.488281 6.390625 -17.0625 L 9.734375 -12.59375 L 13.140625 -17.0625 C 13.453125 -17.445312 13.785156 -17.757812 14.140625 -18 C 14.503906 -18.25 14.914062 -18.375 15.375 -18.375 C 16.050781 -18.375 16.617188 -18.164062 17.078125 -17.75 C 17.535156 -17.332031 17.765625 -16.796875 17.765625 -16.140625 C 17.765625 -15.785156 17.695312 -15.46875 17.5625 -15.1875 C 17.425781 -14.90625 17.257812 -14.640625 17.0625 -14.390625 L 12.671875 -9.25 L 17.1875 -4.046875 C 17.757812 -3.421875 18.046875 -2.769531 18.046875 -2.09375 C 18.046875 -1.375 17.8125 -0.800781 17.34375 -0.375 C 16.882812 0.0507812 16.328125 0.265625 15.671875 0.265625 C 15.148438 0.265625 14.695312 0.15625 14.3125 -0.0625 C 13.9375 -0.289062 13.59375 -0.617188 13.28125 -1.046875 L 9.625 -5.84375 L 5.984375 -1.046875 C 5.660156 -0.660156 5.316406 -0.34375 4.953125 -0.09375 C 4.597656 0.144531 4.195312 0.265625 3.75 0.265625 C 3.070312 0.265625 2.5 0.0546875 2.03125 -0.359375 C 1.570312 -0.773438 1.34375 -1.304688 1.34375 -1.953125 Z M 1.34375 -1.953125 "/></g></g><g style="fill:#ff914d;fill-opacity:1;"><g transform="translate(43.422343, 32.458797)"><path style="stroke:none" d="M 1.21875 -5.265625 C 1.21875 -6.253906 1.394531 -7.109375 1.75 -7.828125 C 2.113281 -8.554688 2.613281 -9.15625 3.25 -9.625 C 3.894531 -10.101562 4.660156 -10.457031 5.546875 -10.6875 C 6.441406 -10.925781 7.429688 -11.046875 8.515625 -11.046875 C 9.460938 -11.046875 10.269531 -10.976562 10.9375 -10.84375 C 11.613281 -10.707031 12.28125 -10.523438 12.9375 -10.296875 L 12.9375 -10.609375 C 12.9375 -12.816406 11.640625 -13.921875 9.046875 -13.921875 C 8.328125 -13.921875 7.671875 -13.894531 7.078125 -13.84375 C 6.484375 -13.800781 5.957031 -13.65625 5.5 -13.40625 C 5.320312 -13.320312 5.078125 -13.28125 4.765625 -13.28125 C 4.179688 -13.28125 3.679688 -13.476562 3.265625 -13.875 C 2.847656 -14.28125 2.640625 -14.78125 2.640625 -15.375 C 2.640625 -15.820312 2.765625 -16.222656 3.015625 -16.578125 C 3.273438 -16.941406 3.609375 -17.203125 4.015625 -17.359375 C 4.828125 -17.679688 5.6875 -17.921875 6.59375 -18.078125 C 7.507812 -18.234375 8.578125 -18.3125 9.796875 -18.3125 C 12.453125 -18.3125 14.460938 -17.671875 15.828125 -16.390625 C 17.191406 -15.117188 17.875 -13.15625 17.875 -10.5 L 17.875 -2.265625 C 17.875 -1.566406 17.628906 -0.976562 17.140625 -0.5 C 16.660156 -0.03125 16.070312 0.203125 15.375 0.203125 C 14.625 0.203125 14.023438 -0.015625 13.578125 -0.453125 C 13.128906 -0.890625 12.90625 -1.378906 12.90625 -1.921875 L 12.90625 -1.953125 C 12.269531 -1.253906 11.519531 -0.695312 10.65625 -0.28125 C 9.789062 0.132812 8.71875 0.34375 7.4375 0.34375 C 6.570312 0.34375 5.765625 0.222656 5.015625 -0.015625 C 4.265625 -0.253906 3.609375 -0.609375 3.046875 -1.078125 C 2.484375 -1.554688 2.035156 -2.132812 1.703125 -2.8125 C 1.378906 -3.5 1.21875 -4.296875 1.21875 -5.203125 Z M 6.1875 -5.46875 L 6.1875 -5.40625 C 6.1875 -4.707031 6.441406 -4.164062 6.953125 -3.78125 C 7.472656 -3.394531 8.148438 -3.203125 8.984375 -3.203125 C 10.203125 -3.203125 11.175781 -3.492188 11.90625 -4.078125 C 12.632812 -4.671875 13 -5.441406 13 -6.390625 L 13 -7.296875 C 12.550781 -7.492188 12.050781 -7.65625 11.5 -7.78125 C 10.945312 -7.90625 10.359375 -7.96875 9.734375 -7.96875 C 8.628906 -7.96875 7.757812 -7.753906 7.125 -7.328125 C 6.5 -6.898438 6.1875 -6.28125 6.1875 -5.46875 Z M 6.1875 -5.46875 "/></g></g><g style="fill:#ff914d;fill-opacity:1;"><g transform="translate(59.900802, 32.458797)"><path style="stroke:none" d="M 2.296875 -2.359375 L 2.296875 -15.734375 C 2.296875 -16.460938 2.539062 -17.070312 3.03125 -17.5625 C 3.53125 -18.0625 4.140625 -18.3125 4.859375 -18.3125 C 5.585938 -18.3125 6.195312 -18.0625 6.6875 -17.5625 C 7.1875 -17.070312 7.4375 -16.460938 7.4375 -15.734375 L 7.4375 -15.546875 C 7.726562 -15.921875 8.046875 -16.28125 8.390625 -16.625 C 8.742188 -16.976562 9.132812 -17.289062 9.5625 -17.5625 C 9.988281 -17.832031 10.46875 -18.046875 11 -18.203125 C 11.53125 -18.359375 12.117188 -18.4375 12.765625 -18.4375 C 15.203125 -18.4375 16.90625 -17.484375 17.875 -15.578125 C 18.65625 -16.515625 19.53125 -17.222656 20.5 -17.703125 C 21.46875 -18.191406 22.570312 -18.4375 23.8125 -18.4375 C 25.726562 -18.4375 27.226562 -17.875 28.3125 -16.75 C 29.394531 -15.625 29.9375 -13.972656 29.9375 -11.796875 L 29.9375 -2.359375 C 29.9375 -1.640625 29.6875 -1.03125 29.1875 -0.53125 C 28.6875 -0.0390625 28.078125 0.203125 27.359375 0.203125 C 26.640625 0.203125 26.03125 -0.0390625 25.53125 -0.53125 C 25.039062 -1.03125 24.796875 -1.640625 24.796875 -2.359375 L 24.796875 -10.09375 C 24.796875 -11.3125 24.535156 -12.226562 24.015625 -12.84375 C 23.492188 -13.46875 22.75 -13.78125 21.78125 -13.78125 C 20.820312 -13.78125 20.066406 -13.46875 19.515625 -12.84375 C 18.960938 -12.226562 18.6875 -11.3125 18.6875 -10.09375 L 18.6875 -2.359375 C 18.6875 -1.640625 18.4375 -1.03125 17.9375 -0.53125 C 17.4375 -0.0390625 16.828125 0.203125 16.109375 0.203125 C 15.390625 0.203125 14.78125 -0.0390625 14.28125 -0.53125 C 13.789062 -1.03125 13.546875 -1.640625 13.546875 -2.359375 L 13.546875 -10.09375 C 13.546875 -11.3125 13.285156 -12.226562 12.765625 -12.84375 C 12.253906 -13.46875 11.515625 -13.78125 10.546875 -13.78125 C 9.578125 -13.78125 8.816406 -13.46875 8.265625 -12.84375 C 7.710938 -12.226562 7.4375 -11.3125 7.4375 -10.09375 L 7.4375 -2.359375 C 7.4375 -1.640625 7.1875 -1.03125 6.6875 -0.53125 C 6.195312 -0.0390625 5.585938 0.203125 4.859375 0.203125 C 4.140625 0.203125 3.53125 -0.0390625 3.03125 -0.53125 C 2.539062 -1.03125 2.296875 -1.640625 2.296875 -2.359375 Z M 2.296875 -2.359375 "/></g></g><g style="fill:#ff914d;fill-opacity:1;"><g transform="translate(88.468579, 32.458797)"><path style="stroke:none" d="M 4.859375 -18.3125 C 5.585938 -18.3125 6.195312 -18.0625 6.6875 -17.5625 C 7.1875 -17.070312 7.4375 -16.460938 7.4375 -15.734375 L 7.4375 -15.5 C 8.0625 -16.363281 8.816406 -17.066406 9.703125 -17.609375 C 10.597656 -18.160156 11.722656 -18.4375 13.078125 -18.4375 C 14.128906 -18.4375 15.148438 -18.234375 16.140625 -17.828125 C 17.140625 -17.429688 18.019531 -16.832031 18.78125 -16.03125 C 19.550781 -15.226562 20.164062 -14.242188 20.625 -13.078125 C 21.082031 -11.921875 21.3125 -10.59375 21.3125 -9.09375 L 21.3125 -9.015625 C 21.3125 -7.503906 21.082031 -6.171875 20.625 -5.015625 C 20.164062 -3.859375 19.554688 -2.878906 18.796875 -2.078125 C 18.046875 -1.273438 17.171875 -0.671875 16.171875 -0.265625 C 15.179688 0.140625 14.148438 0.34375 13.078125 0.34375 C 11.703125 0.34375 10.566406 0.0703125 9.671875 -0.46875 C 8.785156 -1.007812 8.039062 -1.640625 7.4375 -2.359375 L 7.4375 3.046875 C 7.4375 3.765625 7.1875 4.367188 6.6875 4.859375 C 6.195312 5.359375 5.585938 5.609375 4.859375 5.609375 C 4.140625 5.609375 3.53125 5.359375 3.03125 4.859375 C 2.539062 4.367188 2.296875 3.765625 2.296875 3.046875 L 2.296875 -15.734375 C 2.296875 -16.460938 2.539062 -17.070312 3.03125 -17.5625 C 3.53125 -18.0625 4.140625 -18.3125 4.859375 -18.3125 Z M 7.359375 -9.09375 L 7.359375 -9.015625 C 7.359375 -8.273438 7.476562 -7.59375 7.71875 -6.96875 C 7.957031 -6.351562 8.269531 -5.828125 8.65625 -5.390625 C 9.050781 -4.953125 9.515625 -4.613281 10.046875 -4.375 C 10.578125 -4.132812 11.144531 -4.015625 11.75 -4.015625 C 12.363281 -4.015625 12.929688 -4.132812 13.453125 -4.375 C 13.984375 -4.613281 14.453125 -4.953125 14.859375 -5.390625 C 15.265625 -5.828125 15.585938 -6.347656 15.828125 -6.953125 C 16.066406 -7.566406 16.1875 -8.253906 16.1875 -9.015625 L 16.1875 -9.09375 C 16.1875 -9.832031 16.066406 -10.507812 15.828125 -11.125 C 15.585938 -11.75 15.265625 -12.28125 14.859375 -12.71875 C 14.453125 -13.15625 13.984375 -13.492188 13.453125 -13.734375 C 12.929688 -13.972656 12.363281 -14.09375 11.75 -14.09375 C 11.144531 -14.09375 10.578125 -13.972656 10.046875 -13.734375 C 9.515625 -13.492188 9.050781 -13.15625 8.65625 -12.71875 C 8.269531 -12.28125 7.957031 -11.75 7.71875 -11.125 C 7.476562 -10.507812 7.359375 -9.832031 7.359375 -9.09375 Z M 7.359375 -9.09375 "/></g></g><g style="fill:#ff914d;fill-opacity:1;"><g transform="translate(107.749873, 32.458797)"><path style="stroke:none" d="M 2.53125 -22.296875 C 2.53125 -23.015625 2.773438 -23.617188 3.265625 -24.109375 C 3.765625 -24.609375 4.375 -24.859375 5.09375 -24.859375 C 5.820312 -24.859375 6.429688 -24.609375 6.921875 -24.109375 C 7.421875 -23.617188 7.671875 -23.015625 7.671875 -22.296875 L 7.671875 -2.359375 C 7.671875 -1.640625 7.421875 -1.03125 6.921875 -0.53125 C 6.429688 -0.0390625 5.820312 0.203125 5.09375 0.203125 C 4.375 0.203125 3.765625 -0.0390625 3.265625 -0.53125 C 2.773438 -1.03125 2.53125 -1.640625 2.53125 -2.359375 Z M 2.53125 -22.296875 "/></g></g><g style="fill:#ff914d;fill-opacity:1;"><g transform="translate(114.435311, 32.458797)"><path style="stroke:none" d="M 1.421875 -9.015625 C 1.421875 -10.296875 1.640625 -11.507812 2.078125 -12.65625 C 2.515625 -13.8125 3.125 -14.816406 3.90625 -15.671875 C 4.695312 -16.523438 5.644531 -17.195312 6.75 -17.6875 C 7.851562 -18.1875 9.0625 -18.4375 10.375 -18.4375 C 11.90625 -18.4375 13.210938 -18.160156 14.296875 -17.609375 C 15.390625 -17.066406 16.289062 -16.363281 17 -15.5 C 17.71875 -14.644531 18.242188 -13.703125 18.578125 -12.671875 C 18.921875 -11.648438 19.09375 -10.671875 19.09375 -9.734375 C 19.09375 -8.984375 18.859375 -8.382812 18.390625 -7.9375 C 17.929688 -7.488281 17.363281 -7.265625 16.6875 -7.265625 L 6.515625 -7.265625 C 6.765625 -6.085938 7.273438 -5.203125 8.046875 -4.609375 C 8.828125 -4.015625 9.789062 -3.71875 10.9375 -3.71875 C 11.664062 -3.71875 12.328125 -3.820312 12.921875 -4.03125 C 13.515625 -4.25 14.070312 -4.550781 14.59375 -4.9375 C 14.769531 -5.070312 14.953125 -5.171875 15.140625 -5.234375 C 15.335938 -5.304688 15.570312 -5.34375 15.84375 -5.34375 C 16.425781 -5.34375 16.90625 -5.148438 17.28125 -4.765625 C 17.65625 -4.378906 17.84375 -3.894531 17.84375 -3.3125 C 17.84375 -2.96875 17.773438 -2.671875 17.640625 -2.421875 C 17.503906 -2.179688 17.34375 -1.972656 17.15625 -1.796875 C 16.375 -1.117188 15.46875 -0.582031 14.4375 -0.1875 C 13.414062 0.207031 12.226562 0.40625 10.875 0.40625 C 9.519531 0.40625 8.265625 0.179688 7.109375 -0.265625 C 5.953125 -0.722656 4.953125 -1.367188 4.109375 -2.203125 C 3.265625 -3.035156 2.601562 -4.023438 2.125 -5.171875 C 1.65625 -6.316406 1.421875 -7.578125 1.421875 -8.953125 Z M 6.453125 -10.46875 L 14.1875 -10.46875 C 14.03125 -11.613281 13.625 -12.539062 12.96875 -13.25 C 12.320312 -13.96875 11.457031 -14.328125 10.375 -14.328125 C 9.289062 -14.328125 8.414062 -13.976562 7.75 -13.28125 C 7.082031 -12.582031 6.648438 -11.644531 6.453125 -10.46875 Z M 6.453125 -10.46875 "/></g></g><g style="fill:#ff914d;fill-opacity:1;"><g transform="translate(131.622921, 32.458797)"><path style="stroke:none" d="M 1.515625 -3.34375 L 9.765625 -21.953125 C 10.054688 -22.609375 10.453125 -23.113281 10.953125 -23.46875 C 11.460938 -23.832031 12.078125 -24.015625 12.796875 -24.015625 L 13.109375 -24.015625 C 13.828125 -24.015625 14.429688 -23.832031 14.921875 -23.46875 C 15.421875 -23.113281 15.816406 -22.609375 16.109375 -21.953125 L 24.359375 -3.34375 C 24.535156 -2.84375 24.625 -2.492188 24.625 -2.296875 C 24.625 -1.597656 24.382812 -1.003906 23.90625 -0.515625 C 23.4375 -0.0351562 22.851562 0.203125 22.15625 0.203125 C 21.550781 0.203125 21.046875 0.0390625 20.640625 -0.28125 C 20.234375 -0.613281 19.90625 -1.050781 19.65625 -1.59375 L 18.078125 -5.296875 L 7.671875 -5.296875 L 6.015625 -1.421875 C 5.785156 -0.898438 5.460938 -0.5 5.046875 -0.21875 C 4.628906 0.0625 4.148438 0.203125 3.609375 0.203125 C 2.929688 0.203125 2.363281 -0.03125 1.90625 -0.5 C 1.445312 -0.976562 1.21875 -1.554688 1.21875 -2.234375 C 1.21875 -2.410156 1.242188 -2.59375 1.296875 -2.78125 C 1.359375 -2.976562 1.429688 -3.164062 1.515625 -3.34375 Z M 9.59375 -9.890625 L 16.140625 -9.890625 L 12.875 -17.703125 Z M 9.59375 -9.890625 "/></g></g><g style="fill:#ff914d;fill-opacity:1;"><g transform="translate(153.977198, 32.458797)"><path style="stroke:none" d="M 4.859375 -18.3125 C 5.585938 -18.3125 6.195312 -18.0625 6.6875 -17.5625 C 7.1875 -17.070312 7.4375 -16.460938 7.4375 -15.734375 L 7.4375 -15.5 C 8.0625 -16.363281 8.816406 -17.066406 9.703125 -17.609375 C 10.597656 -18.160156 11.722656 -18.4375 13.078125 -18.4375 C 14.128906 -18.4375 15.148438 -18.234375 16.140625 -17.828125 C 17.140625 -17.429688 18.019531 -16.832031 18.78125 -16.03125 C 19.550781 -15.226562 20.164062 -14.242188 20.625 -13.078125 C 21.082031 -11.921875 21.3125 -10.59375 21.3125 -9.09375 L 21.3125 -9.015625 C 21.3125 -7.503906 21.082031 -6.171875 20.625 -5.015625 C 20.164062 -3.859375 19.554688 -2.878906 18.796875 -2.078125 C 18.046875 -1.273438 17.171875 -0.671875 16.171875 -0.265625 C 15.179688 0.140625 14.148438 0.34375 13.078125 0.34375 C 11.703125 0.34375 10.566406 0.0703125 9.671875 -0.46875 C 8.785156 -1.007812 8.039062 -1.640625 7.4375 -2.359375 L 7.4375 3.046875 C 7.4375 3.765625 7.1875 4.367188 6.6875 4.859375 C 6.195312 5.359375 5.585938 5.609375 4.859375 5.609375 C 4.140625 5.609375 3.53125 5.359375 3.03125 4.859375 C 2.539062 4.367188 2.296875 3.765625 2.296875 3.046875 L 2.296875 -15.734375 C 2.296875 -16.460938 2.539062 -17.070312 3.03125 -17.5625 C 3.53125 -18.0625 4.140625 -18.3125 4.859375 -18.3125 Z M 7.359375 -9.09375 L 7.359375 -9.015625 C 7.359375 -8.273438 7.476562 -7.59375 7.71875 -6.96875 C 7.957031 -6.351562 8.269531 -5.828125 8.65625 -5.390625 C 9.050781 -4.953125 9.515625 -4.613281 10.046875 -4.375 C 10.578125 -4.132812 11.144531 -4.015625 11.75 -4.015625 C 12.363281 -4.015625 12.929688 -4.132812 13.453125 -4.375 C 13.984375 -4.613281 14.453125 -4.953125 14.859375 -5.390625 C 15.265625 -5.828125 15.585938 -6.347656 15.828125 -6.953125 C 16.066406 -7.566406 16.1875 -8.253906 16.1875 -9.015625 L 16.1875 -9.09375 C 16.1875 -9.832031 16.066406 -10.507812 15.828125 -11.125 C 15.585938 -11.75 15.265625 -12.28125 14.859375 -12.71875 C 14.453125 -13.15625 13.984375 -13.492188 13.453125 -13.734375 C 12.929688 -13.972656 12.363281 -14.09375 11.75 -14.09375 C 11.144531 -14.09375 10.578125 -13.972656 10.046875 -13.734375 C 9.515625 -13.492188 9.050781 -13.15625 8.65625 -12.71875 C 8.269531 -12.28125 7.957031 -11.75 7.71875 -11.125 C 7.476562 -10.507812 7.359375 -9.832031 7.359375 -9.09375 Z M 7.359375 -9.09375 "/></g></g><g style="fill:#ff914d;fill-opacity:1;"><g transform="translate(173.258483, 32.458797)"><path style="stroke:none" d="M 4.859375 -18.3125 C 5.585938 -18.3125 6.195312 -18.0625 6.6875 -17.5625 C 7.1875 -17.070312 7.4375 -16.460938 7.4375 -15.734375 L 7.4375 -15.5 C 8.0625 -16.363281 8.816406 -17.066406 9.703125 -17.609375 C 10.597656 -18.160156 11.722656 -18.4375 13.078125 -18.4375 C 14.128906 -18.4375 15.148438 -18.234375 16.140625 -17.828125 C 17.140625 -17.429688 18.019531 -16.832031 18.78125 -16.03125 C 19.550781 -15.226562 20.164062 -14.242188 20.625 -13.078125 C 21.082031 -11.921875 21.3125 -10.59375 21.3125 -9.09375 L 21.3125 -9.015625 C 21.3125 -7.503906 21.082031 -6.171875 20.625 -5.015625 C 20.164062 -3.859375 19.554688 -2.878906 18.796875 -2.078125 C 18.046875 -1.273438 17.171875 -0.671875 16.171875 -0.265625 C 15.179688 0.140625 14.148438 0.34375 13.078125 0.34375 C 11.703125 0.34375 10.566406 0.0703125 9.671875 -0.46875 C 8.785156 -1.007812 8.039062 -1.640625 7.4375 -2.359375 L 7.4375 3.046875 C 7.4375 3.765625 7.1875 4.367188 6.6875 4.859375 C 6.195312 5.359375 5.585938 5.609375 4.859375 5.609375 C 4.140625 5.609375 3.53125 5.359375 3.03125 4.859375 C 2.539062 4.367188 2.296875 3.765625 2.296875 3.046875 L 2.296875 -15.734375 C 2.296875 -16.460938 2.539062 -17.070312 3.03125 -17.5625 C 3.53125 -18.0625 4.140625 -18.3125 4.859375 -18.3125 Z M 7.359375 -9.09375 L 7.359375 -9.015625 C 7.359375 -8.273438 7.476562 -7.59375 7.71875 -6.96875 C 7.957031 -6.351562 8.269531 -5.828125 8.65625 -5.390625 C 9.050781 -4.953125 9.515625 -4.613281 10.046875 -4.375 C 10.578125 -4.132812 11.144531 -4.015625 11.75 -4.015625 C 12.363281 -4.015625 12.929688 -4.132812 13.453125 -4.375 C 13.984375 -4.613281 14.453125 -4.953125 14.859375 -5.390625 C 15.265625 -5.828125 15.585938 -6.347656 15.828125 -6.953125 C 16.066406 -7.566406 16.1875 -8.253906 16.1875 -9.015625 L 16.1875 -9.09375 C 16.1875 -9.832031 16.066406 -10.507812 15.828125 -11.125 C 15.585938 -11.75 15.265625 -12.28125 14.859375 -12.71875 C 14.453125 -13.15625 13.984375 -13.492188 13.453125 -13.734375 C 12.929688 -13.972656 12.363281 -14.09375 11.75 -14.09375 C 11.144531 -14.09375 10.578125 -13.972656 10.046875 -13.734375 C 9.515625 -13.492188 9.050781 -13.15625 8.65625 -12.71875 C 8.269531 -12.28125 7.957031 -11.75 7.71875 -11.125 C 7.476562 -10.507812 7.359375 -9.832031 7.359375 -9.09375 Z M 7.359375 -9.09375 "/></g></g><g clip-rule="nonzero" clip-path="url(#5b21fcbba0)"><path style=" stroke:none;fill-rule:evenodd;fill:#f3be4a;fill-opacity:1;" d="M 210.320312 24.460938 C 210.320312 24.460938 211.691406 24.871094 212.132812 25.324219 C 212.578125 25.777344 212.980469 27.175781 212.980469 27.175781 C 212.980469 27.175781 213.382812 25.777344 213.828125 25.324219 C 214.269531 24.871094 215.640625 24.460938 215.640625 24.460938 C 215.640625 24.460938 214.269531 24.046875 213.828125 23.59375 C 213.382812 23.140625 212.980469 21.746094 212.980469 21.746094 C 212.980469 21.746094 212.578125 23.140625 212.132812 23.59375 C 211.691406 24.046875 210.320312 24.460938 210.320312 24.460938 Z M 210.175781 36.363281 C 210.175781 36.363281 212.25 36.992188 212.921875 37.675781 C 213.59375 38.363281 214.207031 40.484375 214.207031 40.484375 C 214.207031 40.484375 214.820312 38.363281 215.492188 37.675781 C 216.164062 36.992188 218.238281 36.363281 218.238281 36.363281 C 218.238281 36.363281 216.164062 35.738281 215.492188 35.050781 C 214.820312 34.367188 214.207031 32.246094 214.207031 32.246094 C 214.207031 32.246094 213.59375 34.367188 212.921875 35.050781 C 212.25 35.738281 210.175781 36.363281 210.175781 36.363281 Z M 199.503906 30.046875 C 199.503906 30.046875 202.683594 31.007812 203.714844 32.0625 C 204.746094 33.113281 205.6875 36.363281 205.6875 36.363281 C 205.6875 36.363281 206.628906 33.113281 207.660156 32.0625 C 208.6875 31.007812 211.871094 30.046875 211.871094 30.046875 C 211.871094 30.046875 208.6875 29.085938 207.660156 28.035156 C 206.628906 26.980469 205.6875 23.730469 205.6875 23.730469 C 205.6875 23.730469 204.746094 26.980469 203.714844 28.035156 C 202.683594 29.085938 199.503906 30.046875 199.503906 30.046875 "/></g></g></svg>