<svg xmlns="http://www.w3.org/2000/svg" xmlns:xlink="http://www.w3.org/1999/xlink" width="500" zoomAndPan="magnify" viewBox="0 0 375 374.999991" height="500" preserveAspectRatio="xMidYMid meet" version="1.2"><defs><clipPath id="113d7d52c5"><path d="M 10.5 0 L 364.5 0 C 370.300781 0 375 4.699219 375 10.5 L 375 364.5 C 375 370.300781 370.300781 375 364.5 375 L 10.5 375 C 4.699219 375 0 370.300781 0 364.5 L 0 10.5 C 0 4.699219 4.699219 0 10.5 0 Z M 10.5 0 "/></clipPath><clipPath id="343dd708b4"><path d="M 245.039062 238.265625 L 289.289062 238.265625 L 289.289062 281.015625 L 245.039062 281.015625 Z M 245.039062 238.265625 "/></clipPath></defs><g id="703092b670"><g clip-rule="nonzero" clip-path="url(#113d7d52c5)"><rect x="0" width="375" y="0" height="374.999991" style="fill:#ffffff;fill-opacity:1;stroke:none;"/></g><g style="fill:#ff914d;fill-opacity:1;"><g transform="translate(48.667169, 180.383475)"><path style="stroke:none" d="M 6.21875 -5.703125 L 6.21875 -46.109375 C 6.21875 -47.679688 6.769531 -49.019531 7.875 -50.125 C 8.988281 -51.238281 10.332031 -51.796875 11.90625 -51.796875 L 40.625 -51.796875 C 42.050781 -51.796875 43.257812 -51.300781 44.25 -50.3125 C 45.238281 -49.332031 45.734375 -48.125 45.734375 -46.6875 C 45.734375 -45.257812 45.238281 -44.0625 44.25 -43.09375 C 43.257812 -42.132812 42.050781 -41.65625 40.625 -41.65625 L 17.53125 -41.65625 L 17.53125 -31.15625 L 37.296875 -31.15625 C 38.722656 -31.15625 39.929688 -30.660156 40.921875 -29.671875 C 41.910156 -28.679688 42.40625 -27.472656 42.40625 -26.046875 C 42.40625 -24.617188 41.910156 -23.421875 40.921875 -22.453125 C 39.929688 -21.492188 38.722656 -21.015625 37.296875 -21.015625 L 17.53125 -21.015625 L 17.53125 -10.140625 L 41 -10.140625 C 42.425781 -10.140625 43.632812 -9.644531 44.625 -8.65625 C 45.613281 -7.664062 46.109375 -6.457031 46.109375 -5.03125 C 46.109375 -3.601562 45.613281 -2.40625 44.625 -1.4375 C 43.632812 -0.476562 42.425781 0 41 0 L 11.90625 0 C 10.332031 0 8.988281 -0.550781 7.875 -1.65625 C 6.769531 -2.769531 6.21875 -4.117188 6.21875 -5.703125 Z M 6.21875 -5.703125 "/></g></g><g style="fill:#ff914d;fill-opacity:1;"><g transform="translate(90.549337, 180.383475)"><path style="stroke:none" d="M 2.953125 -4.296875 C 2.953125 -5.078125 3.085938 -5.773438 3.359375 -6.390625 C 3.640625 -7.015625 4.023438 -7.597656 4.515625 -8.140625 L 14.65625 -20.125 L 5.40625 -30.78125 C 4.164062 -32.164062 3.546875 -33.597656 3.546875 -35.078125 C 3.546875 -36.648438 4.050781 -37.90625 5.0625 -38.84375 C 6.082031 -39.78125 7.304688 -40.25 8.734375 -40.25 C 9.867188 -40.25 10.84375 -40.003906 11.65625 -39.515625 C 12.46875 -39.023438 13.242188 -38.3125 13.984375 -37.375 L 21.3125 -27.609375 L 28.78125 -37.375 C 29.476562 -38.207031 30.21875 -38.894531 31 -39.4375 C 31.789062 -39.976562 32.679688 -40.25 33.671875 -40.25 C 35.148438 -40.25 36.394531 -39.789062 37.40625 -38.875 C 38.414062 -37.96875 38.921875 -36.800781 38.921875 -35.375 C 38.921875 -34.582031 38.769531 -33.878906 38.46875 -33.265625 C 38.175781 -32.648438 37.8125 -32.070312 37.375 -31.53125 L 27.75 -20.28125 L 37.671875 -8.875 C 38.898438 -7.5 39.515625 -6.070312 39.515625 -4.59375 C 39.515625 -3.007812 39.007812 -1.75 38 -0.8125 C 36.988281 0.125 35.769531 0.59375 34.34375 0.59375 C 33.207031 0.59375 32.21875 0.347656 31.375 -0.140625 C 30.539062 -0.640625 29.773438 -1.359375 29.078125 -2.296875 L 21.09375 -12.796875 L 13.09375 -2.296875 C 12.40625 -1.453125 11.664062 -0.757812 10.875 -0.21875 C 10.082031 0.320312 9.195312 0.59375 8.21875 0.59375 C 6.738281 0.59375 5.488281 0.140625 4.46875 -0.765625 C 3.457031 -1.679688 2.953125 -2.859375 2.953125 -4.296875 Z M 2.953125 -4.296875 "/></g></g><g style="fill:#ff914d;fill-opacity:1;"><g transform="translate(125.327755, 180.383475)"><path style="stroke:none" d="M 2.65625 -11.546875 C 2.65625 -13.710938 3.050781 -15.582031 3.84375 -17.15625 C 4.632812 -18.738281 5.734375 -20.046875 7.140625 -21.078125 C 8.546875 -22.117188 10.222656 -22.898438 12.171875 -23.421875 C 14.117188 -23.941406 16.273438 -24.203125 18.640625 -24.203125 C 20.710938 -24.203125 22.488281 -24.050781 23.96875 -23.75 C 25.457031 -23.457031 26.914062 -23.0625 28.34375 -22.5625 L 28.34375 -23.234375 C 28.34375 -28.066406 25.503906 -30.484375 19.828125 -30.484375 C 18.253906 -30.484375 16.8125 -30.429688 15.5 -30.328125 C 14.195312 -30.234375 13.050781 -29.914062 12.0625 -29.375 C 11.664062 -29.175781 11.125 -29.078125 10.4375 -29.078125 C 9.15625 -29.078125 8.054688 -29.519531 7.140625 -30.40625 C 6.222656 -31.300781 5.765625 -32.390625 5.765625 -33.671875 C 5.765625 -34.660156 6.046875 -35.546875 6.609375 -36.328125 C 7.179688 -37.117188 7.914062 -37.6875 8.8125 -38.03125 C 10.582031 -38.726562 12.46875 -39.25 14.46875 -39.59375 C 16.46875 -39.9375 18.796875 -40.109375 21.453125 -40.109375 C 27.273438 -40.109375 31.675781 -38.710938 34.65625 -35.921875 C 37.644531 -33.140625 39.140625 -28.835938 39.140625 -23.015625 L 39.140625 -4.953125 C 39.140625 -3.421875 38.609375 -2.140625 37.546875 -1.109375 C 36.492188 -0.078125 35.203125 0.4375 33.671875 0.4375 C 32.046875 0.4375 30.738281 -0.0390625 29.75 -1 C 28.757812 -1.957031 28.265625 -3.03125 28.265625 -4.21875 L 28.265625 -4.296875 C 26.890625 -2.765625 25.25 -1.539062 23.34375 -0.625 C 21.445312 0.28125 19.09375 0.734375 16.28125 0.734375 C 14.40625 0.734375 12.640625 0.476562 10.984375 -0.03125 C 9.335938 -0.550781 7.894531 -1.328125 6.65625 -2.359375 C 5.425781 -3.398438 4.453125 -4.671875 3.734375 -6.171875 C 3.015625 -7.679688 2.65625 -9.421875 2.65625 -11.390625 Z M 13.546875 -11.984375 L 13.546875 -11.84375 C 13.546875 -10.3125 14.113281 -9.125 15.25 -8.28125 C 16.382812 -7.445312 17.863281 -7.03125 19.6875 -7.03125 C 22.351562 -7.03125 24.484375 -7.671875 26.078125 -8.953125 C 27.679688 -10.234375 28.484375 -11.910156 28.484375 -13.984375 L 28.484375 -15.984375 C 27.503906 -16.429688 26.410156 -16.789062 25.203125 -17.0625 C 23.992188 -17.332031 22.695312 -17.46875 21.3125 -17.46875 C 18.894531 -17.46875 16.992188 -17 15.609375 -16.0625 C 14.234375 -15.125 13.546875 -13.765625 13.546875 -11.984375 Z M 13.546875 -11.984375 "/></g></g><g style="fill:#ff914d;fill-opacity:1;"><g transform="translate(161.438121, 180.383475)"><path style="stroke:none" d="M 5.03125 -5.1875 L 5.03125 -34.484375 C 5.03125 -36.066406 5.570312 -37.398438 6.65625 -38.484375 C 7.738281 -39.566406 9.070312 -40.109375 10.65625 -40.109375 C 12.238281 -40.109375 13.570312 -39.566406 14.65625 -38.484375 C 15.738281 -37.398438 16.28125 -36.066406 16.28125 -34.484375 L 16.28125 -34.046875 C 16.914062 -34.878906 17.613281 -35.675781 18.375 -36.4375 C 19.144531 -37.207031 20 -37.890625 20.9375 -38.484375 C 21.875 -39.078125 22.921875 -39.546875 24.078125 -39.890625 C 25.242188 -40.234375 26.539062 -40.40625 27.96875 -40.40625 C 33.300781 -40.40625 37.023438 -38.304688 39.140625 -34.109375 C 40.867188 -36.179688 42.789062 -37.75 44.90625 -38.8125 C 47.03125 -39.875 49.453125 -40.40625 52.171875 -40.40625 C 56.359375 -40.40625 59.632812 -39.171875 62 -36.703125 C 64.375 -34.234375 65.5625 -30.609375 65.5625 -25.828125 L 65.5625 -5.1875 C 65.5625 -3.601562 65.019531 -2.269531 63.9375 -1.1875 C 62.851562 -0.101562 61.519531 0.4375 59.9375 0.4375 C 58.363281 0.4375 57.03125 -0.101562 55.9375 -1.1875 C 54.851562 -2.269531 54.3125 -3.601562 54.3125 -5.1875 L 54.3125 -22.125 C 54.3125 -24.789062 53.742188 -26.800781 52.609375 -28.15625 C 51.472656 -29.507812 49.847656 -30.1875 47.734375 -30.1875 C 45.609375 -30.1875 43.941406 -29.507812 42.734375 -28.15625 C 41.523438 -26.800781 40.921875 -24.789062 40.921875 -22.125 L 40.921875 -5.1875 C 40.921875 -3.601562 40.378906 -2.269531 39.296875 -1.1875 C 38.210938 -0.101562 36.878906 0.4375 35.296875 0.4375 C 33.722656 0.4375 32.390625 -0.101562 31.296875 -1.1875 C 30.210938 -2.269531 29.671875 -3.601562 29.671875 -5.1875 L 29.671875 -22.125 C 29.671875 -24.789062 29.101562 -26.800781 27.96875 -28.15625 C 26.832031 -29.507812 25.207031 -30.1875 23.09375 -30.1875 C 20.96875 -30.1875 19.300781 -29.507812 18.09375 -28.15625 C 16.882812 -26.800781 16.28125 -24.789062 16.28125 -22.125 L 16.28125 -5.1875 C 16.28125 -3.601562 15.738281 -2.269531 14.65625 -1.1875 C 13.570312 -0.101562 12.238281 0.4375 10.65625 0.4375 C 9.070312 0.4375 7.738281 -0.101562 6.65625 -1.1875 C 5.570312 -2.269531 5.03125 -3.601562 5.03125 -5.1875 Z M 5.03125 -5.1875 "/></g></g><g style="fill:#ff914d;fill-opacity:1;"><g transform="translate(224.039552, 180.383475)"><path style="stroke:none" d="M 10.65625 -40.109375 C 12.238281 -40.109375 13.570312 -39.566406 14.65625 -38.484375 C 15.738281 -37.398438 16.28125 -36.066406 16.28125 -34.484375 L 16.28125 -33.96875 C 17.664062 -35.84375 19.332031 -37.382812 21.28125 -38.59375 C 23.226562 -39.800781 25.679688 -40.40625 28.640625 -40.40625 C 30.953125 -40.40625 33.191406 -39.957031 35.359375 -39.0625 C 37.535156 -38.175781 39.460938 -36.859375 41.140625 -35.109375 C 42.816406 -33.359375 44.160156 -31.210938 45.171875 -28.671875 C 46.179688 -26.128906 46.6875 -23.207031 46.6875 -19.90625 L 46.6875 -19.765625 C 46.6875 -16.453125 46.179688 -13.523438 45.171875 -10.984375 C 44.160156 -8.441406 42.828125 -6.296875 41.171875 -4.546875 C 39.523438 -2.796875 37.613281 -1.476562 35.4375 -0.59375 C 33.269531 0.289062 31.003906 0.734375 28.640625 0.734375 C 25.628906 0.734375 23.148438 0.144531 21.203125 -1.03125 C 19.253906 -2.21875 17.613281 -3.601562 16.28125 -5.1875 L 16.28125 6.65625 C 16.28125 8.238281 15.738281 9.570312 14.65625 10.65625 C 13.570312 11.738281 12.238281 12.28125 10.65625 12.28125 C 9.070312 12.28125 7.738281 11.738281 6.65625 10.65625 C 5.570312 9.570312 5.03125 8.238281 5.03125 6.65625 L 5.03125 -34.484375 C 5.03125 -36.066406 5.570312 -37.398438 6.65625 -38.484375 C 7.738281 -39.566406 9.070312 -40.109375 10.65625 -40.109375 Z M 16.125 -19.90625 L 16.125 -19.765625 C 16.125 -18.128906 16.382812 -16.632812 16.90625 -15.28125 C 17.425781 -13.925781 18.117188 -12.765625 18.984375 -11.796875 C 19.847656 -10.835938 20.859375 -10.097656 22.015625 -9.578125 C 23.171875 -9.066406 24.414062 -8.8125 25.75 -8.8125 C 27.082031 -8.8125 28.328125 -9.066406 29.484375 -9.578125 C 30.648438 -10.097656 31.675781 -10.835938 32.5625 -11.796875 C 33.445312 -12.765625 34.148438 -13.910156 34.671875 -15.234375 C 35.191406 -16.566406 35.453125 -18.078125 35.453125 -19.765625 L 35.453125 -19.90625 C 35.453125 -21.53125 35.191406 -23.019531 34.671875 -24.375 C 34.148438 -25.738281 33.445312 -26.898438 32.5625 -27.859375 C 31.675781 -28.816406 30.648438 -29.554688 29.484375 -30.078125 C 28.328125 -30.597656 27.082031 -30.859375 25.75 -30.859375 C 24.414062 -30.859375 23.171875 -30.597656 22.015625 -30.078125 C 20.859375 -29.554688 19.847656 -28.816406 18.984375 -27.859375 C 18.117188 -26.898438 17.425781 -25.738281 16.90625 -24.375 C 16.382812 -23.019531 16.125 -21.53125 16.125 -19.90625 Z M 16.125 -19.90625 "/></g></g><g style="fill:#ff914d;fill-opacity:1;"><g transform="translate(266.2917, 180.383475)"><path style="stroke:none" d="M 5.546875 -48.84375 C 5.546875 -50.414062 6.085938 -51.742188 7.171875 -52.828125 C 8.265625 -53.921875 9.597656 -54.46875 11.171875 -54.46875 C 12.753906 -54.46875 14.085938 -53.921875 15.171875 -52.828125 C 16.253906 -51.742188 16.796875 -50.414062 16.796875 -48.84375 L 16.796875 -5.1875 C 16.796875 -3.601562 16.253906 -2.269531 15.171875 -1.1875 C 14.085938 -0.101562 12.753906 0.4375 11.171875 0.4375 C 9.597656 0.4375 8.265625 -0.101562 7.171875 -1.1875 C 6.085938 -2.269531 5.546875 -3.601562 5.546875 -5.1875 Z M 5.546875 -48.84375 "/></g></g><g style="fill:#ff914d;fill-opacity:1;"><g transform="translate(280.942828, 180.383475)"><path style="stroke:none" d="M 3.109375 -19.765625 C 3.109375 -22.566406 3.585938 -25.226562 4.546875 -27.75 C 5.515625 -30.269531 6.859375 -32.460938 8.578125 -34.328125 C 10.304688 -36.203125 12.378906 -37.679688 14.796875 -38.765625 C 17.210938 -39.859375 19.851562 -40.40625 22.71875 -40.40625 C 26.070312 -40.40625 28.941406 -39.800781 31.328125 -38.59375 C 33.722656 -37.382812 35.695312 -35.84375 37.25 -33.96875 C 38.8125 -32.09375 39.960938 -30.03125 40.703125 -27.78125 C 41.441406 -25.539062 41.8125 -23.382812 41.8125 -21.3125 C 41.8125 -19.6875 41.304688 -18.378906 40.296875 -17.390625 C 39.285156 -16.398438 38.039062 -15.90625 36.5625 -15.90625 L 14.28125 -15.90625 C 14.820312 -13.34375 15.941406 -11.40625 17.640625 -10.09375 C 19.347656 -8.789062 21.457031 -8.140625 23.96875 -8.140625 C 25.550781 -8.140625 26.992188 -8.375 28.296875 -8.84375 C 29.609375 -9.3125 30.832031 -9.960938 31.96875 -10.796875 C 32.363281 -11.097656 32.769531 -11.320312 33.1875 -11.46875 C 33.601562 -11.613281 34.109375 -11.6875 34.703125 -11.6875 C 35.984375 -11.6875 37.03125 -11.265625 37.84375 -10.421875 C 38.664062 -9.585938 39.078125 -8.53125 39.078125 -7.25 C 39.078125 -6.507812 38.925781 -5.867188 38.625 -5.328125 C 38.332031 -4.785156 37.988281 -4.316406 37.59375 -3.921875 C 35.863281 -2.441406 33.875 -1.269531 31.625 -0.40625 C 29.382812 0.457031 26.785156 0.890625 23.828125 0.890625 C 20.867188 0.890625 18.117188 0.394531 15.578125 -0.59375 C 13.035156 -1.582031 10.835938 -2.988281 8.984375 -4.8125 C 7.140625 -6.632812 5.695312 -8.800781 4.65625 -11.3125 C 3.625 -13.832031 3.109375 -16.597656 3.109375 -19.609375 Z M 14.140625 -22.9375 L 31.078125 -22.9375 C 30.734375 -25.457031 29.84375 -27.492188 28.40625 -29.046875 C 26.976562 -30.597656 25.082031 -31.375 22.71875 -31.375 C 20.351562 -31.375 18.441406 -30.609375 16.984375 -29.078125 C 15.523438 -27.546875 14.578125 -25.5 14.140625 -22.9375 Z M 14.140625 -22.9375 "/></g></g><g style="fill:#ff914d;fill-opacity:1;"><g transform="translate(116.895968, 237.879122)"><path style="stroke:none" d="M 3.328125 -7.328125 L 21.390625 -48.09375 C 22.023438 -49.53125 22.894531 -50.640625 24 -51.421875 C 25.113281 -52.210938 26.460938 -52.609375 28.046875 -52.609375 L 28.71875 -52.609375 C 30.289062 -52.609375 31.617188 -52.210938 32.703125 -51.421875 C 33.796875 -50.640625 34.660156 -49.53125 35.296875 -48.09375 L 53.359375 -7.328125 C 53.753906 -6.242188 53.953125 -5.476562 53.953125 -5.03125 C 53.953125 -3.5 53.429688 -2.203125 52.390625 -1.140625 C 51.359375 -0.0859375 50.078125 0.4375 48.546875 0.4375 C 47.210938 0.4375 46.097656 0.0820312 45.203125 -0.625 C 44.316406 -1.34375 43.601562 -2.296875 43.0625 -3.484375 L 39.59375 -11.625 L 16.796875 -11.625 L 13.171875 -3.109375 C 12.679688 -1.972656 11.976562 -1.097656 11.0625 -0.484375 C 10.144531 0.128906 9.097656 0.4375 7.921875 0.4375 C 6.441406 0.4375 5.191406 -0.078125 4.171875 -1.109375 C 3.160156 -2.140625 2.65625 -3.398438 2.65625 -4.890625 C 2.65625 -5.273438 2.71875 -5.675781 2.84375 -6.09375 C 2.96875 -6.519531 3.128906 -6.929688 3.328125 -7.328125 Z M 21.015625 -21.6875 L 35.375 -21.6875 L 28.1875 -38.78125 Z M 21.015625 -21.6875 "/></g></g><g style="fill:#ff914d;fill-opacity:1;"><g transform="translate(165.881886, 237.879122)"><path style="stroke:none" d="M 10.65625 -40.109375 C 12.238281 -40.109375 13.570312 -39.566406 14.65625 -38.484375 C 15.738281 -37.398438 16.28125 -36.066406 16.28125 -34.484375 L 16.28125 -33.96875 C 17.664062 -35.84375 19.332031 -37.382812 21.28125 -38.59375 C 23.226562 -39.800781 25.679688 -40.40625 28.640625 -40.40625 C 30.953125 -40.40625 33.191406 -39.957031 35.359375 -39.0625 C 37.535156 -38.175781 39.460938 -36.859375 41.140625 -35.109375 C 42.816406 -33.359375 44.160156 -31.210938 45.171875 -28.671875 C 46.179688 -26.128906 46.6875 -23.207031 46.6875 -19.90625 L 46.6875 -19.765625 C 46.6875 -16.453125 46.179688 -13.523438 45.171875 -10.984375 C 44.160156 -8.441406 42.828125 -6.296875 41.171875 -4.546875 C 39.523438 -2.796875 37.613281 -1.476562 35.4375 -0.59375 C 33.269531 0.289062 31.003906 0.734375 28.640625 0.734375 C 25.628906 0.734375 23.148438 0.144531 21.203125 -1.03125 C 19.253906 -2.21875 17.613281 -3.601562 16.28125 -5.1875 L 16.28125 6.65625 C 16.28125 8.238281 15.738281 9.570312 14.65625 10.65625 C 13.570312 11.738281 12.238281 12.28125 10.65625 12.28125 C 9.070312 12.28125 7.738281 11.738281 6.65625 10.65625 C 5.570312 9.570312 5.03125 8.238281 5.03125 6.65625 L 5.03125 -34.484375 C 5.03125 -36.066406 5.570312 -37.398438 6.65625 -38.484375 C 7.738281 -39.566406 9.070312 -40.109375 10.65625 -40.109375 Z M 16.125 -19.90625 L 16.125 -19.765625 C 16.125 -18.128906 16.382812 -16.632812 16.90625 -15.28125 C 17.425781 -13.925781 18.117188 -12.765625 18.984375 -11.796875 C 19.847656 -10.835938 20.859375 -10.097656 22.015625 -9.578125 C 23.171875 -9.066406 24.414062 -8.8125 25.75 -8.8125 C 27.082031 -8.8125 28.328125 -9.066406 29.484375 -9.578125 C 30.648438 -10.097656 31.675781 -10.835938 32.5625 -11.796875 C 33.445312 -12.765625 34.148438 -13.910156 34.671875 -15.234375 C 35.191406 -16.566406 35.453125 -18.078125 35.453125 -19.765625 L 35.453125 -19.90625 C 35.453125 -21.53125 35.191406 -23.019531 34.671875 -24.375 C 34.148438 -25.738281 33.445312 -26.898438 32.5625 -27.859375 C 31.675781 -28.816406 30.648438 -29.554688 29.484375 -30.078125 C 28.328125 -30.597656 27.082031 -30.859375 25.75 -30.859375 C 24.414062 -30.859375 23.171875 -30.597656 22.015625 -30.078125 C 20.859375 -29.554688 19.847656 -28.816406 18.984375 -27.859375 C 18.117188 -26.898438 17.425781 -25.738281 16.90625 -24.375 C 16.382812 -23.019531 16.125 -21.53125 16.125 -19.90625 Z M 16.125 -19.90625 "/></g></g><g style="fill:#ff914d;fill-opacity:1;"><g transform="translate(208.134034, 237.879122)"><path style="stroke:none" d="M 10.65625 -40.109375 C 12.238281 -40.109375 13.570312 -39.566406 14.65625 -38.484375 C 15.738281 -37.398438 16.28125 -36.066406 16.28125 -34.484375 L 16.28125 -33.96875 C 17.664062 -35.84375 19.332031 -37.382812 21.28125 -38.59375 C 23.226562 -39.800781 25.679688 -40.40625 28.640625 -40.40625 C 30.953125 -40.40625 33.191406 -39.957031 35.359375 -39.0625 C 37.535156 -38.175781 39.460938 -36.859375 41.140625 -35.109375 C 42.816406 -33.359375 44.160156 -31.210938 45.171875 -28.671875 C 46.179688 -26.128906 46.6875 -23.207031 46.6875 -19.90625 L 46.6875 -19.765625 C 46.6875 -16.453125 46.179688 -13.523438 45.171875 -10.984375 C 44.160156 -8.441406 42.828125 -6.296875 41.171875 -4.546875 C 39.523438 -2.796875 37.613281 -1.476562 35.4375 -0.59375 C 33.269531 0.289062 31.003906 0.734375 28.640625 0.734375 C 25.628906 0.734375 23.148438 0.144531 21.203125 -1.03125 C 19.253906 -2.21875 17.613281 -3.601562 16.28125 -5.1875 L 16.28125 6.65625 C 16.28125 8.238281 15.738281 9.570312 14.65625 10.65625 C 13.570312 11.738281 12.238281 12.28125 10.65625 12.28125 C 9.070312 12.28125 7.738281 11.738281 6.65625 10.65625 C 5.570312 9.570312 5.03125 8.238281 5.03125 6.65625 L 5.03125 -34.484375 C 5.03125 -36.066406 5.570312 -37.398438 6.65625 -38.484375 C 7.738281 -39.566406 9.070312 -40.109375 10.65625 -40.109375 Z M 16.125 -19.90625 L 16.125 -19.765625 C 16.125 -18.128906 16.382812 -16.632812 16.90625 -15.28125 C 17.425781 -13.925781 18.117188 -12.765625 18.984375 -11.796875 C 19.847656 -10.835938 20.859375 -10.097656 22.015625 -9.578125 C 23.171875 -9.066406 24.414062 -8.8125 25.75 -8.8125 C 27.082031 -8.8125 28.328125 -9.066406 29.484375 -9.578125 C 30.648438 -10.097656 31.675781 -10.835938 32.5625 -11.796875 C 33.445312 -12.765625 34.148438 -13.910156 34.671875 -15.234375 C 35.191406 -16.566406 35.453125 -18.078125 35.453125 -19.765625 L 35.453125 -19.90625 C 35.453125 -21.53125 35.191406 -23.019531 34.671875 -24.375 C 34.148438 -25.738281 33.445312 -26.898438 32.5625 -27.859375 C 31.675781 -28.816406 30.648438 -29.554688 29.484375 -30.078125 C 28.328125 -30.597656 27.082031 -30.859375 25.75 -30.859375 C 24.414062 -30.859375 23.171875 -30.597656 22.015625 -30.078125 C 20.859375 -29.554688 19.847656 -28.816406 18.984375 -27.859375 C 18.117188 -26.898438 17.425781 -25.738281 16.90625 -24.375 C 16.382812 -23.019531 16.125 -21.53125 16.125 -19.90625 Z M 16.125 -19.90625 "/></g></g><g clip-rule="nonzero" clip-path="url(#343dd708b4)"><path style=" stroke:none;fill-rule:evenodd;fill:#f3be4a;fill-opacity:1;" d="M 270.589844 244.460938 C 270.589844 244.460938 273.820312 245.40625 274.863281 246.4375 C 275.910156 247.46875 276.863281 250.65625 276.863281 250.65625 C 276.863281 250.65625 277.820312 247.46875 278.863281 246.4375 C 279.910156 245.40625 283.140625 244.460938 283.140625 244.460938 C 283.140625 244.460938 279.910156 243.519531 278.863281 242.488281 C 277.820312 241.457031 276.863281 238.269531 276.863281 238.269531 C 276.863281 238.269531 275.910156 241.457031 274.863281 242.488281 C 273.820312 243.519531 270.589844 244.460938 270.589844 244.460938 Z M 270.242188 271.621094 C 270.242188 271.621094 275.136719 273.046875 276.722656 274.613281 C 278.3125 276.179688 279.757812 281.015625 279.757812 281.015625 C 279.757812 281.015625 281.203125 276.179688 282.789062 274.613281 C 284.375 273.046875 289.273438 271.621094 289.273438 271.621094 C 289.273438 271.621094 284.375 270.191406 282.789062 268.625 C 281.203125 267.0625 279.757812 262.226562 279.757812 262.226562 C 279.757812 262.226562 278.3125 267.0625 276.722656 268.625 C 275.136719 270.191406 270.242188 271.621094 270.242188 271.621094 Z M 245.054688 257.210938 C 245.054688 257.210938 252.566406 259.402344 255 261.804688 C 257.433594 264.203125 259.652344 271.621094 259.652344 271.621094 C 259.652344 271.621094 261.871094 264.203125 264.304688 261.804688 C 266.738281 259.402344 274.25 257.210938 274.25 257.210938 C 274.25 257.210938 266.738281 255.019531 264.304688 252.617188 C 261.871094 250.214844 259.652344 242.800781 259.652344 242.800781 C 259.652344 242.800781 257.433594 250.214844 255 252.617188 C 252.566406 255.019531 245.054688 257.210938 245.054688 257.210938 "/></g></g></svg>