<svg xmlns="http://www.w3.org/2000/svg" xmlns:xlink="http://www.w3.org/1999/xlink" width="300" zoomAndPan="magnify" viewBox="0 0 224.87999 74.999997" height="100" preserveAspectRatio="xMidYMid meet" version="1.2"><defs><clipPath id="3d8abc7086"><path d="M 0 0.0195312 L 224.761719 0.0195312 L 224.761719 74.980469 L 0 74.980469 Z M 0 0.0195312 "/></clipPath><clipPath id="9f73a4bf63"><path d="M 3.746094 0.0195312 L 221.132812 0.0195312 C 223.203125 0.0195312 224.878906 1.699219 224.878906 3.769531 L 224.878906 71.230469 C 224.878906 73.300781 223.203125 74.980469 221.132812 74.980469 L 3.746094 74.980469 C 1.679688 74.980469 0 73.300781 0 71.230469 L 0 3.769531 C 0 1.699219 1.679688 0.0195312 3.746094 0.0195312 Z M 3.746094 0.0195312 "/></clipPath><clipPath id="55a4174540"><path d="M 22.253906 28.5 L 45.492188 28.5 L 45.492188 49.488281 L 22.253906 49.488281 Z M 22.253906 28.5 "/></clipPath><clipPath id="155d3fe25c"><path d="M 194.835938 36.804688 L 220 36.804688 L 220 61.441406 L 194.835938 61.441406 Z M 194.835938 36.804688 "/></clipPath></defs><g id="c20ffabd68"><g clip-rule="nonzero" clip-path="url(#3d8abc7086)"><g clip-rule="nonzero" clip-path="url(#9f73a4bf63)"><path style=" stroke:none;fill-rule:nonzero;fill:#ffffff;fill-opacity:1;" d="M 0 0.0195312 L 224.878906 0.0195312 L 224.878906 74.980469 L 0 74.980469 Z M 0 0.0195312 "/></g></g><g clip-rule="nonzero" clip-path="url(#55a4174540)"><path style=" stroke:none;fill-rule:nonzero;fill:#ffffff;fill-opacity:1;" d="M 38.984375 28.613281 C 35.644531 28.613281 33.792969 31.027344 33.792969 31.027344 C 33.792969 31.027344 31.941406 28.613281 28.601562 28.613281 C 25.09375 28.613281 22.253906 31.453125 22.253906 34.960938 C 22.253906 40.363281 30.625 47.027344 33.105469 48.882812 C 33.515625 49.1875 34.066406 49.1875 34.476562 48.882812 C 36.957031 47.027344 45.328125 40.363281 45.328125 34.960938 C 45.328125 31.453125 42.488281 28.613281 38.984375 28.613281 Z M 38.984375 28.613281 "/></g><g style="fill:#000000;fill-opacity:1;"><g transform="translate(2.69856, 45.711241)"><path style="stroke:none" d="M 2.921875 -2.671875 L 2.921875 -21.625 C 2.921875 -22.363281 3.179688 -22.992188 3.703125 -23.515625 C 4.222656 -24.035156 4.851562 -24.296875 5.59375 -24.296875 L 19.0625 -24.296875 C 19.726562 -24.296875 20.289062 -24.066406 20.75 -23.609375 C 21.21875 -23.148438 21.453125 -22.582031 21.453125 -21.90625 C 21.453125 -21.238281 21.21875 -20.675781 20.75 -20.21875 C 20.289062 -19.769531 19.726562 -19.546875 19.0625 -19.546875 L 8.234375 -19.546875 L 8.234375 -14.609375 L 17.5 -14.609375 C 18.164062 -14.609375 18.726562 -14.378906 19.1875 -13.921875 C 19.65625 -13.460938 19.890625 -12.894531 19.890625 -12.21875 C 19.890625 -11.550781 19.65625 -10.988281 19.1875 -10.53125 C 18.726562 -10.082031 18.164062 -9.859375 17.5 -9.859375 L 8.234375 -9.859375 L 8.234375 -4.75 L 19.234375 -4.75 C 19.898438 -4.75 20.460938 -4.519531 20.921875 -4.0625 C 21.390625 -3.601562 21.625 -3.035156 21.625 -2.359375 C 21.625 -1.691406 21.390625 -1.128906 20.921875 -0.671875 C 20.460938 -0.222656 19.898438 0 19.234375 0 L 5.59375 0 C 4.851562 0 4.222656 -0.257812 3.703125 -0.78125 C 3.179688 -1.300781 2.921875 -1.929688 2.921875 -2.671875 Z M 2.921875 -2.671875 "/></g></g><g style="fill:#000000;fill-opacity:1;"><g transform="translate(22.344856, 45.711241)"><path style="stroke:none" d="M 1.390625 -2.015625 C 1.390625 -2.378906 1.453125 -2.707031 1.578125 -3 C 1.703125 -3.289062 1.882812 -3.5625 2.125 -3.8125 L 6.875 -9.4375 L 2.53125 -14.4375 C 1.957031 -15.09375 1.671875 -15.765625 1.671875 -16.453125 C 1.671875 -17.191406 1.90625 -17.78125 2.375 -18.21875 C 2.851562 -18.664062 3.425781 -18.890625 4.09375 -18.890625 C 4.625 -18.890625 5.082031 -18.769531 5.46875 -18.53125 C 5.851562 -18.300781 6.21875 -17.96875 6.5625 -17.53125 L 10 -12.953125 L 13.5 -17.53125 C 13.820312 -17.925781 14.171875 -18.25 14.546875 -18.5 C 14.921875 -18.757812 15.335938 -18.890625 15.796875 -18.890625 C 16.492188 -18.890625 17.078125 -18.675781 17.546875 -18.25 C 18.023438 -17.820312 18.265625 -17.269531 18.265625 -16.59375 C 18.265625 -16.226562 18.191406 -15.898438 18.046875 -15.609375 C 17.910156 -15.316406 17.738281 -15.046875 17.53125 -14.796875 L 13.015625 -9.515625 L 17.671875 -4.171875 C 18.253906 -3.515625 18.546875 -2.84375 18.546875 -2.15625 C 18.546875 -1.414062 18.304688 -0.820312 17.828125 -0.375 C 17.347656 0.0625 16.773438 0.28125 16.109375 0.28125 C 15.578125 0.28125 15.113281 0.164062 14.71875 -0.0625 C 14.320312 -0.300781 13.960938 -0.640625 13.640625 -1.078125 L 9.890625 -6 L 6.140625 -1.078125 C 5.816406 -0.679688 5.46875 -0.351562 5.09375 -0.09375 C 4.726562 0.15625 4.316406 0.28125 3.859375 0.28125 C 3.160156 0.28125 2.570312 0.0664062 2.09375 -0.359375 C 1.625 -0.785156 1.390625 -1.335938 1.390625 -2.015625 Z M 1.390625 -2.015625 "/></g></g><g style="fill:#000000;fill-opacity:1;"><g transform="translate(38.658773, 45.711241)"><path style="stroke:none" d="M 1.25 -5.421875 C 1.25 -6.429688 1.429688 -7.304688 1.796875 -8.046875 C 2.171875 -8.796875 2.6875 -9.410156 3.34375 -9.890625 C 4.007812 -10.378906 4.796875 -10.742188 5.703125 -10.984375 C 6.617188 -11.234375 7.632812 -11.359375 8.75 -11.359375 C 9.71875 -11.359375 10.550781 -11.285156 11.25 -11.140625 C 11.945312 -11.003906 12.628906 -10.820312 13.296875 -10.59375 L 13.296875 -10.90625 C 13.296875 -13.164062 11.960938 -14.296875 9.296875 -14.296875 C 8.554688 -14.296875 7.878906 -14.273438 7.265625 -14.234375 C 6.660156 -14.191406 6.125 -14.039062 5.65625 -13.78125 C 5.46875 -13.6875 5.210938 -13.640625 4.890625 -13.640625 C 4.296875 -13.640625 3.78125 -13.847656 3.34375 -14.265625 C 2.914062 -14.679688 2.703125 -15.191406 2.703125 -15.796875 C 2.703125 -16.253906 2.832031 -16.671875 3.09375 -17.046875 C 3.363281 -17.421875 3.707031 -17.6875 4.125 -17.84375 C 4.957031 -18.164062 5.84375 -18.40625 6.78125 -18.5625 C 7.71875 -18.726562 8.8125 -18.8125 10.0625 -18.8125 C 12.800781 -18.8125 14.867188 -18.15625 16.265625 -16.84375 C 17.660156 -15.539062 18.359375 -13.523438 18.359375 -10.796875 L 18.359375 -2.328125 C 18.359375 -1.609375 18.109375 -1.003906 17.609375 -0.515625 C 17.117188 -0.0351562 16.515625 0.203125 15.796875 0.203125 C 15.035156 0.203125 14.421875 -0.0195312 13.953125 -0.46875 C 13.492188 -0.914062 13.265625 -1.421875 13.265625 -1.984375 L 13.265625 -2.015625 C 12.617188 -1.296875 11.847656 -0.722656 10.953125 -0.296875 C 10.054688 0.128906 8.953125 0.34375 7.640625 0.34375 C 6.753906 0.34375 5.925781 0.222656 5.15625 -0.015625 C 4.382812 -0.253906 3.707031 -0.617188 3.125 -1.109375 C 2.539062 -1.597656 2.082031 -2.191406 1.75 -2.890625 C 1.414062 -3.597656 1.25 -4.414062 1.25 -5.34375 Z M 6.359375 -5.625 L 6.359375 -5.5625 C 6.359375 -4.84375 6.625 -4.285156 7.15625 -3.890625 C 7.6875 -3.492188 8.378906 -3.296875 9.234375 -3.296875 C 10.484375 -3.296875 11.484375 -3.597656 12.234375 -4.203125 C 12.984375 -4.804688 13.359375 -5.59375 13.359375 -6.5625 L 13.359375 -7.5 C 12.898438 -7.707031 12.382812 -7.875 11.8125 -8 C 11.25 -8.125 10.644531 -8.1875 10 -8.1875 C 8.863281 -8.1875 7.972656 -7.96875 7.328125 -7.53125 C 6.679688 -7.09375 6.359375 -6.457031 6.359375 -5.625 Z M 6.359375 -5.625 "/></g></g><g style="fill:#000000;fill-opacity:1;"><g transform="translate(55.597507, 45.711241)"><path style="stroke:none" d="M 2.359375 -2.4375 L 2.359375 -16.171875 C 2.359375 -16.921875 2.613281 -17.546875 3.125 -18.046875 C 3.632812 -18.554688 4.257812 -18.8125 5 -18.8125 C 5.738281 -18.8125 6.363281 -18.554688 6.875 -18.046875 C 7.382812 -17.546875 7.640625 -16.921875 7.640625 -16.171875 L 7.640625 -15.96875 C 7.941406 -16.363281 8.269531 -16.738281 8.625 -17.09375 C 8.988281 -17.457031 9.390625 -17.773438 9.828125 -18.046875 C 10.265625 -18.328125 10.753906 -18.546875 11.296875 -18.703125 C 11.835938 -18.867188 12.445312 -18.953125 13.125 -18.953125 C 15.625 -18.953125 17.367188 -17.96875 18.359375 -16 C 19.171875 -16.976562 20.070312 -17.710938 21.0625 -18.203125 C 22.0625 -18.703125 23.203125 -18.953125 24.484375 -18.953125 C 26.441406 -18.953125 27.976562 -18.375 29.09375 -17.21875 C 30.207031 -16.0625 30.765625 -14.359375 30.765625 -12.109375 L 30.765625 -2.4375 C 30.765625 -1.6875 30.507812 -1.054688 30 -0.546875 C 29.488281 -0.046875 28.863281 0.203125 28.125 0.203125 C 27.382812 0.203125 26.757812 -0.046875 26.25 -0.546875 C 25.738281 -1.054688 25.484375 -1.6875 25.484375 -2.4375 L 25.484375 -10.375 C 25.484375 -11.625 25.21875 -12.566406 24.6875 -13.203125 C 24.15625 -13.847656 23.390625 -14.171875 22.390625 -14.171875 C 21.398438 -14.171875 20.617188 -13.847656 20.046875 -13.203125 C 19.484375 -12.566406 19.203125 -11.625 19.203125 -10.375 L 19.203125 -2.4375 C 19.203125 -1.6875 18.945312 -1.054688 18.4375 -0.546875 C 17.925781 -0.046875 17.300781 0.203125 16.5625 0.203125 C 15.820312 0.203125 15.195312 -0.046875 14.6875 -0.546875 C 14.175781 -1.054688 13.921875 -1.6875 13.921875 -2.4375 L 13.921875 -10.375 C 13.921875 -11.625 13.65625 -12.566406 13.125 -13.203125 C 12.59375 -13.847656 11.828125 -14.171875 10.828125 -14.171875 C 9.835938 -14.171875 9.054688 -13.847656 8.484375 -13.203125 C 7.921875 -12.566406 7.640625 -11.625 7.640625 -10.375 L 7.640625 -2.4375 C 7.640625 -1.6875 7.382812 -1.054688 6.875 -0.546875 C 6.363281 -0.046875 5.738281 0.203125 5 0.203125 C 4.257812 0.203125 3.632812 -0.046875 3.125 -0.546875 C 2.613281 -1.054688 2.359375 -1.6875 2.359375 -2.4375 Z M 2.359375 -2.4375 "/></g></g><g style="fill:#000000;fill-opacity:1;"><g transform="translate(84.963238, 45.711241)"><path style="stroke:none" d="M 5 -18.8125 C 5.738281 -18.8125 6.363281 -18.554688 6.875 -18.046875 C 7.382812 -17.546875 7.640625 -16.921875 7.640625 -16.171875 L 7.640625 -15.9375 C 8.285156 -16.8125 9.066406 -17.53125 9.984375 -18.09375 C 10.898438 -18.664062 12.050781 -18.953125 13.4375 -18.953125 C 14.519531 -18.953125 15.570312 -18.742188 16.59375 -18.328125 C 17.613281 -17.910156 18.515625 -17.289062 19.296875 -16.46875 C 20.085938 -15.644531 20.71875 -14.640625 21.1875 -13.453125 C 21.664062 -12.265625 21.90625 -10.894531 21.90625 -9.34375 L 21.90625 -9.265625 C 21.90625 -7.710938 21.664062 -6.34375 21.1875 -5.15625 C 20.71875 -3.96875 20.09375 -2.960938 19.3125 -2.140625 C 18.539062 -1.316406 17.644531 -0.695312 16.625 -0.28125 C 15.613281 0.132812 14.550781 0.34375 13.4375 0.34375 C 12.019531 0.34375 10.851562 0.0664062 9.9375 -0.484375 C 9.03125 -1.035156 8.265625 -1.6875 7.640625 -2.4375 L 7.640625 3.125 C 7.640625 3.863281 7.382812 4.488281 6.875 5 C 6.363281 5.507812 5.738281 5.765625 5 5.765625 C 4.257812 5.765625 3.632812 5.507812 3.125 5 C 2.613281 4.488281 2.359375 3.863281 2.359375 3.125 L 2.359375 -16.171875 C 2.359375 -16.921875 2.613281 -17.546875 3.125 -18.046875 C 3.632812 -18.554688 4.257812 -18.8125 5 -18.8125 Z M 7.5625 -9.34375 L 7.5625 -9.265625 C 7.5625 -8.503906 7.679688 -7.804688 7.921875 -7.171875 C 8.171875 -6.535156 8.5 -5.988281 8.90625 -5.53125 C 9.3125 -5.082031 9.785156 -4.734375 10.328125 -4.484375 C 10.867188 -4.242188 11.453125 -4.125 12.078125 -4.125 C 12.703125 -4.125 13.285156 -4.242188 13.828125 -4.484375 C 14.378906 -4.734375 14.863281 -5.082031 15.28125 -5.53125 C 15.695312 -5.988281 16.023438 -6.53125 16.265625 -7.15625 C 16.503906 -7.78125 16.625 -8.484375 16.625 -9.265625 L 16.625 -9.34375 C 16.625 -10.101562 16.503906 -10.800781 16.265625 -11.4375 C 16.023438 -12.070312 15.695312 -12.613281 15.28125 -13.0625 C 14.863281 -13.519531 14.378906 -13.867188 13.828125 -14.109375 C 13.285156 -14.359375 12.703125 -14.484375 12.078125 -14.484375 C 11.453125 -14.484375 10.867188 -14.359375 10.328125 -14.109375 C 9.785156 -13.867188 9.3125 -13.519531 8.90625 -13.0625 C 8.5 -12.613281 8.171875 -12.070312 7.921875 -11.4375 C 7.679688 -10.800781 7.5625 -10.101562 7.5625 -9.34375 Z M 7.5625 -9.34375 "/></g></g><g style="fill:#000000;fill-opacity:1;"><g transform="translate(104.783096, 45.711241)"><path style="stroke:none" d="M 2.609375 -22.921875 C 2.609375 -23.660156 2.859375 -24.28125 3.359375 -24.78125 C 3.867188 -25.289062 4.5 -25.546875 5.25 -25.546875 C 5.988281 -25.546875 6.609375 -25.289062 7.109375 -24.78125 C 7.617188 -24.28125 7.875 -23.660156 7.875 -22.921875 L 7.875 -2.4375 C 7.875 -1.6875 7.617188 -1.054688 7.109375 -0.546875 C 6.609375 -0.046875 5.988281 0.203125 5.25 0.203125 C 4.5 0.203125 3.867188 -0.046875 3.359375 -0.546875 C 2.859375 -1.054688 2.609375 -1.6875 2.609375 -2.4375 Z M 2.609375 -22.921875 "/></g></g><g style="fill:#000000;fill-opacity:1;"><g transform="translate(111.655271, 45.711241)"><path style="stroke:none" d="M 1.453125 -9.265625 C 1.453125 -10.585938 1.675781 -11.835938 2.125 -13.015625 C 2.582031 -14.203125 3.21875 -15.234375 4.03125 -16.109375 C 4.84375 -16.984375 5.8125 -17.675781 6.9375 -18.1875 C 8.070312 -18.695312 9.3125 -18.953125 10.65625 -18.953125 C 12.226562 -18.953125 13.578125 -18.664062 14.703125 -18.09375 C 15.828125 -17.53125 16.753906 -16.804688 17.484375 -15.921875 C 18.210938 -15.046875 18.75 -14.082031 19.09375 -13.03125 C 19.4375 -11.976562 19.609375 -10.96875 19.609375 -10 C 19.609375 -9.238281 19.367188 -8.625 18.890625 -8.15625 C 18.421875 -7.695312 17.84375 -7.46875 17.15625 -7.46875 L 6.703125 -7.46875 C 6.953125 -6.257812 7.476562 -5.347656 8.28125 -4.734375 C 9.082031 -4.117188 10.070312 -3.8125 11.25 -3.8125 C 11.988281 -3.8125 12.664062 -3.921875 13.28125 -4.140625 C 13.894531 -4.367188 14.46875 -4.675781 15 -5.0625 C 15.1875 -5.207031 15.375 -5.3125 15.5625 -5.375 C 15.757812 -5.445312 16 -5.484375 16.28125 -5.484375 C 16.882812 -5.484375 17.375 -5.285156 17.75 -4.890625 C 18.132812 -4.503906 18.328125 -4.007812 18.328125 -3.40625 C 18.328125 -3.050781 18.257812 -2.75 18.125 -2.5 C 17.988281 -2.25 17.828125 -2.03125 17.640625 -1.84375 C 16.828125 -1.144531 15.894531 -0.59375 14.84375 -0.1875 C 13.789062 0.21875 12.566406 0.421875 11.171875 0.421875 C 9.785156 0.421875 8.492188 0.191406 7.296875 -0.265625 C 6.109375 -0.734375 5.082031 -1.394531 4.21875 -2.25 C 3.351562 -3.113281 2.675781 -4.132812 2.1875 -5.3125 C 1.695312 -6.488281 1.453125 -7.785156 1.453125 -9.203125 Z M 6.625 -10.765625 L 14.578125 -10.765625 C 14.421875 -11.941406 14.003906 -12.894531 13.328125 -13.625 C 12.660156 -14.351562 11.769531 -14.71875 10.65625 -14.71875 C 9.539062 -14.71875 8.640625 -14.359375 7.953125 -13.640625 C 7.273438 -12.921875 6.832031 -11.960938 6.625 -10.765625 Z M 6.625 -10.765625 "/></g></g><g style="fill:#000000;fill-opacity:1;"><g transform="translate(129.322965, 45.711241)"><path style="stroke:none" d="M 1.5625 -3.4375 L 10.03125 -22.5625 C 10.332031 -23.238281 10.742188 -23.757812 11.265625 -24.125 C 11.785156 -24.5 12.414062 -24.6875 13.15625 -24.6875 L 13.46875 -24.6875 C 14.207031 -24.6875 14.832031 -24.5 15.34375 -24.125 C 15.851562 -23.757812 16.257812 -23.238281 16.5625 -22.5625 L 25.03125 -3.4375 C 25.21875 -2.925781 25.3125 -2.566406 25.3125 -2.359375 C 25.3125 -1.640625 25.066406 -1.03125 24.578125 -0.53125 C 24.097656 -0.0390625 23.5 0.203125 22.78125 0.203125 C 22.15625 0.203125 21.632812 0.0351562 21.21875 -0.296875 C 20.800781 -0.628906 20.460938 -1.070312 20.203125 -1.625 L 18.578125 -5.453125 L 7.875 -5.453125 L 6.1875 -1.453125 C 5.945312 -0.921875 5.613281 -0.507812 5.1875 -0.21875 C 4.757812 0.0625 4.269531 0.203125 3.71875 0.203125 C 3.019531 0.203125 2.429688 -0.0351562 1.953125 -0.515625 C 1.484375 -1.003906 1.25 -1.597656 1.25 -2.296875 C 1.25 -2.472656 1.273438 -2.660156 1.328125 -2.859375 C 1.390625 -3.054688 1.46875 -3.25 1.5625 -3.4375 Z M 9.859375 -10.171875 L 16.59375 -10.171875 L 13.234375 -18.1875 Z M 9.859375 -10.171875 "/></g></g><g style="fill:#000000;fill-opacity:1;"><g transform="translate(152.30164, 45.711241)"><path style="stroke:none" d="M 5 -18.8125 C 5.738281 -18.8125 6.363281 -18.554688 6.875 -18.046875 C 7.382812 -17.546875 7.640625 -16.921875 7.640625 -16.171875 L 7.640625 -15.9375 C 8.285156 -16.8125 9.066406 -17.53125 9.984375 -18.09375 C 10.898438 -18.664062 12.050781 -18.953125 13.4375 -18.953125 C 14.519531 -18.953125 15.570312 -18.742188 16.59375 -18.328125 C 17.613281 -17.910156 18.515625 -17.289062 19.296875 -16.46875 C 20.085938 -15.644531 20.71875 -14.640625 21.1875 -13.453125 C 21.664062 -12.265625 21.90625 -10.894531 21.90625 -9.34375 L 21.90625 -9.265625 C 21.90625 -7.710938 21.664062 -6.34375 21.1875 -5.15625 C 20.71875 -3.96875 20.09375 -2.960938 19.3125 -2.140625 C 18.539062 -1.316406 17.644531 -0.695312 16.625 -0.28125 C 15.613281 0.132812 14.550781 0.34375 13.4375 0.34375 C 12.019531 0.34375 10.851562 0.0664062 9.9375 -0.484375 C 9.03125 -1.035156 8.265625 -1.6875 7.640625 -2.4375 L 7.640625 3.125 C 7.640625 3.863281 7.382812 4.488281 6.875 5 C 6.363281 5.507812 5.738281 5.765625 5 5.765625 C 4.257812 5.765625 3.632812 5.507812 3.125 5 C 2.613281 4.488281 2.359375 3.863281 2.359375 3.125 L 2.359375 -16.171875 C 2.359375 -16.921875 2.613281 -17.546875 3.125 -18.046875 C 3.632812 -18.554688 4.257812 -18.8125 5 -18.8125 Z M 7.5625 -9.34375 L 7.5625 -9.265625 C 7.5625 -8.503906 7.679688 -7.804688 7.921875 -7.171875 C 8.171875 -6.535156 8.5 -5.988281 8.90625 -5.53125 C 9.3125 -5.082031 9.785156 -4.734375 10.328125 -4.484375 C 10.867188 -4.242188 11.453125 -4.125 12.078125 -4.125 C 12.703125 -4.125 13.285156 -4.242188 13.828125 -4.484375 C 14.378906 -4.734375 14.863281 -5.082031 15.28125 -5.53125 C 15.695312 -5.988281 16.023438 -6.53125 16.265625 -7.15625 C 16.503906 -7.78125 16.625 -8.484375 16.625 -9.265625 L 16.625 -9.34375 C 16.625 -10.101562 16.503906 -10.800781 16.265625 -11.4375 C 16.023438 -12.070312 15.695312 -12.613281 15.28125 -13.0625 C 14.863281 -13.519531 14.378906 -13.867188 13.828125 -14.109375 C 13.285156 -14.359375 12.703125 -14.484375 12.078125 -14.484375 C 11.453125 -14.484375 10.867188 -14.359375 10.328125 -14.109375 C 9.785156 -13.867188 9.3125 -13.519531 8.90625 -13.0625 C 8.5 -12.613281 8.171875 -12.070312 7.921875 -11.4375 C 7.679688 -10.800781 7.5625 -10.101562 7.5625 -9.34375 Z M 7.5625 -9.34375 "/></g></g><g style="fill:#000000;fill-opacity:1;"><g transform="translate(172.121489, 45.711241)"><path style="stroke:none" d="M 5 -18.8125 C 5.738281 -18.8125 6.363281 -18.554688 6.875 -18.046875 C 7.382812 -17.546875 7.640625 -16.921875 7.640625 -16.171875 L 7.640625 -15.9375 C 8.285156 -16.8125 9.066406 -17.53125 9.984375 -18.09375 C 10.898438 -18.664062 12.050781 -18.953125 13.4375 -18.953125 C 14.519531 -18.953125 15.570312 -18.742188 16.59375 -18.328125 C 17.613281 -17.910156 18.515625 -17.289062 19.296875 -16.46875 C 20.085938 -15.644531 20.71875 -14.640625 21.1875 -13.453125 C 21.664062 -12.265625 21.90625 -10.894531 21.90625 -9.34375 L 21.90625 -9.265625 C 21.90625 -7.710938 21.664062 -6.34375 21.1875 -5.15625 C 20.71875 -3.96875 20.09375 -2.960938 19.3125 -2.140625 C 18.539062 -1.316406 17.644531 -0.695312 16.625 -0.28125 C 15.613281 0.132812 14.550781 0.34375 13.4375 0.34375 C 12.019531 0.34375 10.851562 0.0664062 9.9375 -0.484375 C 9.03125 -1.035156 8.265625 -1.6875 7.640625 -2.4375 L 7.640625 3.125 C 7.640625 3.863281 7.382812 4.488281 6.875 5 C 6.363281 5.507812 5.738281 5.765625 5 5.765625 C 4.257812 5.765625 3.632812 5.507812 3.125 5 C 2.613281 4.488281 2.359375 3.863281 2.359375 3.125 L 2.359375 -16.171875 C 2.359375 -16.921875 2.613281 -17.546875 3.125 -18.046875 C 3.632812 -18.554688 4.257812 -18.8125 5 -18.8125 Z M 7.5625 -9.34375 L 7.5625 -9.265625 C 7.5625 -8.503906 7.679688 -7.804688 7.921875 -7.171875 C 8.171875 -6.535156 8.5 -5.988281 8.90625 -5.53125 C 9.3125 -5.082031 9.785156 -4.734375 10.328125 -4.484375 C 10.867188 -4.242188 11.453125 -4.125 12.078125 -4.125 C 12.703125 -4.125 13.285156 -4.242188 13.828125 -4.484375 C 14.378906 -4.734375 14.863281 -5.082031 15.28125 -5.53125 C 15.695312 -5.988281 16.023438 -6.53125 16.265625 -7.15625 C 16.503906 -7.78125 16.625 -8.484375 16.625 -9.265625 L 16.625 -9.34375 C 16.625 -10.101562 16.503906 -10.800781 16.265625 -11.4375 C 16.023438 -12.070312 15.695312 -12.613281 15.28125 -13.0625 C 14.863281 -13.519531 14.378906 -13.867188 13.828125 -14.109375 C 13.285156 -14.359375 12.703125 -14.484375 12.078125 -14.484375 C 11.453125 -14.484375 10.867188 -14.359375 10.328125 -14.109375 C 9.785156 -13.867188 9.3125 -13.519531 8.90625 -13.0625 C 8.5 -12.613281 8.171875 -12.070312 7.921875 -11.4375 C 7.679688 -10.800781 7.5625 -10.101562 7.5625 -9.34375 Z M 7.5625 -9.34375 "/></g></g><g clip-rule="nonzero" clip-path="url(#155d3fe25c)"><path style=" stroke:none;fill-rule:evenodd;fill:#000000;fill-opacity:1;" d="M 209.371094 40.378906 C 209.371094 40.378906 211.207031 40.921875 211.804688 41.515625 C 212.398438 42.109375 212.941406 43.945312 212.941406 43.945312 C 212.941406 43.945312 213.484375 42.109375 214.078125 41.515625 C 214.671875 40.921875 216.511719 40.378906 216.511719 40.378906 C 216.511719 40.378906 214.671875 39.835938 214.078125 39.238281 C 213.484375 38.644531 212.941406 36.808594 212.941406 36.808594 C 212.941406 36.808594 212.398438 38.644531 211.804688 39.238281 C 211.207031 39.835938 209.371094 40.378906 209.371094 40.378906 Z M 209.171875 56.027344 C 209.171875 56.027344 211.957031 56.851562 212.859375 57.753906 C 213.761719 58.65625 214.585938 61.441406 214.585938 61.441406 C 214.585938 61.441406 215.410156 58.65625 216.3125 57.753906 C 217.214844 56.851562 220 56.027344 220 56.027344 C 220 56.027344 217.214844 55.207031 216.3125 54.304688 C 215.410156 53.402344 214.585938 50.613281 214.585938 50.613281 C 214.585938 50.613281 213.761719 53.402344 212.859375 54.304688 C 211.957031 55.207031 209.171875 56.027344 209.171875 56.027344 Z M 194.84375 47.722656 C 194.84375 47.722656 199.117188 48.988281 200.503906 50.371094 C 201.886719 51.753906 203.148438 56.027344 203.148438 56.027344 C 203.148438 56.027344 204.410156 51.753906 205.796875 50.371094 C 207.179688 48.988281 211.453125 47.722656 211.453125 47.722656 C 211.453125 47.722656 207.179688 46.460938 205.796875 45.078125 C 204.410156 43.695312 203.148438 39.421875 203.148438 39.421875 C 203.148438 39.421875 201.886719 43.695312 200.503906 45.078125 C 199.117188 46.460938 194.84375 47.722656 194.84375 47.722656 "/></g></g></svg>