<svg xmlns="http://www.w3.org/2000/svg" xmlns:xlink="http://www.w3.org/1999/xlink" width="500" zoomAndPan="magnify" viewBox="0 0 375 374.999991" height="500" preserveAspectRatio="xMidYMid meet" version="1.0"><defs><g/><clipPath id="45fefd36e1"><path d="M 10.5 0 L 364.5 0 C 370.300781 0 375 4.699219 375 10.5 L 375 364.5 C 375 370.300781 370.300781 375 364.5 375 L 10.5 375 C 4.699219 375 0 370.300781 0 364.5 L 0 10.5 C 0 4.699219 4.699219 0 10.5 0 Z M 10.5 0 " clip-rule="nonzero"/></clipPath><clipPath id="2484fc36b0"><path d="M 0 0 L 375 0 L 375 375 L 0 375 Z M 0 0 " clip-rule="nonzero"/></clipPath><clipPath id="c2938b7704"><path d="M 10.5 0 L 364.5 0 C 370.300781 0 375 4.699219 375 10.5 L 375 364.5 C 375 370.300781 370.300781 375 364.5 375 L 10.5 375 C 4.699219 375 0 370.300781 0 364.5 L 0 10.5 C 0 4.699219 4.699219 0 10.5 0 Z M 10.5 0 " clip-rule="nonzero"/></clipPath><clipPath id="1445622151"><rect x="0" width="375" y="0" height="375"/></clipPath><clipPath id="105598eb73"><path d="M 258.453125 241.789062 L 296.703125 241.789062 L 296.703125 280.789062 L 258.453125 280.789062 Z M 258.453125 241.789062 " clip-rule="nonzero"/></clipPath></defs><g clip-path="url(#45fefd36e1)"><g transform="matrix(1, 0, 0, 1, 0, 0)"><g clip-path="url(#1445622151)"><g clip-path="url(#2484fc36b0)"><g clip-path="url(#c2938b7704)"><rect x="-82.5" width="540" fill="#ffffff" height="539.999987" y="-82.499998" fill-opacity="1"/></g></g></g></g></g><g fill="#ff914d" fill-opacity="1"><g transform="translate(71.416034, 179.137195)"><g><path d="M 40.546875 -49.640625 L 38.84375 -38.703125 L 23.234375 -38.703125 L 21.921875 -30.40625 L 36.078125 -30.40625 L 34.359375 -19.484375 L 20.203125 -19.484375 L 17.109375 0 L 4.21875 0 L 12.046875 -49.640625 Z M 40.546875 -49.640625 "/></g></g></g><g fill="#ff914d" fill-opacity="1"><g transform="translate(103.142717, 179.137195)"><g><path d="M 34.234375 -33.765625 L 46.21875 -33.765625 L 40.875 0 L 28.90625 0 L 29.484375 -3.75 L 29.359375 -3.75 C 28.128906 -2.164062 26.515625 -0.957031 24.515625 -0.125 C 22.523438 0.707031 20.472656 1.125 18.359375 1.125 C 14.148438 1.125 10.695312 -0.28125 8 -3.09375 C 5.300781 -5.90625 3.953125 -9.460938 3.953125 -13.765625 C 3.953125 -17.273438 4.835938 -20.660156 6.609375 -23.921875 C 8.390625 -27.191406 10.828125 -29.835938 13.921875 -31.859375 C 17.015625 -33.878906 20.363281 -34.890625 23.96875 -34.890625 C 25.976562 -34.890625 27.847656 -34.515625 29.578125 -33.765625 C 31.316406 -33.023438 32.691406 -31.929688 33.703125 -30.484375 Z M 23.046875 -9.28125 C 25.628906 -9.28125 27.785156 -10.164062 29.515625 -11.9375 C 31.253906 -13.71875 32.125 -15.835938 32.125 -18.296875 C 32.125 -20.054688 31.53125 -21.523438 30.34375 -22.703125 C 29.15625 -23.890625 27.507812 -24.484375 25.40625 -24.484375 C 23 -24.484375 20.90625 -23.59375 19.125 -21.8125 C 17.34375 -20.039062 16.453125 -17.882812 16.453125 -15.34375 C 16.453125 -13.5 17.019531 -12.023438 18.15625 -10.921875 C 19.300781 -9.828125 20.929688 -9.28125 23.046875 -9.28125 Z M 23.046875 -9.28125 "/></g></g></g><g fill="#ff914d" fill-opacity="1"><g transform="translate(144.084799, 179.137195)"><g><path d="M 24.6875 -34.890625 C 28.894531 -34.890625 32.492188 -34.164062 35.484375 -32.71875 L 30.21875 -25.078125 C 28.195312 -26.171875 26.15625 -26.71875 24.09375 -26.71875 C 22.945312 -26.71875 21.96875 -26.488281 21.15625 -26.03125 C 20.351562 -25.570312 19.953125 -24.925781 19.953125 -24.09375 C 19.953125 -22.90625 21.132812 -22.113281 23.5 -21.71875 C 27.007812 -21.15625 29.507812 -20.171875 31 -18.765625 C 32.5 -17.359375 33.25 -15.554688 33.25 -13.359375 C 33.25 -9.191406 31.546875 -5.734375 28.140625 -2.984375 C 24.742188 -0.242188 20.390625 1.125 15.078125 1.125 C 10.296875 1.125 5.992188 -0.171875 2.171875 -2.765625 L 7.828125 -11.125 C 9.148438 -10.070312 10.675781 -9.238281 12.40625 -8.625 C 14.144531 -8.007812 15.601562 -7.703125 16.78125 -7.703125 C 17.882812 -7.703125 18.851562 -7.960938 19.6875 -8.484375 C 20.519531 -9.015625 20.9375 -9.742188 20.9375 -10.671875 C 20.9375 -11.367188 20.570312 -11.925781 19.84375 -12.34375 C 19.125 -12.757812 18.015625 -13.117188 16.515625 -13.421875 C 13.179688 -14.085938 10.890625 -15 9.640625 -16.15625 C 8.390625 -17.320312 7.765625 -18.9375 7.765625 -21 C 7.765625 -25.082031 9.398438 -28.414062 12.671875 -31 C 15.941406 -33.59375 19.945312 -34.890625 24.6875 -34.890625 Z M 24.6875 -34.890625 "/></g></g></g><g fill="#ff914d" fill-opacity="1"><g transform="translate(173.902585, 179.137195)"><g><path d="M 24.03125 -43.90625 L 22.375 -33.765625 L 29.15625 -33.765625 L 27.578125 -23.890625 L 20.796875 -23.890625 L 17.046875 0 L 5.0625 0 L 8.828125 -23.890625 L 4.9375 -23.890625 L 6.515625 -33.765625 L 10.40625 -33.765625 L 12.046875 -43.90625 Z M 24.03125 -43.90625 "/></g></g></g><g fill="#ff914d" fill-opacity="1"><g transform="translate(193.649261, 179.137195)"><g><path d="M 40.75 -49.640625 L 51.609375 0 L 37.84375 0 L 36.015625 -8.625 L 18.234375 -8.625 L 13.421875 0 L -0.265625 0 L 26.65625 -49.640625 Z M 23.375 -18.5 L 34.09375 -18.5 L 31.328125 -34.296875 L 31.203125 -34.296875 Z M 23.375 -18.5 "/></g></g></g><g fill="#ff914d" fill-opacity="1"><g transform="translate(241.107952, 179.137195)"><g><path d="M 32.125 -49.640625 C 36.90625 -49.640625 40.675781 -48.5625 43.4375 -46.40625 C 46.207031 -44.257812 47.59375 -41.097656 47.59375 -36.921875 C 47.59375 -33.640625 46.867188 -30.265625 45.421875 -26.796875 C 43.972656 -23.328125 41.625 -20.710938 38.375 -18.953125 C 35.125 -17.203125 31.484375 -16.367188 27.453125 -16.453125 L 19.75 -16.453125 L 17.109375 0 L 4.21875 0 L 12.046875 -49.640625 Z M 23.296875 -39.234375 L 21.390625 -26.859375 L 24.546875 -26.859375 C 28.191406 -26.859375 30.660156 -27.515625 31.953125 -28.828125 C 33.253906 -30.148438 33.90625 -32.125 33.90625 -34.75 C 33.90625 -36.375 33.363281 -37.523438 32.28125 -38.203125 C 31.207031 -38.890625 29.488281 -39.234375 27.125 -39.234375 Z M 23.296875 -39.234375 "/></g></g></g><g fill="#ff914d" fill-opacity="1"><g transform="translate(280.667714, 179.137195)"><g><path d="M 24.953125 -49.640625 L 17.109375 0 L 4.21875 0 L 12.046875 -49.640625 Z M 24.953125 -49.640625 "/></g></g></g><g fill="#ff914d" fill-opacity="1"><g transform="translate(43.607442, 230.137192)"><g><path d="M 42.453125 -49.640625 L 40.75 -38.703125 L 30.078125 -38.703125 L 23.96875 0 L 11.0625 0 L 17.1875 -38.703125 L 6.515625 -38.703125 L 8.234375 -49.640625 Z M 42.453125 -49.640625 "/></g></g></g><g fill="#ff914d" fill-opacity="1"><g transform="translate(74.74171, 230.137192)"><g><path d="M 41.53125 -20.203125 C 41.53125 -18.847656 41.359375 -17.070312 41.015625 -14.875 L 15.796875 -14.875 C 15.753906 -14.65625 15.722656 -14.378906 15.703125 -14.046875 C 15.679688 -13.722656 15.671875 -13.382812 15.671875 -13.03125 C 15.671875 -9.300781 17.820312 -7.414062 22.125 -7.375 C 24.84375 -7.375 26.90625 -8.40625 28.3125 -10.46875 L 39.828125 -10.46875 C 38.460938 -6.914062 36.066406 -4.09375 32.640625 -2 C 29.222656 0.0820312 25.273438 1.125 20.796875 1.125 C 15.492188 1.125 11.347656 -0.171875 8.359375 -2.765625 C 5.378906 -5.359375 3.890625 -8.910156 3.890625 -13.421875 C 3.890625 -17.378906 4.84375 -21.046875 6.75 -24.421875 C 8.65625 -27.796875 11.285156 -30.382812 14.640625 -32.1875 C 18.003906 -33.988281 21.570312 -34.890625 25.34375 -34.890625 C 30.519531 -34.890625 34.507812 -33.625 37.3125 -31.09375 C 40.125 -28.570312 41.53125 -24.941406 41.53125 -20.203125 Z M 30.9375 -21.796875 L 30.9375 -21.859375 C 30.894531 -23.429688 30.300781 -24.703125 29.15625 -25.671875 C 28.019531 -26.640625 26.617188 -27.125 24.953125 -27.125 C 23.191406 -27.125 21.597656 -26.660156 20.171875 -25.734375 C 18.742188 -24.816406 17.703125 -23.503906 17.046875 -21.796875 Z M 30.9375 -21.796875 "/></g></g></g><g fill="#ff914d" fill-opacity="1"><g transform="translate(110.944452, 230.137192)"><g><path d="M 42.71875 -28.4375 C 44.082031 -30.320312 45.867188 -31.867188 48.078125 -33.078125 C 50.296875 -34.285156 52.679688 -34.890625 55.234375 -34.890625 C 61.722656 -34.890625 64.96875 -31.6875 64.96875 -25.28125 C 64.96875 -23.875 64.707031 -21.65625 64.1875 -18.625 L 61.21875 0 L 49.234375 0 L 51.8125 -16.125 C 52.070312 -17.351562 52.222656 -18.800781 52.265625 -20.46875 C 52.265625 -23.71875 50.945312 -25.34375 48.3125 -25.34375 C 46.738281 -25.34375 45.476562 -24.957031 44.53125 -24.1875 C 43.59375 -23.425781 42.859375 -22.414062 42.328125 -21.15625 C 41.796875 -19.90625 41.359375 -17.921875 41.015625 -15.203125 L 38.578125 0 L 26.59375 0 L 29.15625 -16.125 C 29.46875 -17.96875 29.625 -19.414062 29.625 -20.46875 C 29.625 -23.894531 28.195312 -25.609375 25.34375 -25.609375 C 23.5 -25.609375 22.015625 -24.894531 20.890625 -23.46875 C 19.773438 -22.039062 18.976562 -19.59375 18.5 -16.125 L 15.9375 0 L 3.953125 0 L 9.28125 -33.765625 L 21.265625 -33.765625 L 20.609375 -29.5625 L 20.734375 -29.5625 C 23.941406 -33.113281 27.78125 -34.890625 32.25 -34.890625 C 37.476562 -34.890625 40.96875 -32.738281 42.71875 -28.4375 Z M 42.71875 -28.4375 "/></g></g></g><g fill="#ff914d" fill-opacity="1"><g transform="translate(172.094591, 230.137192)"><g><path d="M 45.8125 -19.953125 C 45.8125 -16.347656 44.898438 -12.898438 43.078125 -9.609375 C 41.265625 -6.316406 38.796875 -3.703125 35.671875 -1.765625 C 32.554688 0.160156 29.351562 1.125 26.0625 1.125 C 21.457031 1.125 18.125 -0.320312 16.0625 -3.21875 L 12.84375 16.859375 L 0.859375 16.859375 L 8.890625 -33.765625 L 20.875 -33.765625 L 20.28125 -29.953125 L 20.40625 -29.953125 C 21.675781 -31.484375 23.273438 -32.6875 25.203125 -33.5625 C 27.140625 -34.445312 29.207031 -34.890625 31.40625 -34.890625 C 35.65625 -34.890625 39.117188 -33.472656 41.796875 -30.640625 C 44.472656 -27.804688 45.8125 -24.242188 45.8125 -19.953125 Z M 24.296875 -9.28125 C 26.878906 -9.28125 29.035156 -10.15625 30.765625 -11.90625 C 32.503906 -13.664062 33.375 -15.773438 33.375 -18.234375 C 33.375 -20.117188 32.78125 -21.628906 31.59375 -22.765625 C 30.40625 -23.910156 28.757812 -24.484375 26.65625 -24.484375 C 24.15625 -24.484375 22.035156 -23.59375 20.296875 -21.8125 C 18.566406 -20.039062 17.703125 -17.882812 17.703125 -15.34375 C 17.703125 -13.5 18.296875 -12.023438 19.484375 -10.921875 C 20.671875 -9.828125 22.273438 -9.28125 24.296875 -9.28125 Z M 24.296875 -9.28125 "/></g></g></g><g fill="#ff914d" fill-opacity="1"><g transform="translate(213.036673, 230.137192)"><g><path d="M 24.546875 -54.640625 L 15.9375 0 L 3.953125 0 L 12.578125 -54.640625 Z M 24.546875 -54.640625 "/></g></g></g><g fill="#ff914d" fill-opacity="1"><g transform="translate(228.965532, 230.137192)"><g><path d="M 34.234375 -33.765625 L 46.21875 -33.765625 L 40.875 0 L 28.90625 0 L 29.484375 -3.75 L 29.359375 -3.75 C 28.128906 -2.164062 26.515625 -0.957031 24.515625 -0.125 C 22.523438 0.707031 20.472656 1.125 18.359375 1.125 C 14.148438 1.125 10.695312 -0.28125 8 -3.09375 C 5.300781 -5.90625 3.953125 -9.460938 3.953125 -13.765625 C 3.953125 -17.273438 4.835938 -20.660156 6.609375 -23.921875 C 8.390625 -27.191406 10.828125 -29.835938 13.921875 -31.859375 C 17.015625 -33.878906 20.363281 -34.890625 23.96875 -34.890625 C 25.976562 -34.890625 27.847656 -34.515625 29.578125 -33.765625 C 31.316406 -33.023438 32.691406 -31.929688 33.703125 -30.484375 Z M 23.046875 -9.28125 C 25.628906 -9.28125 27.785156 -10.164062 29.515625 -11.9375 C 31.253906 -13.71875 32.125 -15.835938 32.125 -18.296875 C 32.125 -20.054688 31.53125 -21.523438 30.34375 -22.703125 C 29.15625 -23.890625 27.507812 -24.484375 25.40625 -24.484375 C 23 -24.484375 20.90625 -23.59375 19.125 -21.8125 C 17.34375 -20.039062 16.453125 -17.882812 16.453125 -15.34375 C 16.453125 -13.5 17.019531 -12.023438 18.15625 -10.921875 C 19.300781 -9.828125 20.929688 -9.28125 23.046875 -9.28125 Z M 23.046875 -9.28125 "/></g></g></g><g fill="#ff914d" fill-opacity="1"><g transform="translate(269.907615, 230.137192)"><g><path d="M 24.03125 -43.90625 L 22.375 -33.765625 L 29.15625 -33.765625 L 27.578125 -23.890625 L 20.796875 -23.890625 L 17.046875 0 L 5.0625 0 L 8.828125 -23.890625 L 4.9375 -23.890625 L 6.515625 -33.765625 L 10.40625 -33.765625 L 12.046875 -43.90625 Z M 24.03125 -43.90625 "/></g></g></g><g fill="#ff914d" fill-opacity="1"><g transform="translate(289.654302, 230.137192)"><g><path d="M 41.53125 -20.203125 C 41.53125 -18.847656 41.359375 -17.070312 41.015625 -14.875 L 15.796875 -14.875 C 15.753906 -14.65625 15.722656 -14.378906 15.703125 -14.046875 C 15.679688 -13.722656 15.671875 -13.382812 15.671875 -13.03125 C 15.671875 -9.300781 17.820312 -7.414062 22.125 -7.375 C 24.84375 -7.375 26.90625 -8.40625 28.3125 -10.46875 L 39.828125 -10.46875 C 38.460938 -6.914062 36.066406 -4.09375 32.640625 -2 C 29.222656 0.0820312 25.273438 1.125 20.796875 1.125 C 15.492188 1.125 11.347656 -0.171875 8.359375 -2.765625 C 5.378906 -5.359375 3.890625 -8.910156 3.890625 -13.421875 C 3.890625 -17.378906 4.84375 -21.046875 6.75 -24.421875 C 8.65625 -27.796875 11.285156 -30.382812 14.640625 -32.1875 C 18.003906 -33.988281 21.570312 -34.890625 25.34375 -34.890625 C 30.519531 -34.890625 34.507812 -33.625 37.3125 -31.09375 C 40.125 -28.570312 41.53125 -24.941406 41.53125 -20.203125 Z M 30.9375 -21.796875 L 30.9375 -21.859375 C 30.894531 -23.429688 30.300781 -24.703125 29.15625 -25.671875 C 28.019531 -26.640625 26.617188 -27.125 24.953125 -27.125 C 23.191406 -27.125 21.597656 -26.660156 20.171875 -25.734375 C 18.742188 -24.816406 17.703125 -23.503906 17.046875 -21.796875 Z M 30.9375 -21.796875 "/></g></g></g><g clip-path="url(#105598eb73)"><path fill="#f3be4a" d="M 291.15625 264.308594 C 291.15625 264.308594 290.316406 267.15625 289.390625 268.078125 C 288.46875 269 285.617188 269.839844 285.617188 269.839844 C 285.617188 269.839844 288.46875 270.683594 289.390625 271.601562 C 290.316406 272.527344 291.15625 275.371094 291.15625 275.371094 C 291.15625 275.371094 292 272.527344 292.925781 271.601562 C 293.847656 270.683594 296.699219 269.839844 296.699219 269.839844 C 296.699219 269.839844 293.847656 269 292.925781 268.078125 C 292 267.15625 291.15625 264.308594 291.15625 264.308594 Z M 266.859375 264.003906 C 266.859375 264.003906 265.582031 268.320312 264.179688 269.71875 C 262.777344 271.117188 258.453125 272.390625 258.453125 272.390625 C 258.453125 272.390625 262.777344 273.664062 264.179688 275.0625 C 265.582031 276.460938 266.859375 280.777344 266.859375 280.777344 C 266.859375 280.777344 268.136719 276.460938 269.539062 275.0625 C 270.9375 273.664062 275.265625 272.390625 275.265625 272.390625 C 275.265625 272.390625 270.9375 271.117188 269.539062 269.71875 C 268.136719 268.320312 266.859375 264.003906 266.859375 264.003906 Z M 279.75 241.804688 C 279.75 241.804688 277.792969 248.425781 275.644531 250.570312 C 273.492188 252.714844 266.859375 254.667969 266.859375 254.667969 C 266.859375 254.667969 273.492188 256.625 275.644531 258.769531 C 277.792969 260.914062 279.75 267.535156 279.75 267.535156 C 279.75 267.535156 281.710938 260.914062 283.859375 258.769531 C 286.007812 256.625 292.644531 254.667969 292.644531 254.667969 C 292.644531 254.667969 286.007812 252.714844 283.859375 250.570312 C 281.710938 248.425781 279.75 241.804688 279.75 241.804688 " fill-opacity="1" fill-rule="evenodd"/></g></svg>